<?xml version="1.0" encoding="UTF-8"?>
<svg id="Layer_1" xmlns="http://www.w3.org/2000/svg" version="1.1" viewBox="0 0 200 130">
  <!-- Generator: Adobe Illustrator 30.4.0, SVG Export Plug-In . SVG Version: 2.1.4 Build 226)  -->
  <defs>
    <clipPath id="line-reveal" clipPathUnits="userSpaceOnUse">
      <rect x="15" y="35" height="40" width="0">
        <animate attributeName="width" values="0;168;168;0;0" keyTimes="0;0.3;0.92;0.921;1" dur="5s" repeatCount="indefinite" begin="3.2s"/>
      </rect>
    </clipPath>
  </defs>
  <ellipse cx="140.81" cy="43.16" rx="11.52" ry="11.95" fill="#fcc9b9"/>
  <path d="M7.03,68.21c1.52-4.52,5.93-15.57,15.26-18.64,5.4-1.78,11.27-.42,23.01,2.3,3.93.91,7.12,1.84,9.23,2.5,1.84-1.92,5.61-5.27,11.07-6.12,0,0,2.44-.38,5.17,0,10.36,1.43,26.06,17.27,27.29,18.52.99-3.22,3.8-10.75,11.1-16.43,9.59-7.46,20.36-6.61,24.85-5.87,7.13,1.17,12.36,4.52,15.38,6.89,3.16-1.24,8.65-2.85,15.38-2.04,2.26.27,10.51,1.38,17.47,8.13,2.24,2.17,7.96,7.73,6.64,12.2-.5,1.71-2.3,4.22-15.5,6.56-18.94,3.35-34.44,6.09-45.52-1.53-1.12-.77-5.1-3.96-11.07-4.77-1.13-.15-1.82-.15-3.72-.16-11.18-.09-13.46-.36-19.93,0-3.68.2-6.1.47-8.96,1.63-2.55,1.03-4.24,2.28-4.49,2.46-3.33,2.33-21.49,1.89-72.64-5.62Z" fill="#bad2e2"/>
  <path d="M168.62,61.81c-2.35-1.29-6.97-3.77-13.41-4.26-5.34-.4-9.51.74-10.89,1.15-1.89.57-3.43,1.24-4.56,1.79-7.3-4.49-13.97-6.86-18.75-8.17-3.84-1.05-9.94-2.67-18.03-2.43-6.96.21-12.35,1.71-13.88,2.15-3.17.93-4.66,1.71-15.09,5.45-1.59.57-3.17,1.14-4.76,1.7-2.58-1.57-9.08-5-17.71-4.42-6.91.46-11.85,3.28-13.45,4.25-3.03,1.86-4.96,3.81-6.39,5.27-2.64,2.7-6.63,7.5-9.69,14.99l63.2-9.88c3-9.09,10.48-15.28,18.12-15.4,10.4-.16,20.81,10.91,19.72,25.28h62.29c-2.21-4.16-7.3-12.29-16.73-17.47ZM53.34,69.4l-10.49-.06c.03-6.61,4.76-12.02,10.49-12.02s10.5,5.45,10.5,12.08h-10.5ZM153.4,72.13l-10.49-.07c.03-6.6,4.76-12.02,10.49-12.02s10.5,5.46,10.5,12.09h-10.5Z" fill="#fff" stroke="#010d2d" stroke-miterlimit="10" stroke-width=".98"/>
  <path d="M107.64,87.96c4.13-2.13,7.26-3.86,8.78-4.77.43-.26,1.26-.77,1.39-1.62,0,0,.1-.67-.41-1.45-1.48-2.25-8.56-2.64-15.5-4.85-3.33-1.06-3.89-1.67-3.85-2.04.05-.54,1.36-.82,1.89-.94,4.47-.97,8.81-2.54,13.29-3.49,3.12-.66,5.5-1.31,9.76-2.47,6.25-1.7,6.51-2.01,8.28-2.04,3.57-.07,6.2,1.1,10.74,3.15,3.67,1.66,6.57,3.41,8.61,4.77,1.22-.6,2.89-1.34,4.92-2.04,1.17-.41,5.07-1.7,9.27-2.13,2.74-.28,10.14-1.03,17.88,3.15,5.71,3.08,9.13,7.51,10.91,10.29-2.47,1.24-6.63,2.98-11.89,3.32-13.4.88-16.87-8.35-31.08-8.69-2.94-.07-13.27-.32-22.23,5.36-2.02,1.28-4.6,3.27-8.94,4.77-4.69,1.63-8.9,1.81-11.81,1.7Z" fill="#acc0d0"/>
  <path d="M86.32,81.83s1.39.11,3.53,0c2.78-.14,1.63-.43,5.25-1.11.23-.04.75-.14.82-.43.09-.4-.77-.91-.82-.94-.69-.4-1.27-.35-2.13-.43-.51-.05-.28-.06-2.21-.43-2.5-.47-5.12-.86-8.28-1.79-1.14-.33-2.44-.76-2.79-1.79-.03-.1-.21-.61,0-1.11.27-.62.99-.84,1.31-.94,2.09-.65,1.36-1.02,4.02-1.79,4.28-1.23,8.05-.81,8.12-1.36.04-.33-1.28-.67-2.95-1.28-4.34-1.57-4.52-2.58-8.69-4.26-2.7-1.08-4.44-1.78-6.89-1.79-1.98,0-3.43.48-6.23,1.45-5,1.72-8.21,2.84-10.09,3.49-1.02-.4-2.48-.94-4.26-1.53-7.09-2.34-12.82-4.24-19.36-4-11.1.4-18.1,6.71-21.32,9.62-1.68,1.51-2.94,2.96-2.87,4.69.17,4.09,7.68,6.77,9.92,7.57,17.17,6.12,30.97-2.77,48.31-2.22,5.88.19,11.77-.12,17.63.34Z" fill="#acc0d0"/>
  <path d="M15.7,82.26c7.87-10.11,21.06-10.97,29.03-11.49,19.5-1.27,35.3,6.5,43.55,11.49-4.19.27-10.26,1.29-16.24,5.11-2.87,1.83-3.2,2.7-5.17,4.09-7.62,5.39-16.7,2.34-33.46,0-5.1-.71-12.51-1.58-21.65-2.04.68-1.85,1.86-4.49,3.94-7.15Z" fill="#8ba5be"/>
  <path d="M116.09,88.13c12.32-9.37,23.66-13.54,31.49-15.57,5.06-1.31,9.17-2.34,14.27-1.93,16.44,1.34,27.04,16.35,30.26,21.33-3.47.45-8.64.8-14.76,0-10.71-1.41-17.25-5.43-22.14-7.4-7.78-3.14-19.99-4.6-39.12,3.57Z" fill="#8ba5be"/>
  <path d="M28.91,56.07c3.67-2.17,12.53-6.69,24.28-5.93,7.66.5,13.56,3.04,17.06,4.91,4.25-3.35,14.87-10.79,30.18-11.89,20.8-1.49,35.44,9.79,39.04,12.74,3.21-1.29,9.64-3.35,17.72-2.32,10.79,1.37,17.83,7.4,20.34,9.78" fill="none" stroke="#ff8156" stroke-dasharray=".76 3.05" stroke-linecap="round" stroke-miterlimit="10" stroke-width="1.52" clip-path="url(#line-reveal)"/>
</svg>