<?xml version="1.0" encoding="UTF-8"?>
<svg id="Layer_1" xmlns="http://www.w3.org/2000/svg" version="1.1" viewBox="0 0 200 130">
  <!-- Generator: Adobe Illustrator 30.4.0, SVG Export Plug-In . SVG Version: 2.1.4 Build 226)  -->
  <style>
    #kite-group {
      transform-box: fill-box;
      transform-origin: 70% 65%;
      animation: kite-sway 4.5s ease-in-out infinite alternate;
    }
    @keyframes kite-sway {
      from { transform: rotate(-3deg); }
      to   { transform: rotate(3deg); }
    }
  </style>
  <g>
    <path d="M159.44,57.05c-10.24.08-18.12,7.71-18.96,8.58-1.32,1.37-2.36,2.59-2.36,2.59-1.39,1.64-2.04,2.68-4.43,5.35-7.26,8.09-10.88,12.14-16.09,13.79-3.95,1.25-7.69,1.06-10.37,4.34-1.06,1.3-1.55,2.66-1.8,3.59,1.14,1.17,2.35,1.91,3.57,1.8,2.77-.26,3.71-4.66,6.13-4.54.99.05,1.05.95,2.86,1.87,1.77.89,3.5,1.31,5.63,1.83,2.93.71,10.47,2.07,22.85-1.56,2.25-.66,3.74-1.23,4.94-1.77,2.03-.92,3.75-1.81,4.51-2.27,4.51-2.74,4.74-6.84,7.89-9.79,5.93-5.55,15.85-1.11,19.84.67,3.98,1.78,6.95,4.13,8.84,5.85-1.76-5.11-5.36-12.99-12.81-19.9-5.07-4.71-11.28-10.47-20.25-10.4Z" fill="#bad2e2"/>
    <path d="M194.3,90.23c-2-4.54-4.5-6.12-5.62-6.68-1.81-.91-3.69-.84-7.47-.72-1.8.06-3.43.28-6.7.72-4.88.65-6.28,1.08-7.09,1.35-2,.68-3.59,1.51-4.66,2.15,1.28.27,3.24.88,5.36,2.39,2.01,1.44,3.38,3.13,4.21,4.32,3.76-.89,7.77-1.69,12-2.34,3.45-.53,6.78-.92,9.96-1.19Z" fill="#acc0d0"/>
    <path d="M170.81,93.42c-1.36-1.18-2.96-2.42-4.81-3.61-1.74-1.12-3.38-1.98-4.87-2.66,0,0-.02,0-.03-.01-.05-.13,1.51-1.25,1.98-1.59,3.59-2.58,10.4-3.18,10.4-3.18,3.36-.3,7.73-.44,12.89,0-1.31-.38-3.3-1-5.68-1.91-3.43-1.31-5.33-2.32-6.96-3.02-4.09-1.77-7.44-2.01-11.68-2.31-7.01-.5-18.53,1.4-31.91,7.64,6.11,1.4,12.62,3.19,19.47,5.5,5.12,1.73,9.95,3.58,14.49,5.5,2.23-.12,4.47-.23,6.7-.35Z" fill="#acc0d0"/>
    <path d="M132.13,82.76c-2.01-.19-4.16-.39-6.89,0-3.62.52-5.72,1.72-12.06,4.8-3.61,1.75-6.05,2.94-8.68,4.1-1.92.85-11.26,4.92-17.94,5.88-3.57.52-7.21.56-7.21.56-.52,0-.94,0-1.21,0,.71.3,1.78.77,3.06,1.35,3.6,1.63,5.18,2.52,6.64,3.18,2.93,1.31,5.24,1.63,8.49,2.07,2.93.4,10.47,1.16,22.85-.87,5.93-.97,10.45-2.17,15.45-3.5,7.15-1.9,9.25-2.84,15.13-4.29,5.79-1.43,11-2.31,15.45-2.86-9.28-3.39-17.15-6.11-23.23-8.19-1.98-.68-5.33-1.8-9.83-2.22Z" fill="#8ba5be"/>
    <path d="M98.38,104.49c-2.28-.34-5.64-.97-9.62-2.23-7.68-2.43-8.27-4.22-14.81-6.63-6.97-2.56-12.51-2.81-22.34-3.23-2.17-.09-4.81-.13-8.13.53-2.65.53-4.79,1.31-6.21,1.91,1.79.62,4.51,1.61,7.79,3.02,4.62,1.98,6.94,2.98,9.53,4.51,0,0,4.57,2.69,8,3.98.4.15.8.29.8.29.39.14.74.25,1.03.35,11.32-.83,22.64-1.66,33.96-2.49Z" fill="#8ba5be"/>
    <path d="M58.38,106.99c2.72.1,4.95.06,6.44,0-4.97-3.6-11.94-7.87-20.1-10.5-5.42-1.74-9.36-2.11-11.19-2.23-2.51-.16-5.14-.3-8.51.42-3.3.71-5.59,1.92-10.04,4.29-2.38,1.27-5.58,3.11-9.28,5.62,2.19-.35,5.67-.81,9.96-.95,3.8-.13,5.7.07,21.83,1.53,4.4.4,8.8.67,13.19,1.17,1.71.2,4.23.5,7.7.64Z" fill="#acc0d0"/>
  </g>
  <g id="kite-group">
    <g>
      <path d="M29.96,22.95c6.52,1.49,13.05,2.97,19.57,4.46-.6,3.04-1.09,6.87-1.02,11.29.07,5.08.86,9.4,1.7,12.69-6.75-3.28-13.5-6.57-20.26-9.85v-18.59Z" fill="#bad2e2" stroke="#010d2d" stroke-miterlimit="10" stroke-width="1.63"/>
      <path d="M29.96,22.95c3.56,3.44,7.62,7.9,11.57,13.48,3.84,5.42,6.64,10.56,8.68,14.96" fill="#bad2e2" stroke="#010d2d" stroke-miterlimit="10"/>
      <line x1="29.96" y1="41.54" x2="49.39" y2="28.21" fill="#bad2e2" stroke="#010d2d" stroke-miterlimit="10"/>
    </g>
    <path d="M50.22,51.39c3.75,5.75,7.39,9.89,10.04,12.62,6,6.19,11.07,9.4,11.82,15.66.17,1.39.4,3.33-.59,5.26-2.74,5.32-12.19,5.41-17.36,5.46-12.29.12-20.69-3.63-28.03-.24-3.01,1.39-3.25,2.78-3.29,3.13-.18,1.67,1.73,3.28,4.48,5,3.29,2.06,8.65,4.83,16.62,6.74" fill="none" stroke="#010d2d" stroke-miterlimit="10" stroke-width=".75"/>
  </g>
  <g>
    <path d="M88.85,48.45c1.66,1.87,4.06,4.18,7.32,6.3,4.17,2.71,8.12,4.06,10.89,4.77" fill="none" stroke="#ff8156" stroke-dasharray=".82 3.26" stroke-linecap="round" stroke-miterlimit="10" stroke-width="1.2"/>
    <path d="M110.63,62.69c2.79,3.59,5.17,4.4,6.81,4.47,1.48.07,1.81-.48,7.49-2.35,3.55-1.17,4.86-1.43,6.47-1.21.92.13,3.41.47,4.19,2.25.59,1.34-.09,2.79-.27,3.19-.64,1.36-1.74,2.06-3.92,3.4-2.24,1.38-2.74,1.29-3.91,2.36-.74.67-2.09,1.89-2.21,3.26-.24,2.71,4.41,5.15,5.62,5.79,5.07,2.66,13.37,4.77,37.45,1.02,3.91-.61,7.04-1.19,8.85-1.53" fill="none" stroke="#ff8156" stroke-dasharray=".82 3.26" stroke-linecap="round" stroke-miterlimit="10" stroke-width="1.2"/>
    <path d="M82.43,43.2c.01-.15.13-.27.22-.35-.02-.15-.07-.38-.14-.66-.12-.47-.2-.59-.14-.7.12-.22.74-.13,1.19,0,.46.14,1.28.48,2.07,1.49.23-.37.63-.89,1.28-1.3,1.68-1.06,3.57-.43,3.86-.33-.28.49-.8,1.24-1.66,1.92-.79.62-1.56.95-2.07,1.12.27.18.88.64,1.21,1.47.18.44.22.84.22,1.12-1.26-.75-2.29-1.27-3.02-1.62-.25-.12-.78-.43-1.85-1.06-.69-.41-1.22-.73-1.18-1.1Z" fill="#123f6f"/>
    <path d="M103.91,54.71c0-.18.11-.34.22-.45-.06-.18-.15-.44-.29-.75-.23-.53-.35-.66-.3-.8.11-.28.92-.29,1.51-.22.61.07,1.7.32,2.89,1.36.23-.48.65-1.17,1.4-1.77,1.95-1.56,4.45-1.17,4.85-1.11-.27.62-.8,1.6-1.77,2.57-.89.88-1.82,1.4-2.44,1.7.37.16,1.23.58,1.8,1.49.3.48.42.95.48,1.27-1.73-.65-3.13-1.06-4.12-1.33-.33-.09-1.07-.36-2.54-.9-.94-.35-1.67-.63-1.69-1.06Z" fill="#123f6f"/>
    <path d="M121.48,50.19c0-.18.11-.34.22-.45-.06-.18-.15-.44-.29-.75-.23-.53-.35-.66-.3-.8.11-.28.92-.29,1.51-.22.61.07,1.7.32,2.89,1.36.23-.48.65-1.17,1.4-1.77,1.95-1.56,4.45-1.17,4.85-1.11-.27.62-.8,1.6-1.77,2.57-.89.88-1.82,1.4-2.44,1.7.37.16,1.23.58,1.8,1.49.3.48.42.95.48,1.27-1.73-.65-3.13-1.06-4.12-1.33-.33-.09-1.07-.36-2.54-.9-.94-.35-1.67-.63-1.69-1.06Z" fill="#123f6f"/>
    <path d="M74.79,29.78c0-.18.11-.34.22-.45-.06-.18-.15-.44-.29-.75-.23-.53-.35-.66-.3-.8.11-.28.92-.29,1.51-.22.61.07,1.7.32,2.89,1.36.23-.48.65-1.17,1.4-1.77,1.95-1.56,4.45-1.17,4.85-1.11-.27.62-.8,1.6-1.77,2.57-.89.88-1.82,1.4-2.44,1.7.37.16,1.23.58,1.8,1.49.3.48.42.95.48,1.27-1.73-.65-3.13-1.06-4.12-1.33-.33-.09-1.07-.36-2.54-.9-.94-.35-1.67-.63-1.69-1.06Z" fill="#123f6f"/>
    <path d="M77.22,48.98c0-.07.04-.13.09-.18-.02-.07-.06-.17-.11-.29-.09-.21-.14-.26-.12-.31.04-.11.36-.12.59-.09.24.03.67.13,1.13.53.09-.19.25-.46.55-.69.76-.61,1.74-.46,1.9-.43-.11.24-.31.63-.69,1-.35.34-.71.55-.96.67.15.06.48.23.7.59.12.19.17.37.19.5-.68-.25-1.22-.42-1.61-.52-.13-.04-.42-.14-.99-.35-.37-.14-.65-.25-.66-.42Z" fill="#123f6f"/>
    <path d="M69.7,42.39c0-.07.06-.13.1-.17-.02-.07-.04-.18-.09-.3-.07-.21-.12-.27-.09-.32.05-.1.37-.08.6-.03.23.05.65.18,1.08.63.11-.18.29-.43.61-.64.81-.54,1.78-.3,1.93-.26-.13.23-.37.6-.78.94-.38.31-.76.48-1.01.58.14.07.46.27.65.65.1.2.13.38.14.51-.65-.31-1.18-.52-1.56-.66-.13-.05-.4-.18-.96-.44-.36-.17-.63-.3-.62-.47Z" fill="#123f6f"/>
  </g>
  <path d="M82.36,52.65c4.3.13,7.73,2.75,8.42,6.05.43,2.06-.11,4.82-1.94,6.33-2.8,2.32-6.41-.11-9.69,2.57-1.48,1.21-1.95,2.8-2.09,3.26-1.49,4.97,3.46,9.77,4.18,10.44.64.61,5.37,5.05,9.9,3.73,2.81-.83,6.6-2.63,6.81-5.35.28-3.64-5.76-7.49-10-8.18-13.79-2.24-27.94,25.79-29.11,28.17" fill="none" stroke="#ff8156" stroke-dasharray=".82 3.26" stroke-linecap="round" stroke-miterlimit="10" stroke-width=".75"/>
</svg>