<?xml version="1.0" encoding="UTF-8"?>
<svg xmlns="http://www.w3.org/2000/svg" version="1.1" viewBox="0 0 200 130">
  <defs>
    <style>
      @import url('https://fonts.googleapis.com/css2?family=Josefin+Sans:wght@300&amp;family=Nunito+Sans:wght@400&amp;display=swap');
    </style>
  </defs>
  <!-- Generator: Adobe Illustrator 30.4.0, SVG Export Plug-In . SVG Version: 2.1.4 Build 226)  -->
  <g id="Layer_1">
    <path d="M103.76,126.55c6.74-10.46,13.95-16.48,18.97-19.91,7.23-4.94,10.92-7.19,15.91-8.87,1.84-.62,10-3.25,14.23-6.7.9-.73,2.15-1.94,2.18-3.52,0-.36-.05-1.27-1.17-2.68-1.51-1.89-3.3-2.6-8.71-5.36-1.71-.87-2.77-1.43-2.85-2.34-.08-.94.94-1.76,1.67-2.34,1.49-1.19,3.17-1.67,4.52-1.84" fill="none" stroke="#ff8156" stroke-dasharray=".76 1.97" stroke-linecap="round" stroke-linejoin="round" stroke-width=".75"/>
    <path d="M49.86,129.23c15.24-18.1,29.41-24.32,40.05-26.44,0,0,24.92-4.87,46.15-15.03.45-.22,1.02-.58,1.4-1.21.61-1.01.61-2.48,0-3.52-.5-.85-1.12-.93-3.85-2.18-3.37-1.55-3.94-2.14-4.19-2.85-.36-1.04.1-2.04.17-2.18.54-1.13,1.71-1.6,2.34-1.84,3.39-1.27,7.45-1.81,9.88-2.18,3.57-.55,5.19-.98,6.86-1.67.96-.4,4.19-1.74,4.02-2.85-.09-.62-1.29-.92-3.68-1.51-3.06-.75-4.51-.72-6.86-1.67-1.21-.49-2.37-.96-2.34-1.51.03-.47.94-.84,5.53-1.84,5.73-1.25,6.44-1.42,7.38-1.67,1.9-.52,4.41-1.4,7.41-2.99" fill="none" stroke="#010d2d" stroke-miterlimit="10"/>
    <path d="M57.14,31.98c.67,1.19,1.79,2.74,3.59,4.05,2.26,1.65,4.42,2.06,6.31,2.42,2.84.54,4.15.13,4.53,0,.71-.24,2.44-.83,2.75-2.25.25-1.12-.42-2.59-1.29-2.71-.79-.11-1.7.89-1.94,1.87-.48,1.94,1.62,4.12,3.29,5.21,2.23,1.46,4.14,1.28,6.19,1.62,2.6.43,6.15,1.82,10.1,6.15" fill="none" stroke="#ff8156" stroke-dasharray=".74 1.9" stroke-linecap="round" stroke-linejoin="round" stroke-width=".48"/>
  </g>
  <g id="Layer_2">
    <path d="M130.26,52.55c1.43,4.66.14,8.74-.44,10.31-1.71.16-4.31.61-7.15,2.01-3.76,1.84-6.07,4.41-7.23,5.91-1.15-3.27-2.8-4.4-3.81-4.86-.98-.44-1.75-.42-4.18-.6-2.38-.18-4.31-.4-5.6-.57-.64-1.27-2.99-6.33-1.17-12.15,1.91-6.1,7.9-11.41,15.3-11.16,7.03.23,12.5,5.35,14.27,11.12Z" fill="#fcc9b9"/>
    <path d="M64.83,52.12c3.53-1.29,7.99-1.84,8.67-1.92,2.53-.3,10.16-.97,19.59,1.92,4.31,1.32,3.46,1.69,9.38,3.81,7.02,2.51,12.73,3.6,16.41,4.28,9.54,1.78,12.07,1.11,19.59,3.41,2.96.9,5.32,1.85,6.86,2.51-1.41.52-3.54,1.2-6.19,1.61-3.42.52-4.74.14-8.87.23-6.75.15-6.51,1.26-11.22,1-4.47-.24-4.99-1.25-9.21-1.24-3.65,0-5.77.77-8.04,1.24-4.66.96-20.37-3.24-27.12-3.56-16.81-.81-27.12,22.51-30.44,20.33-3.35-2.2,4.43-27.71,20.6-33.62Z" fill="#b6cad8"/>
    <path d="M130.17,74.13c-1.45.04-2.9.07-4.34.11-.21-.35-1.06-1.64-2.76-2.18-1.37-.43-2.54-.14-2.97,0-.43-.99-1.43-2.89-3.47-4.44-2.21-1.66-4.43-2-5.65-2.18-3.57-.5-6.72.53-7.41.75-.46.15-1.17.41-2.3.71-.82.22-2.43.65-3.56.71-1.45.08-2.61-.4-5.53-2.09-4.24-2.47-4.17-2.84-6.15-3.85-3.53-1.8-6.8-2.16-8.16-2.26-3.84-.27-6.75.61-8.54,1.17-6.61,2.08-11.06,6.24-13.41,8.85-5.67,8.2-6.47,10.64-5.9,11.14,1.44,1.28,10.85-10.7,23.37-11.16,1.64-.06,4.96.01,8,.19,4.6.28,8.29.78,10.88,1.17,8.29,1.24,12.43,1.86,17.58,3.71,5.64,2.03,7.8,3.72,15.24,5.86,6.13,1.76,9.38,1.97,9.42,1.8.04-.15-2.38-.49-4.31-2.51-.57-.6-1.28-1.32-1.38-2.43-.15-1.64,1.13-2.86,1.37-3.08Z" fill="#acc0d0"/>
    <path d="M136.71,83.16c.06.87-6.19,2.36-12.93,3.01-6.45.62-7.54-.09-12.42.78-3.09.55-4.98,1.25-9.81,3.03-2.12.78-14.53,5.34-18.46,6.74-4.23,1.5-10.42,3.52-18.26,5.4-3-2.41-7.89-5.61-14.44-6.71-5.86-.99-9.92.23-11.1-1.76-.82-1.37-.35-4.43,6.95-12.19,1.85-2.75,5.11-6.66,10.42-9.28.18-.09.95-.46,2.01-.88,2.25-.88,7.68-2.67,27.22-1.5,2.06.12,5.85.37,10.81,1.23.79.14,1.4.25,1.75.32,5.58,1.06,10,2.49,18.84,5.36,5.38,1.74,12.05,4.07,14.57,4.65,1.06.24,1.58.43,2.64.8,1.47.52,2.2.77,2.22,1Z" fill="#95b0c6"/>
    <path d="M104.14,98.54c-.08-.34-.25-.78-.63-1-.91-.54-1.94.76-3.78,1.19-1.76.41-3.41-.3-6.78-1.57-4.33-1.63-4.69-2.89-7.47-3.58-1.7-.42-4.31-.63-7.91.69-.67-.38-1.66-.88-2.89-1.32-7.85-2.82-15.54,1.53-25.17,6.47-19.59,10.05-23.95,10.82-23.61,12.56.41,2.11,7.44,3.88,39.11,1.57,4.94-3.56,9.4-5.81,12.67-7.22,1.58-.68,4.17-1.79,7.7-2.8,1.94-.56,2.15-.51,8.14-2.03,2.89-.74,4.24-1.1,5.02-1.32,2.31-.64,4.23-1.21,5.59-1.63Z" fill="#8ba5be"/>
    <g>
      <circle cx="117.95" cy="78.2" r="1.76" fill="none" stroke="#ff8156" stroke-miterlimit="10" stroke-width=".98"/>
      <line x1="117.95" y1="79.96" x2="117.95" y2="85.74" fill="none" stroke="#101552" stroke-miterlimit="10" stroke-width=".49"/>
    </g>
    <g>
      <circle cx="101.75" cy="63.97" r="1.49" fill="none" stroke="#ff8156" stroke-miterlimit="10" stroke-width=".83"/>
      <line x1="101.75" y1="65.45" x2="101.75" y2="70.34" fill="none" stroke="#101552" stroke-miterlimit="10" stroke-width=".42"/>
    </g>
    <g>
      <circle cx="133.54" cy="59.69" r=".88" fill="none" stroke="#ff8156" stroke-miterlimit="10" stroke-width=".49"/>
      <line x1="133.54" y1="60.57" x2="133.54" y2="63.45" fill="none" stroke="#101552" stroke-miterlimit="10" stroke-width=".25"/>
    </g>
    <path d="M42.97,20.4c.55-.1,1.22-.11,1.67.28.52.45.42,1.16.87,1.3.38.12.64-.33,1.26-.51.46-.13,1.09-.1,1.94.38" fill="none" stroke="#101552" stroke-linecap="round" stroke-linejoin="round" stroke-width=".71"/>
    <path d="M39.35,27.77c.39-.07.85-.07,1.17.2.37.32.3.81.61.91.27.08.45-.23.88-.36.32-.09.76-.07,1.36.27" fill="none" stroke="#101552" stroke-linecap="round" stroke-linejoin="round" stroke-width=".71"/>
    <path d="M54.4,29.05c.48-.04,1.05,0,1.41.35.42.42.28,1.02.66,1.17.32.13.57-.24,1.11-.35.4-.08.94-.01,1.63.46" fill="none" stroke="#101552" stroke-linecap="round" stroke-linejoin="round" stroke-width=".71"/>
    <path d="M53.22,32.94c.32-.03.7,0,.93.24.28.28.19.68.44.78.21.08.38-.16.74-.23.27-.05.62,0,1.08.3" fill="none" stroke="#101552" stroke-linecap="round" stroke-linejoin="round" stroke-width=".47"/>
    <path d="M55.2,37.35c.32-.03.7,0,.93.24.28.28.19.68.44.78.21.08.38-.16.74-.23.27-.05.62,0,1.08.3" fill="none" stroke="#101552" stroke-linecap="round" stroke-linejoin="round" stroke-width=".47"/>
    <text transform="translate(92 16.4)" text-anchor="middle" fill="#6387a5"><tspan x="0" y="0" font-size="14.1" font-family="'Josefin Sans', sans-serif" font-weight="300">Community</tspan><tspan x="0" y="8.46" font-size="7.05" font-family="'Nunito Sans', sans-serif">Forum &amp; Events</tspan></text>
  </g>
</svg>