<?xml version="1.0" encoding="UTF-8"?>
<svg xmlns="http://www.w3.org/2000/svg" version="1.1" viewBox="0 0 200 130">
  <!-- Generator: Adobe Illustrator 30.4.0, SVG Export Plug-In . SVG Version: 2.1.4 Build 226)  -->
  <g id="Layer_1">
    <path d="M50.63,128.14c3.87-5.44,7.83-9,10.72-11.23,2.84-2.19,8.21-6.33,16.17-9.02,1.87-.63,10.17-3.31,14.47-6.81.91-.74,2.19-1.97,2.21-3.57,0-.37-.05-1.29-1.19-2.72-1.54-1.92-3.36-2.65-8.85-5.45-1.74-.89-2.82-1.46-2.89-2.38-.08-.96.95-1.78,1.7-2.38,1.52-1.21,3.22-1.7,4.6-1.87" fill="none" stroke="#ff8156" stroke-dasharray=".78 2" stroke-linecap="round" stroke-linejoin="round"/>
    <path d="M135.9,129.67c-2.07-5.7-5.05-9.38-6.98-11.4-5.13-5.39-11.43-8.12-14.3-9.36-3.34-1.44-7.12-2.65-9.36-6.13-1.4-2.17-1.26-3.76-1.19-4.26.29-2.16,1.9-3.48,2.21-3.74,1.01-.83,1.43-.65,3.91-1.7,3.69-1.56,4.34-2.33,4.6-2.72.15-.23,1.07-1.62.68-3.06-.27-1-1.02-1.45-3.23-2.89-4.25-2.77-4.91-3.3-5.28-4.26-.12-.32-.73-1.98,0-3.57.62-1.36,1.89-1.94,4.09-2.89,1.81-.79,3.02-1.07,5.28-1.7,1.34-.38,3.27-.94,5.62-1.7" fill="none" stroke="#ff8156" stroke-dasharray=".75 3" stroke-linecap="round" stroke-linejoin="round" stroke-width="1.5"/>
    <path d="M100.12,64.59c.2.13,1.36.91,1.4,2.11.04,1.02-.76,1.77-1.4,2.38-.85.81-1.25.74-2.6,1.74-1.17.87-1.76,1.31-1.79,1.85-.07,1.25,2.33,2.43,3.21,2.87.85.42,1.52.62,2.57,1.36,1.18.83,1.29,1.27,1.3,1.51.02.6-.58,1.08-1.18,1.5-1.82,1.27-3.31,1.76-5.34,2.62-1.88.8-2.83,1.33-3.72,1.98-1.27.92-1.81,1.62-2.11,2.43-.1.28-.34,1.02-.22,1.88.19,1.4,1.21,2.44,2.71,3.54,2.43,1.78,4.63,2.64,8.74,4.24,4.28,1.67,4.17,1.63,4.24,1.66,7.58,2.75,19.72,6.75,24.41,8.39,16.82,5.9,28.03,13.22,30.29,14.71,4.55,3.01,8.1,5.82,10.5,7.82" fill="none" stroke="#010d2d" stroke-miterlimit="10" stroke-width="1.58"/>
    <path d="M110.03,77.25c-.1-.43,3.66-1.64,5.96-2.38,5.85-1.89,11.76-3.16,22.3-4.6,9.12-1.24,8.35-.78,11.91-1.53,8.04-1.69,13.34-4.32,16-5.45,6.26-2.66,16.09-4.78,31.55-2.04v14.47c-5.25-.61-12.7-1.39-21.68-2.04-12.57-.91-19.84-1.44-28.43-1.19-21.38.62-37.41,5.65-37.62,4.77Z" fill="#b6cad8"/>
    <path d="M110.03,77.53c-.02.31-.01.85.32,1.31.31.43.76.58,1.21.73.5.17,1.9.76,2.52.89,1.79.39,4.97,1.19,6.93,1.79,0,0,2.23.68,5.81,2.74.4.23,1.15.68,1.56,1.56.42.9.27,1.77.22,2.04-.07.37-.34,1.55-2.94,3.51-.6.45-2.58,1.89-5.49,3.01,0,0-.08.03-3.1,1.11-.01,0-.53.25-.54.48-.01.2.36.38.51.45,1.15.53,2.32.66,3.38.89.55.12.72.2,1.24.34,2.25.61,4.78,1.29,7.15,1.2,4.46-.18,7.96-3.1,9.64-4.5.68-.57.72-.68,1.18-1.06,4.11-3.49,10.45-3.21,15.32-2.77,13.13,1.18,11.93,3.21,16.6,2.43,6.43-1.07,7.54-4.72,17.02-7.74,3.79-1.21,7.05-1.72,9.17-1.96v-8.26c-10.55-1.79-27.78-4.02-47.47-3.29-14.3.53-26.38,2.5-30.32,3.17-4.03.69-7.42,1.38-9.94,1.93Z" fill="#acc0d0"/>
    <path d="M197.75,82.7c-3.46-.34-10.18-.5-17.59,2.72-4.49,1.95-7.75,4.5-9.87,6.47-1.7-.88-4.19-1.97-7.32-2.72-3.21-.77-10.62-2.59-17.19.68-1.15.57-3.6,1.96-6.13,4.17-1.67,1.45-1.91,1.99-3.06,2.88-1.54,1.18-4.03,2.47-8.11,2.7,5.62,1.02,10.14,2.16,13.21,3.02,9.56,2.66,18.46,6.21,24.17,8.51,6.14,2.48,6.12,2.66,7.49,2.89,9.26,1.58,18.15-5.44,24.4-11.91v-19.4Z" fill="#8ba5be"/>
    <path d="M197.75,91.43c-1.73-.24-5.67-.56-10.04,1.36-4.6,2.01-6.99,5.32-7.47,6-1.5,2.15-2.21,4.21-2.55,5.55-.62-.09-1.59-.16-2.74,0-2.84.4-4.85,1.97-6,2.87-.96.75-1.89,1.65-2.43,2.17-1.65,1.6-1.52,1.74-2.11,2.04-1.49.77-3.31.38-5.04,0-1.4-.3-1.93-.63-2.94-.45-.98.18-1.71.72-2.17,1.15,2.25.77,4.53,1.6,6.83,2.49,11.43,4.43,21.52,9.65,30.32,15.06h6.34c-.13-8.87-.27-17.74-.4-26.62-.14-3.08-.2-4.18-.23-4.18-.03,0-.03,1.09,0,1.1.08,0,.32-3.52.63-8.55Z" fill="#95b0c6"/>
    <path d="M192.37,98.97c-1,.21-3.68.8-6.19,3-3.11,2.73-3.97,6.18-4.21,7.4-.81-.46-2.14-1.07-3.83-1.15-.68-.03-2.65-.04-6.51,2.32-1.77,1.08-4.23,2.84-6.73,5.58,8.84,4.51,17.68,9.03,26.52,13.54h6.34v-30.78c-1.19-.21-3.11-.39-5.38.08Z" fill="#8ba5be"/>
    <path d="M2.49,124.23c10.37-6.43,19.35-9.56,25.5-11.23,0,0,34.67-9.42,46.91-15.28.46-.22,1.04-.59,1.43-1.23.62-1.03.62-2.52,0-3.57-.51-.87-1.14-.94-3.91-2.21-3.43-1.57-4.01-2.17-4.26-2.89-.36-1.06.1-2.07.17-2.21.55-1.15,1.73-1.63,2.38-1.87,3.44-1.29,7.58-1.84,10.04-2.21,3.63-.56,5.27-.99,6.98-1.7.98-.41,4.26-1.77,4.09-2.89-.1-.63-1.31-.94-3.74-1.53-3.11-.76-4.58-.73-6.98-1.7-1.23-.5-2.41-.97-2.38-1.53.03-.48.95-.86,5.62-1.87,5.83-1.27,6.54-1.44,7.5-1.7,1.82-.49,4.45-1.37,7.54-3.04" fill="none" stroke="#010d2d" stroke-miterlimit="10" stroke-width="1.58"/>
    <path d="M50.93,36.04c.71,1.25,1.89,2.88,3.77,4.26,2.38,1.74,4.65,2.17,6.64,2.54,2.99.56,4.37.14,4.77,0,.75-.25,2.56-.87,2.89-2.37.26-1.18-.44-2.72-1.36-2.85-.83-.11-1.79.94-2.04,1.96-.5,2.04,1.71,4.33,3.46,5.48,2.34,1.53,4.35,1.34,6.51,1.7,2.73.45,6.47,1.92,10.63,6.47" fill="none" stroke="#ff8156" stroke-dasharray=".78 2" stroke-linecap="round" stroke-linejoin="round" stroke-width=".5"/>
  </g>
  <g id="Layer_2">
    <path d="M191.42,129.67c-17.81-9.88-24.72-13.09-27.38-13.9-2.42-.74-4.77-1.74-7.21-2.38-1.68-.44-2.93-.69-2.93-1.09,0-.54,2.33-1.11,4.3-1.19,1.34-.06,1.88.14,4.06.11,1.63-.02,2.44-.03,2.5-.23.19-.67-6.22-3.36-13.35-5.59-6.95-2.17-14.94-4.68-25.75-6.09-3.52-.46-8.51-.96-8.59-2.17-.02-.29.25-.61,2.92-2.03,4.48-2.4,5.52-2.47,6.76-3.88.26-.3,2.29-2.59,1.65-4.68-.11-.38-.58-1.64-4.58-3.15-4.38-1.66-7.31-1.46-11.48-3.55-.93-.46-2.31-1.24-2.24-2.09.05-.55.68-.95,1.24-1.29,1.1-.68,2.13-.87,2.76-.99,2.89-.54,4.25-.84,5.38-1.15,1.07-.29,1.92-.58,2.8-1.24.5-.38,1.47-1.12,1.35-1.82-.1-.58-.91-.91-2.62-1.4-2.74-.79-4.91-1.16-5.17-1.2-2.15-.37-3.68-.75-5.81-1.28-.65-.16-3.08-.78-6.25-1.79-1.2-.38-2.23-.73-3-1" fill="none" stroke="#010d2d" stroke-miterlimit="10"/>
    <path d="M2.49,61.48c1.98-.65,5.02-1.5,8.82-1.95,2.36-.28,10.2-1.02,19.91,1.95,4.39,1.34,3.52,1.72,9.53,3.87,7.14,2.55,12.94,3.66,16.68,4.35,9.7,1.81,12.27,1.13,19.91,3.46,3.01.92,5.41,1.88,6.98,2.55-1.43.53-3.6,1.22-6.3,1.64-3.48.53-4.82.14-9.02.24-6.87.16-6.62,1.28-11.4,1.02-4.55-.24-5.07-1.27-9.36-1.26-3.71,0-5.86.78-8.17,1.26-9.27,1.91-13.15-2.64-27.57-3.62-2.21-.15-5.68-.29-10.01,0v-13.51Z" fill="#b6cad8"/>
    <path d="M68.92,83.86c-1.47.04-2.94.07-4.42.11-.22-.35-1.08-1.67-2.81-2.21-1.39-.44-2.58-.14-3.02,0-.44-1.01-1.45-2.94-3.53-4.51-2.24-1.69-4.5-2.04-5.74-2.21-3.63-.51-6.84.54-7.53.77-.47.15-1.19.42-2.34.72-.84.22-2.47.66-3.62.72-1.47.08-2.66-.41-5.62-2.13-4.31-2.51-4.24-2.89-6.26-3.91-3.59-1.83-6.91-2.2-8.3-2.3-4.35-.31-7.64.81-8.68,1.19-2.12.78-3.73,1.78-4.81,2.55.08,2.45.16,4.91.25,7.36,2.07-.35,5.07-.76,8.69-.94,7.29-.37,12.73.42,19.19,1.38,8.43,1.26,12.64,1.89,17.87,3.77,5.74,2.06,7.92,3.78,15.49,5.96,6.23,1.79,9.53,2,9.57,1.83.04-.15-2.42-.5-4.38-2.55-.58-.61-1.3-1.35-1.4-2.47-.15-1.67,1.15-2.91,1.39-3.13Z" fill="#acc0d0"/>
    <path d="M75.56,93.04c.06.88-6.3,2.4-13.15,3.06-6.56.63-7.67-.09-12.62.79-3.14.56-5.07,1.28-9.97,3.08-2.15.79-14.77,5.43-18.77,6.85-4.3,1.53-10.6,3.57-18.56,5.49v-31.15c0-.48,0-.96,0-1.45,8.62-.82,15.92-.65,21.4-.26,3.02.22,7.26.53,12.77,1.58,5.68,1.08,10.17,2.53,19.15,5.45,5.47,1.77,12.25,4.14,14.81,4.72,1.08.24,1.61.43,2.68.81,1.49.52,2.24.79,2.26,1.02Z" fill="#95b0c6"/>
    <path d="M42.45,108.04s-1.87.76-4.48.82c-.92.02-2.9-.09-6.89-1.6-4.4-1.66-4.76-2.94-7.6-3.64-1.72-.43-4.38-.64-8.04.7-.82-.49-1.8-.97-2.94-1.34-4.07-1.34-7.74-.55-9.57,0-.09,4.71-.23,9.5-.43,14.36-.09,2.13-.19,4.25-.3,6.35,5.4-3.4,10.03-5.65,13.36-7.11,2.72-1.18,5.88-2.19,7.83-2.85,1.05-.36,4.03-1.37,8.18-2.61,5.49-1.64,10.89-3.05,10.88-3.1Z" fill="#8ba5be"/>
    <path d="M2.49,55.74c2.79-.37,7.01-.67,12.05,0,5.34.71,6.3,1.82,10.47,1.84,5.22.03,5.64-1.69,12.77-2.7,2.57-.36,7.24-.99,12.85,0,1.07.19,1.77.36,10.89,3.5,8.09,2.78,8.77,3.07,10.89,3.68,4.07,1.17,8.78,2.04,11.91,2.53.93.14,1.99.29,3.94.62,3.33.56,3.8.7,4.91.81,1.42.14,3.47.19,6.04-.3" fill="none" stroke="#010d2d" stroke-miterlimit="10" stroke-width=".4"/>
    <path d="M105.87,57.76c.26,1.21,0,2.28-.24,2.92-.84.32-1.88.8-2.97,1.56-1.6,1.12-2.66,2.37-3.3,3.28-.42-.93-.91-1.63-1.29-2.1-.48-.59-.88-1.08-1.57-1.47-.89-.49-1.79-.55-2.39-.51-.28-.63-.8-2.04-.41-3.67.63-2.69,3.41-4.68,6.3-4.59,2.73.09,5.33,2.03,5.87,4.58Z" fill="#fcc9b9"/>
    <path d="M141.18,59.01c-2.88-2-7.29-4.26-12.7-4.32-3.74-.04-7.03.99-8.51,1.44-3.6,1.1-4.53,2.02-8.41,3.39-3.76,1.33-5.03.64-7.53,1.95-2.33,1.22-3.87,2.94-4.81,4.24" fill="#fff" stroke="#010d2d" stroke-miterlimit="10" stroke-width=".4"/>
    <path d="M197.75,61.25c-9.29-1.29-16.73-2.67-21.74-3.67-11.94-2.39-14.07-3.43-19.25-2.7-6.89.97-7.74,3.45-16.34,4.21-3.26.29-5.62.15-10.98.89-4.24.59-7.28,1.3-8.17,1.51-4.1.98-5.62,2.3-10.21,3.2-1.63.32-2.98.47-4.02.6-3.26.38-6.01.46-8.04.45" fill="none" stroke="#010d2d" stroke-miterlimit="10" stroke-width=".4"/>
    <path d="M56.64,56.71c2.13-.95,5.32-2.07,9.31-2.36,2.03-.15,6.7-.49,11.74,1.62,3.1,1.3,4.36,2.68,9.02,4.28,2.12.73,3.18,1.09,4.43,1.24,3.06.36,4.43-.2,5.96.79.7.45,1.61,1.37,2.13,3.45" fill="none" stroke="#010d2d" stroke-miterlimit="10" stroke-width=".4"/>
    <g>
      <circle cx="56.49" cy="88" r="1.79" fill="none" stroke="#ff8156" stroke-miterlimit="10"/>
      <line x1="56.49" y1="89.79" x2="56.49" y2="95.66" fill="none" stroke="#101552" stroke-miterlimit="10" stroke-width=".5"/>
    </g>
    <g>
      <ellipse cx="133.7" cy="85.06" rx="2.18" ry="2.36" fill="none" stroke="#ff8156" stroke-miterlimit="10" stroke-width="1.27"/>
      <line x1="133.7" y1="87.42" x2="133.7" y2="95.19" fill="none" stroke="#101552" stroke-miterlimit="10" stroke-width=".64"/>
    </g>
    <g>
      <circle cx="40.02" cy="73.53" r="1.51" fill="none" stroke="#ff8156" stroke-miterlimit="10" stroke-width=".85"/>
      <line x1="40.02" y1="75.04" x2="40.02" y2="80.01" fill="none" stroke="#101552" stroke-miterlimit="10" stroke-width=".42"/>
    </g>
    <g>
      <circle cx="175.34" cy="59.28" r="1.51" fill="none" stroke="#ff8156" stroke-miterlimit="10" stroke-width=".85"/>
      <line x1="175.34" y1="60.79" x2="175.34" y2="65.76" fill="none" stroke="#101552" stroke-miterlimit="10" stroke-width=".42"/>
    </g>
    <g>
      <circle cx="62.23" cy="64.4" r=".89" fill="none" stroke="#ff8156" stroke-miterlimit="10" stroke-width=".5"/>
      <line x1="62.23" y1="65.3" x2="62.23" y2="68.23" fill="none" stroke="#101552" stroke-miterlimit="10" stroke-width=".25"/>
    </g>
    <g>
      <circle cx="128.62" cy="57.94" r=".89" fill="none" stroke="#ff8156" stroke-miterlimit="10" stroke-width=".5"/>
      <line x1="128.62" y1="58.83" x2="128.62" y2="61.77" fill="none" stroke="#101552" stroke-miterlimit="10" stroke-width=".25"/>
    </g>
    <path d="M36.02,23.87c.58-.1,1.28-.11,1.76.3.55.48.45,1.22.92,1.37.4.12.67-.35,1.32-.54.49-.14,1.15-.1,2.04.4" fill="none" stroke="#101552" stroke-linecap="round" stroke-linejoin="round" stroke-width=".75"/>
    <path d="M32.21,31.62c.41-.07.9-.08,1.23.21.39.33.31.86.64.96.28.09.47-.25.93-.38.34-.1.8-.07,1.43.28" fill="none" stroke="#101552" stroke-linecap="round" stroke-linejoin="round" stroke-width=".75"/>
    <path d="M48.04,32.97c.5-.05,1.1,0,1.48.37.44.44.3,1.07.69,1.23.33.13.6-.25,1.17-.37.43-.09.99-.01,1.72.48" fill="none" stroke="#101552" stroke-linecap="round" stroke-linejoin="round" stroke-width=".75"/>
    <path d="M46.8,37.06c.33-.03.73,0,.98.25.29.29.2.71.46.82.22.09.4-.17.77-.25.28-.06.66,0,1.14.32" fill="none" stroke="#101552" stroke-linecap="round" stroke-linejoin="round" stroke-width=".5"/>
    <path d="M48.89,41.7c.33-.03.73,0,.98.25.29.29.2.71.46.82.22.09.4-.17.77-.25.28-.06.66,0,1.14.32" fill="none" stroke="#101552" stroke-linecap="round" stroke-linejoin="round" stroke-width=".5"/>
  </g>
</svg>