<?xml version="1.0" encoding="UTF-8"?>
<svg xmlns="http://www.w3.org/2000/svg" version="1.1" viewBox="0 0 200 130">
  <defs>
    <style>
      @import url('https://fonts.googleapis.com/css2?family=Josefin+Sans:wght@300&amp;family=Nunito+Sans:wght@400&amp;display=swap');
    </style>
  </defs>
  <!-- Generator: Adobe Illustrator 30.4.0, SVG Export Plug-In . SVG Version: 2.1.4 Build 226)  -->
  <g id="Layer_1">
    <path d="M56.76,113.42c4.77-7.41,9.88-11.67,13.43-14.1,5.12-3.5,7.73-5.09,11.26-6.28,1.3-.44,7.08-2.3,10.08-4.74.63-.52,1.52-1.37,1.54-2.49,0-.26-.03-.9-.83-1.9-1.07-1.34-2.34-1.84-6.16-3.79-1.21-.62-1.96-1.01-2.02-1.66-.05-.67.66-1.24,1.19-1.66,1.06-.85,2.24-1.18,3.2-1.3" fill="none" stroke="#ff8156" stroke-dasharray=".54 1.39" stroke-linecap="round" stroke-linejoin="round" stroke-width=".7"/>
    <path d="M120.58,104.99c-.63-1.23-1.68-2.96-3.32-4.72-3.19-3.39-7.06-5.26-9.96-6.52-2.32-1.01-4.96-1.85-6.52-4.27-.97-1.51-.88-2.62-.83-2.96.2-1.5,1.32-2.43,1.54-2.61.7-.58,1-.45,2.73-1.19,2.57-1.09,3.02-1.62,3.2-1.9.11-.16.75-1.13.47-2.13-.19-.7-.71-1.01-2.25-2.02-2.96-1.93-3.42-2.3-3.67-2.96-.09-.22-.51-1.38,0-2.49.43-.95,1.31-1.35,2.85-2.02,1.26-.55,2.11-.74,3.67-1.19.93-.26,2.28-.66,3.91-1.19" fill="none" stroke="#ff8156" stroke-dasharray=".52 2.09" stroke-linecap="round" stroke-linejoin="round" stroke-width="1.04"/>
    <path d="M97.19,62.89c.14.09.94.63.97,1.47.03.71-.53,1.24-.97,1.66-.59.56-.87.52-1.81,1.22-.82.61-1.22.91-1.24,1.29-.05.87,1.62,1.69,2.24,2,.59.29,1.06.43,1.79.95.82.58.9.88.9,1.05.01.42-.41.75-.82,1.04-1.27.89-2.31,1.22-3.72,1.82-1.31.56-1.97.93-2.59,1.38-.88.64-1.26,1.13-1.47,1.69-.07.19-.23.71-.16,1.31.13.97.84,1.7,1.89,2.47,1.69,1.24,3.22,1.84,6.09,2.96,2.98,1.16,2.91,1.14,2.96,1.16,5.28,1.91,13.73,4.7,17,5.85,11.72,4.11,19.52,9.21,21.09,10.25,2.69,1.78,5.04,3.44,7.31,5.45,2.39,2.11,4.21,4.07,5.46,5.54" fill="none" stroke="#010d2d" stroke-miterlimit="10" stroke-width="1.1"/>
    <path d="M104.09,71.71c-.01-.38,1.39-.77,4.15-1.66,4.08-1.32,8.19-2.2,15.53-3.2,6.35-.86,5.82-.54,8.3-1.07,1.5-.32,2.83-.67,4.03-1.04,2.51-.78,3.76-1.18,7.12-2.75,4.18-1.96,19.42-5.9,31.41.77,6.4,3.56,10.79,9.54,9.91,10.87-.58.88-3.39-.44-10.27-1.73-3.84-.72-7.02-1.07-9.08-1.26-7.63-.68-11.59-1.42-15.1-1.42-8.15,0-9.35,2.66-18.5,4.41-13.92,2.67-27.45-.36-27.49-1.92Z" fill="#b6cad8"/>
    <path d="M104.09,71.9c-.02.22,0,.59.22.91.22.3.53.4.84.51.35.12,1.33.53,1.76.62,1.25.28,3.46.83,4.82,1.24,0,0,1.55.47,4.05,1.91.28.16.8.47,1.09,1.09.29.63.19,1.23.16,1.42-.05.26-.24,1.08-2.04,2.45-.42.32-1.8,1.32-3.82,2.1,0,0-.05.02-2.16.77,0,0-.37.17-.38.33,0,.14.25.26.36.31.8.37,1.61.46,2.36.62.39.09.5.14.87.23,1.57.42,3.33.9,4.98.83,3.11-.12,5.55-2.16,6.71-3.13.47-.39.5-.47.82-.74,2.86-2.43,7.28-2.24,10.67-1.93,9.14.82,8.31,2.23,11.56,1.69,4.48-.75,5.25-3.29,11.85-5.39.33-.11.61-.19.89-.26,0,0,2.68-.75,5.5-1.1,4.86-.6,20.39,1.61,21.05-.19.69-1.88-11.34-12.01-26.7-12.57-12.12-.44-21.39,5.25-25.58,8.26-7.48-2.69-12.7-2.69-15.64-2.4-1.61.16-4.75.63-7.3,1.06-2.81.48-5.17.96-6.92,1.34Z" fill="#acc0d0"/>
    <path d="M187.28,86.42c.67-2.43-18.94-15.43-34.34-9.02-3.27,1.36-5.57,3.27-6.88,4.5-1.19-.61-2.92-1.37-5.1-1.9-2.92-.7-8.2-2-11.97.47-1.06.69-1.96,1.66-4.27,2.9-.89.48-1.32.64-2.61,1.25-1.23.58-3.01,1.45-5.17,2.64,3.92.71,7.06,1.51,9.2,2.1,6.66,1.86,12.85,4.32,16.83,5.93,4.28,1.73,4.26,1.85,5.22,2.02,6.45,1.1,12.64-3.79,17-8.3,5.45-3.8,9.06-3.99,11.42-3.33,1.91.53,4.34,2,7.93,1.58,1.41-.16,2.59-.3,2.74-.84Z" fill="#8ba5be"/>
    <path d="M181.32,86.56c-9.97-5.04-18.98-6.03-23.12-4.03-3.42,1.65-5.2,4.18-5.2,4.18-1.05,1.5-1.54,2.93-1.78,3.87-.43-.06-1.11-.11-1.91,0-1.98.28-3.38,1.37-4.18,2-.67.52-1.32,1.15-1.69,1.51-1.15,1.11-1.06,1.21-1.47,1.42-1.04.54-2.3.26-3.51,0-.98-.21-1.34-.44-2.04-.31-.68.13-1.19.5-1.51.8,1.57.54,3.15,1.11,4.76,1.73,7.96,3.08,14.99,6.72,21.12,10.49h4.41c-.09-6.18-.19-12.36-.28-18.54-.01-.95-.73-2.53-.16-2.91,1.59-1.07,8.17,11.31,18.11,13.58,3.54.81,7.78.4,9.94.2,2.41-.23,2.87-.49,3.17-.87,1.85-2.39-2.03-10.67-8.51-12.83-2.5-.84-4.8-.56-6.13-.28Z" fill="#95b0c6"/>
    <path d="M161.44,86.84c-.97.23-2.68.66-4.31,2.09-2.17,1.9-2.76,4.3-2.93,5.16-.56-.32-1.49-.75-2.67-.8-.48-.02-1.85-.03-4.53,1.62-1.23.75-2.95,1.98-4.69,3.89,6.16,3.14,12.31,6.29,18.47,9.43h4.41c7.71-1.54,13.01-2.38,16.75-2.71.68-.06,2.04-.17,2.59-1.09,1.06-1.77-1.72-5.26-3.75-7.8-1.46-1.84-3.65-4.27-6.76-6.76-1.27-.85-6.8-4.4-12.59-3.03Z" fill="#8ba5be"/>
    <path d="M18.6,115.32c10.79-12.82,20.82-17.22,28.36-18.72,0,0,17.64-3.45,32.67-10.64.32-.15.72-.41.99-.86.43-.71.43-1.75,0-2.49-.36-.61-.8-.66-2.73-1.54-2.39-1.09-2.79-1.51-2.96-2.02-.25-.74.07-1.44.12-1.54.38-.8,1.21-1.14,1.66-1.3,2.4-.9,5.28-1.28,6.99-1.54,2.52-.39,3.67-.69,4.86-1.19.68-.28,2.96-1.23,2.85-2.02-.07-.44-.91-.65-2.61-1.07-2.17-.53-3.19-.51-4.86-1.19-.86-.35-1.68-.68-1.66-1.07.02-.34.66-.6,3.91-1.3,4.06-.88,4.56-1,5.22-1.19,1.35-.37,3.12-.99,5.25-2.12" fill="none" stroke="#010d2d" stroke-miterlimit="10" stroke-width="1.1"/>
    <path d="M62.93,43.01c.49.87,1.31,2,2.63,2.96,1.66,1.21,3.24,1.51,4.62,1.77,2.08.39,3.04.09,3.32,0,.52-.18,1.78-.61,2.02-1.65.18-.82-.3-1.9-.95-1.98-.58-.08-1.25.65-1.42,1.37-.35,1.42,1.19,3.02,2.41,3.82,1.63,1.07,3.03.94,4.53,1.19,1.9.32,4.5,1.33,7.4,4.5" fill="none" stroke="#ff8156" stroke-dasharray=".54 1.39" stroke-linecap="round" stroke-linejoin="round" stroke-width=".35"/>
  </g>
  <g id="Layer_2">
    <path d="M160.77,108.22c-12.4-6.88-17.22-9.11-19.07-9.68-1.69-.51-3.32-1.21-5.02-1.66-1.17-.31-2.04-.48-2.04-.76,0-.37,1.62-.77,2.99-.83.93-.04,1.31.1,2.82.07,1.13-.02,1.7-.02,1.74-.16.13-.47-4.33-2.34-9.3-3.89-4.84-1.51-10.41-3.26-17.93-4.24-2.45-.32-5.92-.67-5.98-1.51-.01-.2.17-.42,2.03-1.42,3.12-1.67,3.84-1.72,4.71-2.7.18-.21,1.59-1.8,1.15-3.26-.08-.26-.41-1.14-3.19-2.2-3.05-1.16-5.09-1.01-7.99-2.47-.65-.32-1.61-.86-1.56-1.45.03-.38.48-.66.87-.9.77-.48,1.48-.61,1.92-.69,2.01-.38,2.96-.59,3.75-.8.74-.2,1.34-.4,1.95-.86.35-.27,1.03-.78.94-1.27-.07-.41-.64-.64-1.82-.98-1.91-.55-3.42-.81-3.6-.84-1.5-.26-2.56-.52-4.05-.89-.45-.11-2.15-.54-4.36-1.24-.84-.27-1.55-.51-2.09-.7" fill="none" stroke="#010d2d" stroke-miterlimit="10" stroke-width=".7"/>
    <path d="M29.2,60.72c2.5-.92,5.66-1.3,6.14-1.36,1.79-.21,7.2-.69,13.87,1.36,3.05.94,2.45,1.2,6.64,2.69,4.97,1.78,9.01,2.55,11.62,3.03,6.75,1.26,8.55.78,13.87,2.41,2.09.64,3.77,1.31,4.86,1.78-1,.37-2.51.85-4.39,1.14-2.42.37-3.36.1-6.28.17-4.78.11-4.61.89-7.94.71-3.17-.17-3.53-.88-6.52-.88-2.59,0-4.08.55-5.69.88-3.3.68-14.42-2.29-19.2-2.52-11.9-.57-19.2,15.94-21.55,14.4-2.37-1.55,3.14-19.62,14.58-23.8Z" fill="#b6cad8"/>
    <path d="M75.46,76.31c-1.03.03-2.05.05-3.08.08-.15-.25-.75-1.16-1.96-1.54-.97-.31-1.79-.1-2.1,0-.31-.7-1.01-2.05-2.46-3.14-1.56-1.18-3.14-1.42-4-1.54-2.53-.36-4.76.37-5.25.53-.33.11-.83.29-1.63.5-.58.16-1.72.46-2.52.5-1.03.06-1.85-.28-3.91-1.48-3-1.75-2.95-2.01-4.36-2.73-2.5-1.27-4.81-1.53-5.78-1.6-2.72-.19-4.78.43-6.05.83-4.68,1.47-7.83,4.42-9.49,6.27-4.02,5.81-4.58,7.53-4.18,7.89,1.02.91,7.68-7.57,16.54-7.9,1.16-.04,3.51,0,5.66.14,3.26.19,5.87.55,7.7.83,5.87.88,8.8,1.32,12.45,2.62,3.99,1.43,5.52,2.63,10.79,4.15,4.34,1.25,6.64,1.39,6.67,1.27.03-.1-1.68-.35-3.05-1.78-.41-.42-.91-.94-.98-1.72-.11-1.16.8-2.02.97-2.18Z" fill="#acc0d0"/>
    <path d="M80.09,82.7c.04.62-4.39,1.67-9.16,2.13-4.57.44-5.34-.06-8.79.55-2.19.39-3.53.89-6.95,2.15-1.5.55-10.29,3.78-13.07,4.77-2.99,1.06-7.38,2.49-12.93,3.82-2.13-1.71-5.58-3.97-10.23-4.75-4.15-.7-7.02.16-7.86-1.24-.58-.97-.25-3.14,4.92-8.63,1.31-1.95,3.62-4.72,7.38-6.57.12-.06.67-.33,1.42-.62,1.59-.62,5.44-1.89,19.27-1.06,1.46.09,4.15.26,7.65.87.56.1.99.18,1.24.23,3.95.75,7.08,1.77,13.34,3.79,3.81,1.23,8.53,2.88,10.31,3.29.75.17,1.12.3,1.87.56,1.04.37,1.56.55,1.57.71Z" fill="#95b0c6"/>
    <path d="M57.02,93.6c-.06-.24-.17-.55-.44-.71-.64-.38-1.37.54-2.67.84-1.25.29-2.42-.21-4.8-1.11-3.06-1.16-3.32-2.05-5.29-2.53-1.2-.3-3.05-.45-5.6.49-.48-.27-1.17-.62-2.04-.93-5.56-2-11,1.09-17.82,4.58-13.87,7.12-16.95,7.66-16.71,8.89.29,1.49,5.27,2.75,27.69,1.11,3.5-2.52,6.66-4.11,8.97-5.11,1.12-.48,2.95-1.27,5.45-1.99,1.37-.39,1.52-.36,5.76-1.44,2.05-.52,3-.78,3.56-.93,1.64-.45,2.99-.86,3.96-1.16Z" fill="#8ba5be"/>
    <path d="M16.48,64.41c10.93-8.14,17.28-8.77,21.11-7.68,1.38.39,3.77,1.26,7.29,1.28,3.63.02,3.92-1.18,8.89-1.88,1.79-.25,5.04-.69,8.95,0,.74.13,1.24.25,7.59,2.44,5.63,1.94,6.11,2.14,7.59,2.56,2.84.82,6.11,1.42,8.3,1.76.64.1,1.39.2,2.74.43,2.12.36,3.18.53,3.42.56.95.13,2.35.19,4.21-.21" fill="none" stroke="#010d2d" stroke-miterlimit="10" stroke-width=".28"/>
    <path d="M103.34,55.18c.65,2.1.07,3.94-.2,4.64-.77.07-1.94.28-3.22.9-1.69.83-2.73,1.98-3.25,2.66-.52-1.47-1.26-1.98-1.72-2.19-.44-.2-.79-.19-1.88-.27-1.07-.08-1.94-.18-2.52-.26-.29-.57-1.34-2.85-.52-5.47.86-2.75,3.55-5.13,6.89-5.02,3.16.1,5.63,2.41,6.42,5.01Z" fill="#fcc9b9"/>
    <path d="M125.79,59.01c-2.01-1.39-5.08-2.97-8.84-3.01-2.6-.03-4.9.69-5.93,1-2.51.77-3.15,1.41-5.85,2.36-2.62.93-3.5.45-5.24,1.36-1.62.85-2.69,2.05-3.35,2.95" fill="#fff" stroke="#010d2d" stroke-miterlimit="10" stroke-width=".28"/>
    <path d="M161.58,59.24c-5.13.26-8.96-.49-11.54-1.24-2.36-.68-6.43-2.01-11.25-2.04-.68,0-1.37.05-2.16.16-4.8.67-5.39,2.4-11.38,2.93-2.27.2-3.92.1-7.65.62-2.96.41-5.07.9-5.69,1.05-2.85.68-3.92,1.6-7.11,2.23-1.14.22-2.07.33-2.8.41-2.27.26-4.19.32-5.6.31" fill="none" stroke="#010d2d" stroke-miterlimit="10" stroke-width=".28"/>
    <path d="M66.91,57.4c1.48-.66,3.7-1.44,6.48-1.65,1.41-.11,4.67-.34,8.18,1.13,2.16.9,3.03,1.87,6.28,2.98,1.47.51,2.21.76,3.08.86,2.13.25,3.09-.14,4.15.55.49.32,1.12.95,1.48,2.4" fill="none" stroke="#010d2d" stroke-miterlimit="10" stroke-width=".28"/>
    <g>
      <circle cx="66.8" cy="79.19" r="1.24" fill="none" stroke="#ff8156" stroke-miterlimit="10" stroke-width=".7"/>
      <line x1="66.8" y1="80.44" x2="66.8" y2="84.53" fill="none" stroke="#101552" stroke-miterlimit="10" stroke-width=".35"/>
    </g>
    <g>
      <ellipse cx="120.58" cy="77.15" rx="1.52" ry="1.65" fill="none" stroke="#ff8156" stroke-miterlimit="10" stroke-width=".89"/>
      <line x1="120.58" y1="78.79" x2="120.58" y2="84.2" fill="none" stroke="#101552" stroke-miterlimit="10" stroke-width=".44"/>
    </g>
    <g>
      <circle cx="55.34" cy="69.12" r="1.05" fill="none" stroke="#ff8156" stroke-miterlimit="10" stroke-width=".59"/>
      <line x1="55.34" y1="70.17" x2="55.34" y2="73.63" fill="none" stroke="#101552" stroke-miterlimit="10" stroke-width=".29"/>
    </g>
    <g>
      <circle cx="149.58" cy="59.19" r="1.05" fill="none" stroke="#ff8156" stroke-miterlimit="10" stroke-width=".59"/>
      <line x1="149.58" y1="60.25" x2="149.58" y2="63.71" fill="none" stroke="#101552" stroke-miterlimit="10" stroke-width=".29"/>
    </g>
    <g>
      <circle cx="70.81" cy="62.76" r=".62" fill="none" stroke="#ff8156" stroke-miterlimit="10" stroke-width=".35"/>
      <line x1="70.81" y1="63.38" x2="70.81" y2="65.43" fill="none" stroke="#101552" stroke-miterlimit="10" stroke-width=".17"/>
    </g>
    <g>
      <circle cx="117.04" cy="58.26" r=".62" fill="none" stroke="#ff8156" stroke-miterlimit="10" stroke-width=".35"/>
      <line x1="117.04" y1="58.88" x2="117.04" y2="60.92" fill="none" stroke="#101552" stroke-miterlimit="10" stroke-width=".17"/>
    </g>
    <path d="M52.55,34.53c.4-.07.89-.08,1.22.21.38.33.31.85.64.95.28.09.47-.24.92-.37.34-.1.8-.07,1.42.28" fill="none" stroke="#101552" stroke-linecap="round" stroke-linejoin="round" stroke-width=".52"/>
    <path d="M49.9,39.93c.28-.05.63-.05.86.15.27.23.22.6.45.67.2.06.33-.17.65-.26.24-.07.56-.05,1,.2" fill="none" stroke="#101552" stroke-linecap="round" stroke-linejoin="round" stroke-width=".52"/>
    <path d="M60.92,40.87c.35-.03.77,0,1.03.26.31.31.21.75.48.86.23.09.41-.18.81-.26.3-.06.69,0,1.19.34" fill="none" stroke="#101552" stroke-linecap="round" stroke-linejoin="round" stroke-width=".52"/>
    <path d="M60.06,43.71c.23-.02.51,0,.68.17.2.21.14.5.32.57.15.06.28-.12.54-.17.2-.04.46,0,.79.22" fill="none" stroke="#101552" stroke-linecap="round" stroke-linejoin="round" stroke-width=".35"/>
    <path d="M61.51,46.95c.23-.02.51,0,.68.17.2.21.14.5.32.57.15.06.28-.12.54-.17.2-.04.46,0,.79.22" fill="none" stroke="#101552" stroke-linecap="round" stroke-linejoin="round" stroke-width=".35"/>
    <text transform="translate(57.11 22.19)" fill="#6387a5"><tspan font-size="14.1"><tspan x="0" y="0" font-family="'Josefin Sans', sans-serif" font-weight="300">Community</tspan></tspan><tspan font-family="'Nunito Sans', sans-serif" font-size="7.05"><tspan x="16.37" y="8.46">Forum &amp; Events</tspan></tspan></text>
  </g>
</svg>