<?xml version="1.0" encoding="UTF-8"?>
<svg id="Layer_1" xmlns="http://www.w3.org/2000/svg" version="1.1" viewBox="0 0 64 64">
  <!-- Generator: Adobe Illustrator 30.4.0, SVG Export Plug-In . SVG Version: 2.1.4 Build 226)  -->
  <circle cx="21.85" cy="31.64" r=".36" fill="#8ba5be"/>
  <circle cx="23.1" cy="36.36" r=".97" fill="#ff8156"/>
  <circle cx="14.59" cy="28.32" r=".62" fill="#fcc9b9"/>
  <circle cx="50.37" cy="21.11" r=".62" fill="#fcc9b9"/>
  <circle cx="44.96" cy="27.21" r=".36" fill="#8ba5be"/>
  <line x1="16.24" y1="29.12" x2="21.85" y2="31.64" fill="none" stroke="#8ba5be" stroke-miterlimit="10" stroke-width=".5"/>
  <line x1="33.15" y1="26.96" x2="38.8" y2="33.88" fill="none" stroke="#8ba5be" stroke-miterlimit="10" stroke-width=".5"/>
  <line x1="31.23" y1="26.84" x2="22.9" y2="31.28" fill="none" stroke="#8ba5be" stroke-miterlimit="10" stroke-width=".5"/>
  <g>
    <line x1="44.22" y1="27.84" x2="44.14" y2="27.93" fill="none" stroke="#8ba5be" stroke-linecap="round" stroke-miterlimit="10" stroke-width=".5"/>
    <line x1="43.42" y1="28.68" x2="40.17" y2="32.09" fill="none" stroke="#8ba5be" stroke-dasharray=".26 1.05" stroke-linecap="round" stroke-miterlimit="10" stroke-width=".5"/>
    <line x1="39.81" y1="32.47" x2="39.72" y2="32.56" fill="none" stroke="#8ba5be" stroke-linecap="round" stroke-miterlimit="10" stroke-width=".5"/>
  </g>
  <polygon points="21.86 27.73 22.47 27.95 21.86 28.18 21.63 28.79 21.4 28.18 20.79 27.95 21.4 27.73 21.63 27.12 21.86 27.73" fill="#8ba5be"/>
  <polygon points="53.59 17.9 54.2 18.13 53.59 18.35 53.36 18.96 53.13 18.35 52.52 18.13 53.13 17.9 53.36 17.29 53.59 17.9" fill="#ff8156"/>
  <polygon points="12.13 32.14 12.74 32.37 12.13 32.59 11.91 33.2 11.68 32.59 11.07 32.37 11.68 32.14 11.91 31.53 12.13 32.14" fill="#ff8156"/>
  <polygon points="27.3 30.82 27.91 31.05 27.3 31.28 27.07 31.89 26.84 31.28 26.23 31.05 26.84 30.82 27.07 30.21 27.3 30.82" fill="#ff8156"/>
  <line x1="22" y1="32.37" x2="22.79" y2="35.63" fill="none" stroke="#8ba5be" stroke-dasharray=".25 1" stroke-linecap="round" stroke-miterlimit="10" stroke-width=".5"/>
  <path d="M42.68,38.04c-1.6-.5-3.97-1.03-6.85-.89-4.95.24-8.53,2.33-10.17,3.44-1.46-.23-3.5-.38-5.87,0-3.71.59-6.41,2.15-7.88,3.17,4.07.63,8.15,1.25,12.22,1.88,2.92-.7,5.31-1.16,6.96-1.45,4.92-.88,7-.94,9.04-2.64,1.38-1.15,2.14-2.54,2.55-3.51Z" fill="#acc0d0"/>
  <path d="M1.83,46.4c4.72-3.06,8.66-3.55,10.91-3.57,2.1-.02,4.11.41,8.05,1.28,3.67.81,6.67,1.66,8.78,2.3H1.83Z" fill="#8ba5be"/>
  <path d="M62.17,39.17c-2.66.79-5.32,1.59-7.97,2.38-1.2-.34-2.47-.67-3.79-.96-3.71-.82-7.17-1.24-10.28-1.42.43-.3,1.07-.72,1.85-1.19,1.78-1.07,3.89-2.35,6.15-2.98,5.13-1.43,9.67.83,10.04,1.02,1.95,1,3.25,2.29,4,3.15Z" fill="#8ba5be"/>
  <path d="M53.7,41.55c-1.94-.49-4.04-.94-6.3-1.32-2.75-.46-5.32-.74-7.68-.89-.6.37-1.25.74-1.94,1.11-1.56.82-3.06,1.44-4.42,1.91,1.19.1,2.43.17,3.69.21,5.2.16,9.93-.29,14.09-1.02.14-.03-2.08.74-3.36,1.05,0,0-1.74.43-4.46,1.76-.17.08-.54.27-.56.55-.02.27.3.53.77.8.56.32,1.49.75,2.87,1h7.01c-1.09-.16-1.97-.28-2.55-.35-.75-.1-3.15-.39-4.73-1.27-.23-.13-.59-.35-.57-.61.01-.3.52-.51.74-.6,1.66-.65,2.49-.98,4.21-1.36.76-.17,1.87-.46,3.19-.98Z" fill="#95b0c6"/>
  <line x1="44.96" y1="27.21" x2="49.26" y2="22.54" fill="none" stroke="#8ba5be" stroke-miterlimit="10" stroke-width=".5"/>
  <circle cx="14.59" cy="28.32" r="1.84" fill="none" stroke="#010d2d" stroke-miterlimit="10" stroke-width=".5"/>
  <circle cx="50.41" cy="21.11" r="1.84" fill="none" stroke="#010d2d" stroke-miterlimit="10" stroke-width=".5"/>
  <circle cx="32.23" cy="26.28" r="1.14" fill="none" stroke="#010d2d" stroke-miterlimit="10" stroke-width=".5"/>
  <circle cx="38.8" cy="33.88" r=".97" fill="#ff8156"/>
</svg>