<?xml version="1.0" encoding="UTF-8"?>
<svg id="Layer_1" xmlns="http://www.w3.org/2000/svg" version="1.1" viewBox="0 0 30 30">
  <!-- Generator: Adobe Illustrator 30.4.0, SVG Export Plug-In . SVG Version: 2.1.4 Build 226)  -->
  <path d="M16.37,17.06c-.8-.81-1-2.04-.49-3.02.51-.98,1.58-1.44,2.53-1.36.14.01,1.49.15,2.05,1.32.38.79.16,1.55.1,1.75-.74.1-1.63.29-2.59.63-.6.21-1.13.45-1.6.68Z" fill="#ffb080"/>
  <path d="M3.86,17.03c.94-.71,2.71-1.85,5.19-2.3.75-.14,2.35-.35,4.34,0,1.38.25,2.48.68,3.23,1.05" fill="none" stroke="#010d2d" stroke-linecap="round" stroke-miterlimit="10" stroke-width=".5"/>
  <path d="M16.49,16.6c-.28-.11-.81-.27-1.45-.17-.3.05-1.02.16-1.15.6-.12.41.35.87.55,1.06.4.39.83.54,1.51.77.33.11.77.24,1.3.34" fill="none" stroke="#010d2d" stroke-linecap="round" stroke-miterlimit="10" stroke-width=".5"/>
  <path d="M16.15,17.03c0,.15.04.33.17.43.11.08.25.05.45.05.06,0,.28.03.7.1,1,.16,2.87.87,2.87.87.56.21,1.28.5,2.11.87" fill="none" stroke="#010d2d" stroke-linecap="round" stroke-miterlimit="10" stroke-width=".5"/>
  <path d="M17.6,10.81c.08.04.22.12.35.28.11.14.17.28.19.36" fill="none" stroke="#010d2d" stroke-linecap="round" stroke-miterlimit="10" stroke-width=".5"/>
  <path d="M3.92,17.39c.16.48,3.38-.15,3.64-.2,1.6-.32,1.73-.56,3.21-.79.26-.04,1.46-.21,3.11-.18,1.91.04,2.85.32,2.89.18.07-.25-2.19-1.57-4.94-1.76-1.98-.13-3.49.38-4.43.7-1.71.59-3.61,1.65-3.49,2.04Z" fill="#acc0d0"/>
  <path d="M19.81,10.43s.11.12.15.24c.05.17.02.32,0,.37" fill="none" stroke="#010d2d" stroke-linecap="round" stroke-miterlimit="10" stroke-width=".5"/>
  <path d="M21.99,11.19c-.09.07-.2.15-.31.27-.16.17-.27.34-.34.47" fill="none" stroke="#010d2d" stroke-linecap="round" stroke-miterlimit="10" stroke-width=".5"/>
  <path d="M23.38,12.72c-.06-.02-.29-.1-.55,0-.25.09-.38.28-.41.34" fill="none" stroke="#010d2d" stroke-linecap="round" stroke-miterlimit="10" stroke-width=".5"/>
  <path d="M11.8,9.96c-.03-.13-.12-.46-.41-.68-.38-.29-.91-.27-.95-.17-.04.11.51.21.81.71.3.5.16,1.08.26,1.09.07,0,.07-.34.35-.65.12-.13.25-.21.5-.36.2-.12.38-.21.51-.27" fill="none" stroke="#010d2d" stroke-linecap="round" stroke-miterlimit="10" stroke-width=".5"/>
  <path d="M16.56,17.19c.59-.31,1.27-.63,2.03-.91.97-.37,1.88-.62,2.67-.79.44-.13,1.04-.25,1.73-.23,1.5.02,2.62.63,3.15.97" fill="none" stroke="#010d2d" stroke-linecap="round" stroke-miterlimit="10" stroke-width=".5"/>
  <circle cx="15.15" cy="14.9" r="12.57" fill="none" stroke="#010d2d" stroke-linecap="round" stroke-miterlimit="10" stroke-width=".5"/>
</svg>