<?xml version="1.0" encoding="UTF-8"?>
<svg id="Layer_1" xmlns="http://www.w3.org/2000/svg" version="1.1" viewBox="0 0 30 30">
  <!-- Generator: Adobe Illustrator 30.4.0, SVG Export Plug-In . SVG Version: 2.1.4 Build 226)  -->
  <circle cx="15.15" cy="14.9" r="12.57" fill="none" stroke="#010d2d" stroke-linecap="round" stroke-miterlimit="10" stroke-width=".75"/>
  <path d="M17.7,17.66c-.1-.61.79-.88,1.23-1.83.5-1.07.15-2.43-.34-3.22-1.25-1.99-4.51-1.93-6.47-1.29-.26.08-2.37.81-3.66,2.91-.41.68-1.09,1.78-.77,3.01.23.89.89,1.41,1.54,1.91,1.74,1.33,3.56,1.56,5.57,1.79,3,.34,3.67-.28,3.87-.51.07-.08.57-.64.45-1.23-.17-.81-1.32-.85-1.43-1.53Z" fill="#acc0d0"/>
  <path d="M10.68,12.02c-1.3-.01-3.85.15-5.66,1.81-.91.84-.94,1.41-.94,1.59.01,1.11,1.44,1.89,2.13,2.26,1.39.74,2.53.87,5.62,1.1,1.51.11,4.54.32,7.91.15,0,0,1.31-.07,3.15-.71,1.36-.48,1.62-.81,1.7-1.11.21-.77-.74-1.59-.85-1.68-.82-.7-1.81-.69-2.1-.67" fill="none" stroke="#010d2d" stroke-miterlimit="10" stroke-width=".5"/>
  <circle cx="9.85" cy="18.24" r="1.23" fill="#fff" stroke="#ff8156" stroke-miterlimit="10" stroke-width=".5"/>
  <circle cx="11.61" cy="12.02" r="1.23" fill="#fff" stroke="#010d2d" stroke-miterlimit="10" stroke-width=".5"/>
  <circle cx="21.08" cy="18.85" r=".6" fill="#053d87"/>
  <circle cx="5.03" cy="19.84" r=".35" fill="#053d87"/>
  <circle cx="22.17" cy="11.73" r=".43" fill="#ffb080"/>
</svg>