<?xml version="1.0" encoding="UTF-8"?>
<svg id="Layer_1" xmlns="http://www.w3.org/2000/svg" version="1.1" viewBox="0 0 30 30">
  <!-- Generator: Adobe Illustrator 30.4.0, SVG Export Plug-In . SVG Version: 2.1.4 Build 226)  -->
  <circle cx="15.15" cy="14.9" r="12.57" fill="none" stroke="#010d2d" stroke-linecap="round" stroke-miterlimit="10" stroke-width=".5"/>
  <path d="M5.79,18.23c.08-.06.25-.18.37-.41.14-.26.13-.51.12-.61-.23-.09-.74-.33-1.1-.88-.46-.69-.38-1.41-.35-1.69.12-1.12.93-2.38,2.3-2.77,1.41-.4,2.55.38,2.73.51.23.16,1.11.78,1.3,1.93.2,1.19-.42,2.43-1.47,3.01-.88.49-1.77.34-2.04.29-.1.13-.24.28-.45.41-.6.37-1.25.24-1.43.2Z" fill="none" stroke="#010d2d" stroke-linecap="round" stroke-miterlimit="10" stroke-width=".5"/>
  <path d="M24.73,16.82c-.09-.06-.26-.2-.39-.43-.15-.28-.14-.54-.13-.65.24-.1.78-.35,1.16-.93.48-.73.4-1.5.36-1.8-.13-1.19-.98-2.54-2.43-2.96-1.48-.42-2.68.41-2.88.54-.24.17-1.17.84-1.37,2.06-.21,1.27.44,2.6,1.55,3.22.93.52,1.86.36,2.15.3.1.14.26.3.47.43.63.4,1.32.26,1.5.22Z" fill="none" stroke="#ff8156" stroke-miterlimit="10" stroke-width=".5"/>
  <ellipse cx="8.23" cy="14.94" rx="2.73" ry="2.29" fill="#acc0d0"/>
  <circle cx="22.49" cy="13.15" r="2.78" fill="#ffede0"/>
  <path d="M9.06,15.77c1.15,1.17,2.07,1.42,2.76,1.35.69-.07,1.54-.84,3.2-2.38,2.06-1.92,2.45-2.29,3.12-2.35.66-.06,1.63.19,2.92,1.67" fill="none" stroke="#010d2d" stroke-miterlimit="10" stroke-width=".5"/>
  <circle cx="15.16" cy="14.9" r=".85" fill="#fff" stroke="#ff8156" stroke-miterlimit="10" stroke-width=".5"/>
  <ellipse cx="15.8" cy="19.44" rx="2.57" ry=".59" fill="#c1d7e5"/>
</svg>