<?xml version="1.0" encoding="UTF-8"?>
<svg id="Layer_1" xmlns="http://www.w3.org/2000/svg" version="1.1" viewBox="0 0 200 130">
  <!-- Generator: Adobe Illustrator 30.4.0, SVG Export Plug-In . SVG Version: 2.1.4 Build 226)  -->
  <style>
    #wing {
      transform-box: fill-box;
      transform-origin: 88% 90%;
      animation: wing-flutter 5s ease-in-out infinite;
      animation-delay: 1.7s;
    }
    @keyframes wing-flutter {
      0%,100% { transform: rotate(0deg); }
      4%      { transform: rotate(-20deg); }
      8%      { transform: rotate(12deg); }
      12%     { transform: rotate(-8deg); }
      16%     { transform: rotate(0deg); }
    }
  </style>
  <ellipse cx="98.65" cy="107.34" rx="78.58" ry="8.02" fill="#8ba5be"/>
  <g>
    <path d="M159.71,100.13c-.18,6.84-61.66,6.3-61.66,6.3s-61.5-.55-61.66-6.3c0-.01,0-.03,0-.54,0-1.28,0-3,0-4.21,26.03.31,47.15-.62,61.66-1.55,0,0,60.94-3.87,61.54,2.63.1,1.04.12,2.42.12,2.42.01.71,0,1.24,0,1.25Z" fill="#fff" stroke="#010d2d" stroke-miterlimit="10" stroke-width=".88"/>
    <ellipse cx="98.05" cy="95.38" rx="61.66" ry="6.3" fill="#fff" stroke="#010d2d" stroke-miterlimit="10" stroke-width=".88"/>
  </g>
  <g>
    <path d="M149.82,93.88c-2.75,1.03-5.52,1.53-8.3,1.53h0c-1.34,0-2.93-.1-4.68-.39-1.61-.27-3.02-.65-4.22-1.04v-14.89c1.66-.02,3.95-.03,6.71-.03,1.6,0,2.37.02,4.2.03,2.7.01,4.89,0,6.3,0,.07,2.5.1,5.07.1,7.7,0,2.42-.04,4.78-.1,7.1Z" fill="#acc0d0" stroke="#010d2d" stroke-miterlimit="10" stroke-width=".88"/>
    <ellipse cx="141.22" cy="79.09" rx="8.6" ry="1.55" fill="#acc0d0" stroke="#010d2d" stroke-miterlimit="10" stroke-width=".88"/>
  </g>
  <path d="M89.46,95.42l-9.59-1.43c.17-4.45.34-8.91.5-13.36,2.96-.67,5.93-1.34,8.89-2.01,3.13.83,6.26,1.65,9.39,2.48v12.89l-9.19,1.43v-12.63c-3.03-.72-6.06-1.45-9.09-2.17,3.03.72,6.06,1.45,9.09,2.17l9.19-1.7" fill="#fcc9b9" stroke="#010d2d" stroke-miterlimit="10" stroke-width=".88"/>
  <path d="M124.04,95.7c-6.84.16-13.69.32-20.53.47-.78,0-1.35-.74-1.14-1.5,2.58-9.4,5.16-18.81,7.74-28.21.14-.51.61-.87,1.14-.87,6.56-.08,13.12-.16,19.68-.24.81.27,1.78.77,2.16,1.7.28.67.14,1.32.09,1.54-1.75,8.52-4.24,16.88-6.05,25.38-.04.2-.17.83-.68,1.28-.66.57-1.62.57-2.41.44Z" fill="#fff" stroke="#010d2d" stroke-miterlimit="10" stroke-width=".88"/>
  <path d="M123.6,95.7h-21.79c-.78,0-1.35-.74-1.14-1.5,2.58-9.4,5.16-18.81,7.74-28.21.14-.51.61-.87,1.14-.87h20.69c.76,0,1.33.71,1.15,1.46-2.21,9.4-4.43,18.81-6.64,28.21-.13.53-.6.91-1.15.91Z" fill="#fff" stroke="#010d2d" stroke-miterlimit="10" stroke-width=".88"/>
  <circle cx="112.57" cy="68.77" r=".61" fill="#ff8156"/>
  <circle cx="116.58" cy="68.91" r=".61" fill="#ff8156"/>
  <circle cx="120.58" cy="69.04" r=".61" fill="#ff8156"/>
  <circle cx="124.74" cy="69.19" r=".61" fill="#ff8156"/>
  <circle cx="111.25" cy="74.11" r=".61" fill="#ff8156"/>
  <circle cx="115.26" cy="74.25" r=".61" fill="#ff8156"/>
  <circle cx="119.27" cy="74.38" r=".61" fill="#ff8156"/>
  <circle cx="123.43" cy="74.53" r=".61" fill="#ff8156"/>
  <circle cx="109.78" cy="79.92" r=".61" fill="#ff8156"/>
  <circle cx="113.79" cy="80.05" r=".61" fill="#ff8156"/>
  <circle cx="117.8" cy="80.19" r=".61" fill="#ff8156"/>
  <circle cx="121.95" cy="80.34" r=".61" fill="#ff8156"/>
  <circle cx="108.32" cy="85.63" r=".61" fill="#ff8156"/>
  <circle cx="112.32" cy="85.76" r=".61" fill="#ff8156"/>
  <circle cx="116.33" cy="85.9" r=".61" fill="#ff8156"/>
  <circle cx="120.49" cy="86.05" r=".61" fill="#ff8156"/>
  <path d="M77.89,85.41c.88,3.47-5.09,8.93-11.21,9.97-.67.11-2.21.32-4.2.03-6.47-.94-13-6.5-12.15-10,1.03-4.24,12.56-4.34,13.78-4.34,1.13,0,12.68-.01,13.78,4.34Z" fill="#8ba5be" stroke="#010d2d" stroke-miterlimit="10" stroke-width=".88"/>
  <circle cx="107" cy="90.71" r=".61" fill="#ff8156"/>
  <circle cx="111.01" cy="90.84" r=".61" fill="#ff8156"/>
  <circle cx="115.01" cy="90.98" r=".61" fill="#ff8156"/>
  <circle cx="119.17" cy="91.13" r=".61" fill="#ff8156"/>
  <path d="M77.89,85.41c-.33,3.7-8.36,6.25-14.53,6.05-5.32-.17-12.7-2.51-13.03-6.05-.34-3.68,6.97-8.29,13.78-8.28,6.79,0,14.11,4.6,13.78,8.28Z" fill="#8ba5be" stroke="#010d2d" stroke-miterlimit="10" stroke-width=".88"/>
  <polyline points="124.74 31.52 130.33 48.11 113.18 48.11 111.25 31.52 98.05 31.52 95.55 48.11 77.9 48.11 84.76 31.52" fill="#acc0d0" stroke="#010d2d" stroke-miterlimit="10" stroke-width=".59"/>
  <path d="M69.27,48.11h8.85c0,4.88-4,8.9-8.85,8.9s-8.85-4.02-8.85-8.9h8.85Z" fill="none" stroke="#010d2d" stroke-miterlimit="10" stroke-width=".59"/>
  <path d="M86.97,48.11h8.85c0,4.88-4,8.9-8.85,8.9s-8.85-4.02-8.85-8.9h8.85Z" fill="none" stroke="#010d2d" stroke-miterlimit="10" stroke-width=".59"/>
  <path d="M104.45,48.11h8.85c0,4.88-4,8.9-8.85,8.9s-8.85-4.02-8.85-8.9h8.85Z" fill="none" stroke="#010d2d" stroke-miterlimit="10" stroke-width=".59"/>
  <path d="M121.78,48.11h8.56c0,4.88-3.87,8.9-8.56,8.9s-8.56-4.02-8.56-8.9h8.56Z" fill="none" stroke="#010d2d" stroke-miterlimit="10" stroke-width=".59"/>
  <path d="M138.78,48.11h8.35c0,4.88-3.77,8.9-8.35,8.9s-8.35-4.02-8.35-8.9h8.35Z" fill="none" stroke="#010d2d" stroke-miterlimit="10" stroke-width=".59"/>
  <line x1="64.11" y1="56.59" x2="64.11" y2="74.1" fill="none" stroke="#010d2d" stroke-miterlimit="10" stroke-width=".59"/>
  <line x1="142.93" y1="58.52" x2="142.93" y2="76.03" fill="none" stroke="#010d2d" stroke-miterlimit="10" stroke-width=".59"/>
  <path d="M78.01,14.73c.02-.41.16-1.99,1.44-3.2.26-.25,1.52-1.44,3.07-1.22.89.13,1.62.68,2,.97.39.3.68.6.88.83.59.11,1.08.16,1.41.19.39.04.64.04,1.01.12.41.08.74.2.95.29-.09.03-.22.08-.39.12-.74.19-1.03.04-1.82.15-.38.05-.72.1-1.11.32-.11.06-.42.25-.72.61-.2.24-.42.52-.46.91-.03.3.05.53.17.85.14.4.32.66.37.74.45.73.31,1.81.24,2.36-.07.59-.28,1.48-1.05,2.68-1.64,2.57-4.52,4.47-5.48,5.07.03.18.04.43,0,.73-.04.25-.11.46-.17.61.95.93,1.9,1.87,2.85,2.8.35.08.71.18,1.1.29.53.16,1.02.34,1.46.53l-4.65.23c.1-.14.24-.33.46-.49.09-.06.23-.16.42-.24.15-.06.28-.1.39-.12-.94-.9-1.87-1.8-2.81-2.7-.06-.02-.45-.18-.62-.61-.16-.39-.03-.73,0-.8-.27.02-.54.04-.82.06v.75c.44.66.92,1.36,1.48,2.13.26.36.54.75,1.04.94.3.12.6.14.83.15.48.03.77.05,1.11-.05.06-.02.11-.04.13-.02.04.06-.32.56-.87.71-.56.16-1.04-.11-1.15-.17-1.21.04-2.42.08-3.62.12.09-.16.24-.37.49-.49.19-.09.32-.07.73-.1.64-.04,1.02-.07,1.11-.27.07-.15-.06-.35-.12-.44-.57-.86-1.68-2.23-1.89-2.49-.09-.04-.21-.11-.33-.24-.19-.21-.25-.43-.27-.54-.22.05-.57.13-.98.27-1.72.6-2.83,1.65-3.69,2.48-.42.41-1,1.01-1.61,1.81-.23.16-.53.16-.73,0-.22-.18-.22-.46-.22-.49.74-1.04,1.49-2.07,2.23-3.11-1.14.38-2.35.74-2.41.58-.05-.11.57-.44,1.13-.84,1.16-.83,1.8-1.81,2.6-3.11,2.14-3.51,2.31-4.31,3.44-5.92.67-.96,1.75-2.33,3.45-3.75Z" fill="#010d2d"/>
  <path id="wing" d="M67.03,27.33c.57-.34,1.43-.89,2.34-1.72,1.95-1.77,2.48-3.23,5.07-6.94,1.97-2.83,2.6-3.32,3.42-3.43,1.72-.23,3.36,1.34,3.44,1.42.37.36.91.9,1.06,1.68.29,1.48-.99,2.86-1.61,3.52-3.24,3.48-12.27,5.2-13.71,5.47Z" fill="#010d2d"/>
  <line x1="15" y1="95.42" x2="29.8" y2="95.42" fill="none" stroke="#010d2d" stroke-miterlimit="10" stroke-width=".59"/>
  <line x1="166.31" y1="96.17" x2="178.5" y2="96.17" fill="none" stroke="#010d2d" stroke-miterlimit="10" stroke-width=".59"/>
  <path d="M147.12,48.11H60.38c3.46-5.53,6.93-11.06,10.39-16.59h65.56c3.6,5.53,7.2,11.06,10.79,16.59Z" fill="none" stroke="#010d2d" stroke-miterlimit="10" stroke-width=".46"/>
</svg>