<?xml version="1.0" encoding="UTF-8"?>
<svg id="Layer_1" xmlns="http://www.w3.org/2000/svg" version="1.1" viewBox="0 0 200 221.17">
  <!-- Generator: Adobe Illustrator 30.4.0, SVG Export Plug-In . SVG Version: 2.1.4 Build 226)  -->
  <line x1="60.17" y1="214.95" x2="143.91" y2="214.95" fill="none" stroke="#ff8156" stroke-miterlimit="10"/>
  <circle cx="102.99" cy="214.95" r="2.05" fill="#ff8156" stroke="#ff8156" stroke-miterlimit="10"/>
  <path d="M121.82,83.04c-1.01-3.5-2.92-5.83-4.1-7.23-1.3-1.54-7.48-8.85-17.72-8.85s-16.42,7.31-17.72,8.85c-1.18,1.4-3.09,3.73-4.1,7.23-1.06,3.63-1.1,8.61,2.05,15.24,6.59,13.84,13.18,27.68,19.77,41.53,6.59-13.85,13.18-27.69,19.77-41.53,3.15-6.63,3.11-11.61,2.05-15.24ZM100,99.45c-6.57,0-11.89-5.33-11.89-11.9s5.32-11.89,11.89-11.89,11.89,5.32,11.89,11.89-5.32,11.9-11.89,11.9Z" fill="#123f6f" stroke="#000f45" stroke-miterlimit="10"/>
  <path d="M15.95,122.46c1.6-.02,3.98-.04,6.87.03,7.85.19,11.85.33,15.57,1.79,1.35.53,3.24,1.63,7.02,3.83,4.37,2.55,4.97,3.21,7.15,4.09,2.17.88,2.95.77,8.94,1.66,7.05,1.04,10.58,1.56,12.26,2.3,2.35,1.03,5.38,2.83,8.81,3.96,1.59.52,3.19.89,3.19.89,1.78.41,3.09.57,3.57.64,1.65.23,4.12.82,7.66,2.43h42.13c-.89.6-1.79,1.19-2.68,1.79-3.12,1.13-7.57,2.61-13.02,3.96-6.4,1.58-11.21,2.25-19.15,3.32-5.07.69-11.7,1.49-19.53,2.17-1.19-.39-2.96-.97-5.11-1.66-9.36-3.01-18.17-5.66-22.09-6.77-12.35-3.49-26.26-5.84-35.11-7.15-1.44-2.43-2.98-5.49-4.28-9.13-1.07-2.98-1.75-5.74-2.2-8.14Z" fill="#9cb2ca"/>
  <path d="M21.57,141.96c7.38.6,13.32,1.59,17.3,2.36,9.58,1.86,16.96,4.23,31.02,8.81,5.56,1.81,10.14,3.38,13.28,4.47h4.21c-4.86,1.46-9.86,2.89-15,4.28-4.14,1.11-8.21,2.15-12.21,3.13-.37.22-.78.54-.81.96-.03.57.67,1.19,2.3,1.91,3.84,1.71,15.64,5.3,18.38,6.13,4.47,1.77,7.96,3.21,10.09,4.09.42.17,1.25.59,1.66,1.4.44.87-.27,2.05-.57,2.55-1.76,2.93-6.75,4.09-8.11,4.4-3.57.82-8.41,1.74-14.36,2.3-3.05-1.22-7.27-3.13-11.99-6-2.55-1.55-12.94-8.05-22.86-20.49-3.65-4.58-8.31-11.32-12.32-20.3Z" fill="#8aa4bd"/>
  <path d="M181.45,140.09c-2.16-.85-5.43-1.87-9.49-2.09-3.51-.19-6.67.26-11.3,1.53-7.5,2.06-11.05,4.12-20.17,7.98-3.98,1.69-8.47,3.59-14.17,5.55-6.82,2.35-11.96,3.62-21.96,6.06-4.3,1.05-10.25,2.45-17.43,3.96h44.87c12.2.16,18.05.5,29.23,0,2.9-.13,5.29-.28,6.89-.38.55-.7,1.36-1.75,2.3-3.06,3.3-4.6,5.41-8.46,7.47-12.26.99-1.83,2.29-4.31,3.74-7.3Z" fill="#8aa4bd"/>
  <path d="M139.12,186.7c-2.86-1.3-7.04-3.16-12.16-5.23-10.1-4.1-15.14-6.15-20.87-7.53-5.84-1.41-15.94-3.18-21.57-3.77-1.93-.2-3.82-.74-5.74-1.02,0,0-2.6-.38-6-2.11-.3-.15-.71-.37-.7-.64.02-.58,1.97-.87,6.13-1.66,2.51-.48-17.4,3.28,7.02-1.4.65-.12,4.18-.8,4.85-.93l77.43.93c-2.14,2.61-4.59,5.32-7.4,8.04-7.29,7.04-14.7,11.93-20.97,15.32Z" fill="#8aa4bd"/>
  <ellipse cx="101.02" cy="102.78" rx="87.66" ry="93.62" fill="none" stroke="#000f45" stroke-miterlimit="10"/>
  <path d="M130.28,40.74s1.94,1.6,4.43,3.45c1.61,1.2,2.42,1.8,2.89,2.04,3.95,2.06,8.45.7,8.47.85,0,.08-1.48.44-3.57.47-2.19.03-2.44-.34-3.4-.11-2.6.62-3.96,4.03-4.04,3.98-.07-.05,1.95-2.18,1.49-4.21-.16-.72-.57-1.12-2-2.47-2.11-1.98-4.28-3.97-4.26-4Z" fill="#000f45" stroke="#000f45" stroke-miterlimit="10"/>
  <path d="M150.64,59.73s1.55,1.08,3.53,2.3c1.29.8,1.93,1.19,2.3,1.35,3.09,1.3,6.38,0,6.4.1.01.06-1.08.42-2.65.58-1.64.16-1.85-.1-2.56.13-1.91.63-2.72,3.27-2.78,3.24-.06-.03,1.32-1.75.85-3.25-.17-.53-.5-.81-1.65-1.72-1.71-1.35-3.45-2.71-3.44-2.73Z" fill="#000f45" stroke="#000f45" stroke-miterlimit="10" stroke-width=".25"/>
  <path d="M145.58,74.24s1.55,1.08,3.53,2.3c1.29.8,1.93,1.19,2.3,1.35,3.09,1.3,6.38,0,6.4.1.01.06-1.08.42-2.65.58-1.64.16-1.85-.1-2.56.13-1.91.63-2.72,3.27-2.78,3.24-.06-.03,1.32-1.75.85-3.25-.17-.53-.5-.81-1.65-1.72-1.71-1.35-3.45-2.71-3.44-2.73Z" fill="#000f45" stroke="#000f45" stroke-miterlimit="10" stroke-width=".25"/>
  <circle cx="42.45" cy="19.98" r="17.72" fill="#124370"/>
  <text transform="translate(34.47 30.17)" fill="#fff" font-family="CenturyGothic, &apos;Century Gothic&apos;" font-size="29.45"><tspan x="0" y="0">1</tspan></text>
</svg>