<?xml version="1.0" encoding="UTF-8"?>
<svg id="Layer_1" xmlns="http://www.w3.org/2000/svg" version="1.1" viewBox="0 0 64 64">
  <!-- Generator: Adobe Illustrator 30.4.0, SVG Export Plug-In . SVG Version: 2.1.4 Build 226)  -->
  <ellipse cx="32.27" cy="30.14" rx="25.05" ry="26.75" fill="none" stroke="#010d2d" stroke-miterlimit="10" stroke-width=".5"/>
  <circle cx="32.71" cy="15.35" r="5.16" fill="#fff" stroke="#010d2d" stroke-miterlimit="10" stroke-width=".5"/>
  <circle cx="46.2" cy="24.53" r="5.16" fill="#fff" stroke="#010d2d" stroke-miterlimit="10" stroke-width=".5"/>
  <circle cx="18.57" cy="24.53" r="5.16" fill="#fff" stroke="#010d2d" stroke-miterlimit="10" stroke-width=".5"/>
  <line x1="24.2" y1="18.46" x2="25.12" y2="17.39" fill="none" stroke="#010d2d" stroke-linecap="round" stroke-miterlimit="10" stroke-width=".5"/>
  <line x1="39.74" y1="17.93" x2="40.69" y2="19.05" fill="none" stroke="#010d2d" stroke-linecap="round" stroke-miterlimit="10" stroke-width=".5"/>
  <path d="M33.5,16.28v1.77c0,.23-.19.42-.42.42h-.75c-.23,0-.42-.19-.42-.42v-1.77h-1.77c-.23,0-.42-.19-.42-.42v-.75c0-.23.19-.42.42-.42h1.77v-1.77c0-.23.19-.42.42-.42h.75c.23,0,.42.19.42.42v1.77h1.77c.23,0,.42.19.42.42v.75c0,.23-.19.42-.42.42h-1.77Z" fill="#123f6f" stroke="#010d2d" stroke-miterlimit="10" stroke-width=".5"/>
  <path d="M19.87,26.78l-.75-.49c-.13.05-.32.11-.55.12-.05,0-.57.03-1.08-.24-.57-.31-1.04-.96-1.07-1.73-.04-.8.4-1.6,1.17-1.97.83-.4,1.83-.18,2.41.46.61.68.48,1.56.46,1.7-.11.68-.51,1.1-.66,1.24.02.3.05.6.07.9Z" fill="none" stroke="#010d2d" stroke-miterlimit="10" stroke-width=".5"/>
  <circle cx="44.34" cy="23.5" r=".67" fill="#124370" stroke="#010d2d" stroke-miterlimit="10" stroke-width=".5"/>
  <circle cx="46.2" cy="22.62" r=".67" fill="#124370" stroke="#010d2d" stroke-miterlimit="10" stroke-width=".5"/>
  <circle cx="46.2" cy="26.42" r=".67" fill="#124370" stroke="#010d2d" stroke-miterlimit="10" stroke-width=".5"/>
  <circle cx="48.06" cy="25.66" r=".67" fill="#124370" stroke="#010d2d" stroke-miterlimit="10" stroke-width=".5"/>
  <circle cx="48.06" cy="23.5" r=".67" fill="#124370" stroke="#010d2d" stroke-miterlimit="10" stroke-width=".5"/>
  <circle cx="44.34" cy="25.66" r=".67" fill="#124370" stroke="#010d2d" stroke-miterlimit="10" stroke-width=".5"/>
  <path d="M32.64,39.7c1.4-1.1,4.1-3.39,5.59-5.98.21-.37.55-1,.51-1.82-.06-1.23-.96-2.72-2.55-3.11-1.32-.32-2.74.22-3.55,1.36-.8-1.12-2.18-1.66-3.48-1.36-1.61.37-2.5,1.89-2.55,3.11-.04.82.3,1.46.51,1.82,1.48,2.58,4.11,4.86,5.52,5.98Z" fill="#fff" stroke="#ff8156" stroke-miterlimit="10" stroke-width="1.5"/>
  <path d="M18.57,31.45c.5.52,1.02,1.14,1.55,1.86.4.55.73,1.07,1.02,1.57" fill="none" stroke="#010d2d" stroke-linecap="round" stroke-miterlimit="10" stroke-width=".5"/>
  <path d="M47.31,32.07c-.5.52-1.02,1.14-1.55,1.86-.4.55-.73,1.07-1.02,1.57" fill="none" stroke="#010d2d" stroke-linecap="round" stroke-miterlimit="10" stroke-width=".5"/>
  <path d="M35.39,56.36v-9.24c.05-.35.13-.84.29-1.41.18-.63.43-1.51,1.07-2.43.6-.87,1.27-1.37,1.65-1.65.59-.44.82-.48,2.14-1.17,1.1-.57,1.83-.95,2.68-1.51.76-.5,1.51-1.01,2.31-1.85.78-.83,1.28-1.63,1.58-2.21.15.02.38.08.58.27.35.32.36.79.36,1.02.03,1.22-1.04,2.59-1.19,2.77-1.04,1.31-1.99,2.33-2.62,2.99-.49.51-.79.81-.79.81,0,0,1.01-.99,2.17-2.31.83-.95,1.25-1.43,1.58-1.95.95-1.49,1.3-2.98,1.39-3.36.13-.57.42-2.11.84-3.11.09-.21.27-.62.69-.9.19-.13.35-.26.56-.24.47.04.74.75.79.88.1.26.12.47.12.54.11,1.37,0,2.16,0,2.16-.19,1.36-.33,2.35-.78,3.71-.24.72-.69,2.05-1.64,3.58-1.09,1.74-2.3,2.86-3.13,3.61-2.39,2.18-3.25,2.82-3.25,2.82-.28.21-.75.55-1.19,1.17-.62.88-.79,1.77-.84,2.04-.04.23-.05.42-.06.63-.01.23.04,1.42.16,3.05" fill="#fff" stroke="#010d2d" stroke-linecap="round" stroke-miterlimit="10" stroke-width=".5"/>
  <path d="M29.58,56.59v-9.24c-.05-.35-.13-.84-.29-1.41-.18-.63-.43-1.51-1.07-2.43-.6-.87-1.27-1.37-1.65-1.65-.59-.44-.82-.48-2.14-1.17-1.1-.57-1.83-.95-2.68-1.51-.76-.5-1.51-1.01-2.31-1.85-.78-.83-1.28-1.63-1.58-2.21-.15.02-.38.08-.58.27-.35.32-.36.79-.36,1.02-.03,1.22,1.04,2.59,1.19,2.77,1.04,1.31,1.99,2.33,2.62,2.99.49.51.79.81.79.81,0,0-1.01-.99-2.17-2.31-.83-.95-1.25-1.43-1.58-1.95-.95-1.49-1.3-2.98-1.39-3.36-.13-.57-.42-2.11-.84-3.11-.09-.21-.27-.62-.69-.9-.19-.13-.35-.26-.56-.24-.47.04-.74.75-.79.88-.1.26-.12.47-.12.54-.11,1.37,0,2.16,0,2.16.19,1.36.33,2.35.78,3.71.24.72.69,2.05,1.64,3.58,1.09,1.74,2.3,2.86,3.13,3.61,2.39,2.18,3.25,2.82,3.25,2.82.28.21.75.55,1.19,1.17.62.88.79,1.77.84,2.04.04.23.05.42.06.63.01.23-.04,1.42-.16,3.05" fill="#fff" stroke="#010d2d" stroke-linecap="round" stroke-miterlimit="10" stroke-width=".5"/>
  <line x1="20.6" y1="62.19" x2="44.53" y2="62.19" fill="none" stroke="#ff8156" stroke-miterlimit="10" stroke-width=".5"/>
  <circle cx="32.84" cy="62.19" r=".59" fill="#ff8156" stroke="#ff8156" stroke-miterlimit="10" stroke-width=".5"/>
  <g>
    <ellipse cx="14.8" cy="7.83" rx="7.48" ry="7.5" fill="#124370"/>
    <text transform="translate(11.25 12.09)" fill="#fff" font-family="CenturyGothic, &apos;Century Gothic&apos;" font-size="12"><tspan x="0" y="0">2</tspan></text>
  </g>
</svg>