<?xml version="1.0" encoding="UTF-8"?>
<svg id="Layer_1" xmlns="http://www.w3.org/2000/svg" version="1.1" viewBox="0 0 200 221.17">
  <!-- Generator: Adobe Illustrator 30.4.0, SVG Export Plug-In . SVG Version: 2.1.4 Build 226)  -->
  <ellipse cx="101.02" cy="102.78" rx="87.66" ry="93.62" fill="none" stroke="#000f45" stroke-miterlimit="10"/>
  <circle cx="102.55" cy="51.04" r="18.04" fill="#fff" stroke="#000f45" stroke-miterlimit="10"/>
  <circle cx="149.74" cy="83.17" r="18.04" fill="#fff" stroke="#000f45" stroke-miterlimit="10"/>
  <circle cx="53.06" cy="83.17" r="18.04" fill="#fff" stroke="#000f45" stroke-miterlimit="10"/>
  <line x1="72.77" y1="61.93" x2="76" y2="58.19" fill="none" stroke="#000f45" stroke-linecap="round" stroke-miterlimit="10"/>
  <line x1="127.15" y1="60.06" x2="130.47" y2="63.98" fill="none" stroke="#000f45" stroke-linecap="round" stroke-miterlimit="10"/>
  <path d="M105.32,54.29v6.18c0,.81-.65,1.47-1.47,1.47h-2.61c-.81,0-1.48-.65-1.48-1.47v-6.18h-6.18c-.81,0-1.47-.67-1.47-1.48v-2.61c0-.81.65-1.47,1.47-1.47h6.18v-6.18c0-.81.67-1.48,1.48-1.48h2.61c.81,0,1.47.67,1.47,1.48v6.18h6.18c.81,0,1.48.65,1.48,1.47v2.61c0,.81-.67,1.48-1.48,1.48h-6.18Z" fill="#123f6f" stroke="#000f45" stroke-miterlimit="10" stroke-width="1.33"/>
  <path d="M57.62,91.05l-2.64-1.7c-.45.17-1.11.37-1.92.43-.19.01-2.01.12-3.78-.85-1.99-1.08-3.62-3.34-3.74-6.04-.13-2.81,1.41-5.61,4.09-6.89,2.9-1.39,6.41-.63,8.43,1.62,2.13,2.38,1.7,5.46,1.62,5.96-.38,2.37-1.78,3.85-2.3,4.34.09,1.05.17,2.1.26,3.15Z" fill="none" stroke="#000f45" stroke-miterlimit="10" stroke-width="1.33"/>
  <circle cx="143.23" cy="79.55" r="2.34" fill="#124370" stroke="#000f45" stroke-miterlimit="10"/>
  <circle cx="149.74" cy="76.49" r="2.34" fill="#124370" stroke="#000f45" stroke-miterlimit="10"/>
  <circle cx="149.74" cy="89.76" r="2.34" fill="#124370" stroke="#000f45" stroke-miterlimit="10"/>
  <circle cx="156.25" cy="87.12" r="2.34" fill="#124370" stroke="#000f45" stroke-miterlimit="10"/>
  <circle cx="156.25" cy="79.55" r="2.34" fill="#124370" stroke="#000f45" stroke-miterlimit="10"/>
  <circle cx="143.23" cy="87.12" r="2.34" fill="#124370" stroke="#000f45" stroke-miterlimit="10"/>
  <path d="M102.3,136.23c4.91-3.86,14.34-11.86,19.57-20.94.74-1.28,1.93-3.51,1.79-6.38-.21-4.29-3.35-9.52-8.94-10.87-4.63-1.12-9.57.76-12.43,4.74-2.78-3.92-7.61-5.8-12.17-4.74-5.64,1.31-8.73,6.62-8.94,10.87-.14,2.88,1.05,5.11,1.79,6.38,5.19,9.02,14.4,16.99,19.32,20.94Z" fill="#fff" stroke="#ff8156" stroke-miterlimit="10" stroke-width="2"/>
  <path d="M53.06,107.38c1.73,1.83,3.58,3.99,5.41,6.51,1.39,1.91,2.57,3.76,3.57,5.49" fill="none" stroke="#000f45" stroke-linecap="round" stroke-miterlimit="10"/>
  <path d="M153.62,109.55c-1.73,1.83-3.58,3.99-5.41,6.51-1.39,1.91-2.57,3.76-3.57,5.49" fill="none" stroke="#000f45" stroke-linecap="round" stroke-miterlimit="10"/>
  <path d="M111.91,194.53v-32.34c.16-1.21.45-2.93,1.02-4.94.63-2.22,1.49-5.28,3.74-8.51,2.12-3.04,4.46-4.8,5.79-5.79,2.06-1.53,2.88-1.69,7.49-4.09,3.84-1.99,6.39-3.32,9.36-5.28,2.67-1.76,5.3-3.52,8.08-6.47,2.73-2.89,4.47-5.72,5.54-7.74.51.08,1.34.29,2.04.94,1.21,1.11,1.25,2.77,1.27,3.57.1,4.27-3.65,9.06-4.17,9.7-3.65,4.58-6.96,8.17-9.16,10.46-1.7,1.77-2.75,2.82-2.75,2.82,0,0,3.54-3.46,7.58-8.09,2.91-3.33,4.36-4.99,5.53-6.83,3.31-5.23,4.55-10.41,4.85-11.76.45-2,1.47-7.37,2.94-10.89.3-.72.95-2.16,2.43-3.15.67-.45,1.23-.91,1.96-.85,1.66.14,2.6,2.63,2.77,3.06.34.9.41,1.65.43,1.87.39,4.81,0,7.57,0,7.57-.67,4.77-1.15,8.21-2.72,12.98-.83,2.5-2.4,7.18-5.74,12.51-3.82,6.08-8.05,10-10.94,12.64-8.36,7.63-11.36,9.87-11.36,9.87-.97.72-2.64,1.93-4.17,4.09-2.19,3.07-2.78,6.2-2.94,7.15-.13.82-.18,1.48-.21,2.21-.04.81.15,4.98.55,10.68" fill="#fff" stroke="#000f45" stroke-linecap="round" stroke-miterlimit="10"/>
  <path d="M91.6,195.33v-32.34c-.16-1.21-.45-2.93-1.02-4.94-.63-2.22-1.49-5.28-3.74-8.51-2.12-3.04-4.46-4.8-5.79-5.79-2.06-1.53-2.88-1.69-7.49-4.09-3.84-1.99-6.39-3.32-9.36-5.28-2.67-1.76-5.3-3.52-8.08-6.47-2.73-2.89-4.47-5.72-5.54-7.74-.51.08-1.34.29-2.04.94-1.21,1.11-1.25,2.77-1.27,3.57-.1,4.27,3.65,9.06,4.17,9.7,3.65,4.58,6.96,8.17,9.16,10.46,1.7,1.77,2.75,2.82,2.75,2.82,0,0-3.54-3.46-7.58-8.09-2.91-3.33-4.36-4.99-5.53-6.83-3.31-5.23-4.55-10.41-4.85-11.76-.45-2-1.47-7.37-2.94-10.89-.3-.72-.95-2.16-2.43-3.15-.67-.45-1.23-.91-1.96-.85-1.66.14-2.6,2.63-2.77,3.06-.34.9-.41,1.65-.43,1.87-.39,4.81,0,7.57,0,7.57.67,4.77,1.15,8.21,2.72,12.98.83,2.5,2.4,7.18,5.74,12.51,3.82,6.08,8.05,10,10.94,12.64,8.36,7.63,11.36,9.87,11.36,9.87.97.72,2.64,1.93,4.17,4.09,2.19,3.07,2.78,6.2,2.94,7.15.13.82.18,1.48.21,2.21.04.81-.15,4.98-.55,10.68" fill="#fff" stroke="#000f45" stroke-linecap="round" stroke-miterlimit="10"/>
  <line x1="60.17" y1="214.95" x2="143.91" y2="214.95" fill="none" stroke="#ff8156" stroke-miterlimit="10"/>
  <circle cx="102.99" cy="214.95" r="2.05" fill="#ff8156" stroke="#ff8156" stroke-miterlimit="10"/>
  <circle cx="42.45" cy="19.98" r="17.72" fill="#124370"/>
  <text transform="translate(34.47 30.17)" fill="#fff" font-family="CenturyGothic, &apos;Century Gothic&apos;" font-size="29.45"><tspan x="0" y="0">2</tspan></text>
</svg>