<?xml version="1.0" encoding="UTF-8"?>
<svg id="Layer_1" xmlns="http://www.w3.org/2000/svg" version="1.1" viewBox="0 0 64 64">
  <!-- Generator: Adobe Illustrator 30.4.0, SVG Export Plug-In . SVG Version: 2.1.4 Build 226)  -->
  <line x1="20.64" y1="62.02" x2="44.59" y2="62.02" fill="none" stroke="#ff8156" stroke-miterlimit="10" stroke-width=".5"/>
  <circle cx="32.89" cy="62.02" r=".59" fill="#ff8156" stroke="#ff8156" stroke-miterlimit="10" stroke-width=".5"/>
  <path d="M22.66,26.34c5.82-1.73,11.63-3.46,17.45-5.18-1.78,4.77-3.55,9.54-5.33,14.31-1.46-1.53-2.92-3.07-4.38-4.6-.63-.66-1.27-1.31-1.9-1.97-1.95-.85-3.89-1.7-5.84-2.56Z" fill="none" stroke="#010d2d" stroke-miterlimit="10" stroke-width=".5"/>
  <path d="M28.72,29.06c.77.8,1.55,1.61,2.32,2.41-.85,1.49-1.69,2.98-2.54,4.47.07-2.29.15-4.59.22-6.88Z" fill="none" stroke="#010d2d" stroke-miterlimit="10" stroke-width=".5"/>
  <path d="M28.61,29.01c3.78-2.47,7.56-4.93,11.33-7.4-3.18,3.09-6.36,6.17-9.54,9.26-.6-.62-1.19-1.24-1.79-1.86Z" fill="none" stroke="#010d2d" stroke-miterlimit="10" stroke-width=".5"/>
  <path d="M41.59,10.88s.6.16,1.1.61c.17.15.25.26.44.33.24.09.38.02.73.02.49,0,.88.15.88.18,0,.03-.34,0-1.01.05-.3.02-.49.04-.66.15-.24.15-.37.38-.37.38,0,0,0,0,0,0-.04.07-.09.16-.14.25-.14.23-.27.45-.29.44-.02-.01.56-.67.39-1.24-.05-.18-.18-.32-.45-.6-.37-.39-.64-.55-.63-.58Z" fill="#000f45" stroke="#010d2d" stroke-miterlimit="10" stroke-width=".5"/>
  <path d="M44.45,17.86s.57.11,1.08.5c.17.13.25.22.44.28.24.07.36,0,.69-.03.46-.03.84.07.84.11,0,.03-.32.03-.95.12-.28.04-.46.08-.61.18-.22.16-.32.38-.32.38,0,0,0,0,0,0-.03.07-.07.15-.12.25-.11.23-.23.44-.24.44-.02,0,.48-.67.28-1.2-.06-.16-.2-.28-.47-.53-.37-.34-.65-.47-.63-.5Z" fill="#000f45" stroke="#010d2d" stroke-miterlimit="10" stroke-width=".5"/>
  <path d="M48.73,24.75s.27-.06.56.02c.1.03.15.05.24.04.11-.01.16-.07.29-.14.19-.1.38-.12.38-.11,0,.01-.13.07-.39.23-.11.07-.18.12-.23.19-.07.11-.07.22-.07.22h0s0,.08,0,.13c0,.12-.02.23-.02.23-.01,0,.08-.38-.1-.57-.06-.06-.14-.09-.3-.14-.22-.08-.37-.08-.37-.1Z" fill="#000f45" stroke="#010d2d" stroke-miterlimit="10" stroke-width=".5"/>
  <path d="M51.62,20.39s.15.13.23.33c.03.07.03.11.08.15.06.06.11.06.2.11.14.07.23.16.22.17,0,0-.1-.05-.29-.13-.09-.04-.15-.06-.21-.05-.09,0-.16.06-.16.06h0s-.05.03-.08.05c-.07.05-.14.09-.14.09,0,0,.25-.11.28-.3,0-.06,0-.12-.05-.23-.05-.16-.11-.25-.1-.25Z" fill="#000f45" stroke="#010d2d" stroke-miterlimit="10" stroke-width=".5"/>
  <path d="M46.47,32.09s.2,0,.38.11c.06.03.09.06.16.07.08.01.12-.02.23-.05.15-.03.28-.02.28,0,0,.01-.1.03-.31.09-.09.03-.15.05-.19.09-.06.06-.08.14-.08.14h0s-.01.05-.03.09c-.02.08-.05.16-.06.16,0,0,.12-.25.03-.41-.03-.05-.08-.08-.18-.15-.14-.09-.24-.12-.24-.13Z" fill="#000f45" stroke="#010d2d" stroke-miterlimit="10" stroke-width=".5"/>
  <path d="M37.36,15.33s.4.11.75.42c.12.1.17.17.3.22.16.06.26.01.49.02.33,0,.6.1.6.12,0,.02-.23,0-.69.03-.2.01-.33.03-.45.1-.17.1-.25.26-.25.26h0s-.06.11-.1.17c-.09.16-.19.3-.19.3-.01,0,.38-.45.27-.84-.04-.12-.13-.21-.3-.4-.25-.26-.44-.37-.42-.39Z" fill="#000f45" stroke="#010d2d" stroke-miterlimit="10" stroke-width=".5"/>
  <path d="M11.53,42.14c1.7,1,3.97,1.95,6.67,2.19,1.45.13,2.98.06,4.55-.54.89-.34,2.17-.84,2.51-1.95.07-.22.21-.86,0-1.56-.18-.6-.48-.75-.54-1.22-.04-.34.05-.82.63-1.46" fill="none" stroke="#ff8156" stroke-linecap="round" stroke-miterlimit="10" stroke-width=".5"/>
  <path d="M53.7,44.02c-1.37-1.02-2.58-1.18-3.14-1.22-1.19-.07-2.27.29-3.21.61-.29.1-.74.27-1.63.61-1.01.39-1.29.43-1.75.68-.55.3-.56.42-1.31.97-.88.64-1.45,1.06-2.19,1.27-.88.25-1.03-.07-2.29,0-1.32.08-2.3.49-2.97.78-1.89.8-1.56,1.32-2.82,1.61-.88.2-1.21-.01-3.43.24-.48.06-.72.08-.91.12-1.48.31-2.37,1.13-3.12,1.68-2.3,1.69-3.95,1.34-3.99,1.95-.07,1.11,5.34,2.89,10.79,3.02,1.8.04,5.04.12,8.97-1.27.93-.33,4.28-1.57,7.71-4.58,2.68-2.33,4.32-4.79,5.28-6.47Z" fill="#acc0d0"/>
  <path d="M48.8,50.12c-.98-.31-2.37-.69-4.06-.97-2.21-.37-3.33-.55-4.77-.24-.75.16-1.8.71-3.89,1.8-2.35,1.22-2.14,1.26-3.31,1.78-1.89.84-2.51.78-4.28,1.61-1.18.55-2.08,1.13-2.63,1.51,1.25.33,2.99.7,5.09.85,1.37.1,3.7.25,6.67-.37,2.54-.52,4.48-1.38,5.65-1.97,1.54-.78,2.75-1.62,3.6-2.29.81-.63,1.46-1.22,1.95-1.7Z" fill="#8ba5be"/>
  <ellipse cx="32.33" cy="29.94" rx="25.07" ry="26.77" fill="none" stroke="#010d2d" stroke-miterlimit="10" stroke-width=".5"/>
  <circle cx="14.76" cy="7.83" r="7.5" fill="#124370"/>
  <text transform="translate(11.19 12.09)" fill="#fff" font-family="CenturyGothic, &apos;Century Gothic&apos;" font-size="12"><tspan x="0" y="0">3</tspan></text>
</svg>