<?xml version="1.0" encoding="UTF-8"?>
<svg id="Layer_1" xmlns="http://www.w3.org/2000/svg" version="1.1" viewBox="0 0 64 64">
  <!-- Generator: Adobe Illustrator 30.4.0, SVG Export Plug-In . SVG Version: 2.1.4 Build 226)  -->
  <line x1="20.53" y1="62.22" x2="44.5" y2="62.22" fill="none" stroke="#ff8156" stroke-miterlimit="10" stroke-width=".5"/>
  <circle cx="32.79" cy="62.22" r=".59" fill="#ff8156" stroke="#ff8156" stroke-miterlimit="10" stroke-width=".5"/>
  <path d="M38.18,24.46c-.29-1-.84-1.67-1.17-2.07-.37-.44-2.14-2.53-5.07-2.53s-4.7,2.09-5.07,2.53c-.34.4-.88,1.07-1.17,2.07-.3,1.04-.31,2.46.59,4.36,1.89,3.96,3.77,7.92,5.66,11.89,1.89-3.96,3.77-7.93,5.66-11.89.9-1.9.89-3.32.59-4.36ZM31.93,29.16c-1.88,0-3.4-1.53-3.4-3.41s1.52-3.4,3.4-3.4,3.4,1.52,3.4,3.4-1.52,3.41-3.4,3.41Z" fill="#123f6f" stroke="#010d2d" stroke-miterlimit="10" stroke-width=".5"/>
  <path d="M7.88,35.74c.46,0,1.14-.01,1.97,0,2.25.05,3.39.09,4.46.51.39.15.93.47,2.01,1.1,1.25.73,1.42.92,2.05,1.17.62.25.84.22,2.56.47,2.02.3,3.03.45,3.51.66.67.29,1.54.81,2.52,1.13.45.15.91.26.91.26.51.12.88.16,1.02.18.47.07,1.18.23,2.19.69h12.06c-.26.17-.51.34-.77.51-.89.32-2.17.75-3.73,1.13-1.83.45-3.21.64-5.48.95-1.45.2-3.35.43-5.59.62-.34-.11-.85-.28-1.46-.47-2.68-.86-5.2-1.62-6.32-1.94-3.53-1-7.51-1.67-10.05-2.05-.41-.7-.85-1.57-1.23-2.61-.31-.85-.5-1.64-.63-2.33Z" fill="#9cb2ca"/>
  <path d="M9.49,41.32c2.11.17,3.81.45,4.95.68,2.74.53,4.85,1.21,8.88,2.52,1.59.52,2.9.97,3.8,1.28h1.21c-1.39.42-2.82.83-4.29,1.22-1.18.32-2.35.62-3.5.9-.11.06-.22.15-.23.27,0,.16.19.34.66.55,1.1.49,4.48,1.52,5.26,1.75,1.28.51,2.28.92,2.89,1.17.12.05.36.17.47.4.13.25-.08.59-.16.73-.5.84-1.93,1.17-2.32,1.26-1.02.24-2.41.5-4.11.66-.87-.35-2.08-.9-3.43-1.72-.73-.44-3.7-2.3-6.54-5.86-1.04-1.31-2.38-3.24-3.53-5.81Z" fill="#8aa4bd"/>
  <path d="M55.24,40.79c-.62-.24-1.55-.53-2.72-.6-1-.05-1.91.08-3.23.44-2.15.59-3.16,1.18-5.77,2.28-1.14.48-2.42,1.03-4.06,1.59-1.95.67-3.42,1.04-6.28,1.74-1.23.3-2.93.7-4.99,1.13h12.84c3.49.05,5.17.14,8.37,0,.83-.04,1.51-.08,1.97-.11.16-.2.39-.5.66-.88.94-1.32,1.55-2.42,2.14-3.51.28-.52.66-1.23,1.07-2.09Z" fill="#8aa4bd"/>
  <path d="M43.13,54.13c-.82-.37-2.02-.9-3.48-1.5-2.89-1.17-4.33-1.76-5.97-2.16-1.67-.4-4.56-.91-6.17-1.08-.55-.06-1.09-.21-1.64-.29,0,0-.74-.11-1.72-.6-.09-.04-.2-.11-.2-.18,0-.17.56-.25,1.75-.47.72-.14-4.98.94,2.01-.4.19-.04,1.2-.23,1.39-.27,7.39.09,14.77.18,22.16.27-.61.75-1.31,1.52-2.12,2.3-2.09,2.02-4.21,3.41-6,4.38Z" fill="#8aa4bd"/>
  <ellipse cx="32.23" cy="30.11" rx="25.09" ry="26.79" fill="none" stroke="#010d2d" stroke-miterlimit="10" stroke-width=".5"/>
  <path d="M40.6,12.35s.55.46,1.27.99c.46.34.69.51.83.58,1.13.59,2.42.2,2.42.24,0,.02-.42.13-1.02.13-.63,0-.7-.1-.97-.03-.74.18-1.13,1.15-1.16,1.14-.02-.01.56-.62.43-1.21-.05-.21-.16-.32-.57-.71-.6-.57-1.22-1.14-1.22-1.14Z" fill="#000f45" stroke="#010d2d" stroke-miterlimit="10" stroke-width=".5"/>
  <path d="M46.43,17.79s.44.31,1.01.66c.37.23.55.34.66.39.88.37,1.83,0,1.83.03,0,.02-.31.12-.76.16-.47.05-.53-.03-.73.04-.55.18-.78.94-.8.93-.02,0,.38-.5.24-.93-.05-.15-.14-.23-.47-.49-.49-.39-.99-.78-.98-.78Z" fill="#000f45" stroke="#010d2d" stroke-miterlimit="10" stroke-width=".5"/>
  <path d="M44.98,21.94s.44.31,1.01.66c.37.23.55.34.66.39.88.37,1.83,0,1.83.03,0,.02-.31.12-.76.16-.47.05-.53-.03-.73.04-.55.18-.78.94-.8.93-.02,0,.38-.5.24-.93-.05-.15-.14-.23-.47-.49-.49-.39-.99-.78-.98-.78Z" fill="#000f45" stroke="#010d2d" stroke-miterlimit="10" stroke-width=".5"/>
  <g>
    <ellipse cx="14.8" cy="7.83" rx="7.48" ry="7.5" fill="#124370"/>
    <text transform="translate(11.25 12.09)" fill="#fff" font-family="CenturyGothic, &apos;Century Gothic&apos;" font-size="12"><tspan x="0" y="0">1</tspan></text>
  </g>
</svg>