<?xml version="1.0" encoding="UTF-8"?>
<svg id="Layer_1" xmlns="http://www.w3.org/2000/svg" version="1.1" viewBox="0 0 200 130">
  <style>
    .leaf {
      transform-box: fill-box;
      animation: leaf-flutter 5s ease-in-out infinite;
    }
    #leaf-1 { transform-origin: 100% 100%; animation-delay: 0.2s; }
    #leaf-2 { transform-origin: 0% 100%;   animation-delay: 0.1s; }
    #leaf-3 { transform-origin: 50% 100%;  animation-delay: 0s;   }
    #leaf-4 { transform-origin: 100% 100%; animation-delay: 0.4s; }
    #leaf-5 { transform-origin: 0% 100%;   animation-delay: 0.3s; }
    #leaf-6 { transform-origin: 0% 100%;   animation-delay: 0.5s; }
    #leaf-7 { transform-origin: 100% 100%; animation-delay: 0.6s; }
    @keyframes leaf-flutter {
      0%,100% { transform: rotate(0deg); }
      5%      { transform: rotate(15deg); }
      10%     { transform: rotate(-10deg); }
      15%     { transform: rotate(6deg); }
      20%     { transform: rotate(0deg); }
    }
  </style>
  <ellipse cx="75.56" cy="65.58" rx="48.62" ry="47.97" fill="#f7eadf"/>
  <path d="M20.26,122.58c8.64,2.82,15.62.46,23.22-.62,3.96-.57,3.98-.2,28.8,1.87,37.02,3.09,42.62,2.75,49.21,0,8.98-3.75,14.87-9.9,18.12-13.9-19.71-9.39-36.9-12.65-48.12-13.9-15.34-1.72-24.68-2.77-35.93,1.41-8.57,3.18-12.73,7.34-27.18,13.29-7.51,3.09-13.89,5.06-18.12,6.24,2.13,1.79,5.48,4.15,10,5.62Z" fill="#8ba5be"/>
  <path d="M60.4,122.81c5.92-5.31,14.98-12.35,27.34-18.19,19.71-9.33,36.74-10.4,40.31-10.59,26.12-1.4,46.44,8.14,56.24,13.67v14.26c-29.69,3.58-62.82,5.15-98.73,2.97-8.61-.52-16.99-1.24-25.15-2.11Z" fill="#95b0c6"/>
  <path d="M184.29,120.78c1.62-13.87-2.19-19.9-5.16-22.73-9.64-9.2-29.22-3.05-59.28,6.83-18.69,6.14-34.65,12.85-47.58,18.94,18.35,2.8,33.33,2.87,43.74,2.34,5.77-.29,13.11-.66,22.81-2.34,10.36-1.8,13.35-3.36,21.09-4.22,5.63-.62,13.92-.9,24.37,1.17Z" fill="#acc0d0"/>
  <g id="leaf-3" class="leaf">
    <path d="M24.39,26.89c-.44.86-3.15,6.4-.67,12.61,1.88,4.7,5.59,6.95,6.75,7.6.51-1.38,1.96-5.82.35-11.16-1.61-5.3-5.24-8.18-6.43-9.05Z" fill="#d1dae2" stroke="#123f6f" stroke-miterlimit="10" stroke-width=".5"/>
  </g>
  <g id="leaf-2" class="leaf">
    <path d="M45.74,36.69c-.89.39-6.48,2.97-8.49,9.35-1.52,4.83-.06,8.92.43,10.16,1.27-.74,5.2-3.26,7.32-8.43,2.11-5.13,1.11-9.65.74-11.08Z" fill="#d1dae2" stroke="#123f6f" stroke-miterlimit="10" stroke-width=".5"/>
    <line x1="40.36" y1="49.06" x2="35.24" y2="62.67" fill="none" stroke="#123f6f" stroke-miterlimit="10" stroke-width=".5"/>
  </g>
  <g id="leaf-1" class="leaf">
    <path d="M12.29,48.65c.23.94,1.8,6.9,7.73,9.98,4.49,2.33,8.78,1.61,10.08,1.34-.51-1.38-2.31-5.69-7.03-8.67-4.68-2.96-9.31-2.77-10.78-2.65Z" fill="#d1dae2" stroke="#123f6f" stroke-miterlimit="10" stroke-width=".5"/>
    <line x1="23.54" y1="56.08" x2="35.15" y2="62.96" fill="none" stroke="#123f6f" stroke-miterlimit="10" stroke-width=".5"/>
  </g>
  <g id="leaf-5" class="leaf">
    <path d="M47.03,58.16c-.69.28-5.08,2.12-6.79,6.99-1.3,3.69-.28,6.88.07,7.85,1-.54,4.09-2.38,5.87-6.31,1.76-3.9,1.11-7.41.86-8.52Z" fill="#d1dae2" stroke="#123f6f" stroke-miterlimit="10" stroke-width=".5"/>
    <line x1="42.57" y1="67.56" x2="38.61" y2="77.08" fill="none" stroke="#123f6f" stroke-miterlimit="10" stroke-width=".5"/>
  </g>
  <g id="leaf-4" class="leaf">
    <path d="M20.26,68.29c.18.73,1.39,5.33,5.97,7.71,3.47,1.8,6.77,1.24,7.78,1.03-.4-1.06-1.79-4.39-5.43-6.69-3.61-2.29-7.19-2.14-8.32-2.05Z" fill="#d1dae2" stroke="#123f6f" stroke-miterlimit="10" stroke-width=".5"/>
    <line x1="28.94" y1="74.03" x2="39.23" y2="80.12" fill="none" stroke="#123f6f" stroke-miterlimit="10" stroke-width=".5"/>
  </g>
  <g id="leaf-6" class="leaf">
    <path d="M48.4,74.46c-.57.23-4.2,1.75-5.61,5.78-1.07,3.05-.23,5.69.06,6.48.82-.45,3.38-1.97,4.85-5.22,1.45-3.22.92-6.13.71-7.04Z" fill="#d1dae2" stroke="#123f6f" stroke-miterlimit="10" stroke-width=".5"/>
    <line x1="44.71" y1="82.23" x2="41.98" y2="88.8" fill="none" stroke="#123f6f" stroke-miterlimit="10" stroke-width=".5"/>
  </g>
  <g id="leaf-7" class="leaf">
    <path d="M29.37,85.5c.23.57,1.75,4.2,5.78,5.61,3.05,1.07,5.69.23,6.48-.06-.45-.82-1.97-3.38-5.22-4.85-3.22-1.45-6.13-.92-7.04-.71Z" fill="#d1dae2" stroke="#123f6f" stroke-miterlimit="10" stroke-width=".5"/>
    <line x1="37.14" y1="89.19" x2="42.57" y2="91.45" fill="#d1dae2" stroke="#123f6f" stroke-miterlimit="10" stroke-width=".5"/>
  </g>
  <path d="M28.94,42.05c.64,1.84,1.54,4.47,2.53,7.66,1.31,4.21,2.46,8.35,4.03,14.65,2.23,8.92,2.4,10.56,3.52,14.94,1.32,5.19,3.51,12.45,7.28,21.09" fill="none" stroke="#123f6f" stroke-miterlimit="10" stroke-width=".5"/>
  <path d="M57.44,64c-.8,1.49-.78,3.02.16,7.34,1.33,6.18,2.99,10.96,5.47,14.22.47.61,1.13,1.39,2.19,2.03,1.74,1.05,3.49,1.07,4.69,1.09,2.92.05,5.83.37,8.75.37,7.1,0,7.75,0,9.22-.26,2.85-.51,5.16-.95,6.78-2.93,1.42-1.73,1.59-3.71,1.65-4.53.23-2.83-.78-6.59-3.44-7.97-.49-.25-1.42-.38-3.28-.62-4.26-.57-4.79-.12-6.25-.78-.94-.42-.79-.64-3.75-3.59-1.48-1.48-2.81-2.8-4.37-4.06-2.07-1.67-3.35-2.7-5.31-3.44-.89-.33-5.19-1.94-9.22.16-.76.39-2.35,1.22-3.28,2.97Z" fill="#fff" stroke="#010d2d" stroke-miterlimit="10" stroke-width="1.48"/>
  <ellipse cx="83.18" cy="84.85" rx="10.9" ry="2.73" fill="#d4e8f4"/>
  <path d="M58.66,72.9c.59,2.66,1.68,6.74,3.54,10.47.48.96,1.09,2.06,2.27,3.05,1.34,1.13,2.83,1.61,4.61,1.95,3,.59,4.93.43,8.36.39,5.22-.06,6.82.24,10.86-.24,2.43-.29,4.56-.82,5.79-2.57.5-.71.71-1.42.81-1.92-.51.47-1.32,1.11-2.44,1.61-1.57.7-2.77.75-5.72.62-3.05-.13-6.42-.32-10.11-.62-.58-.05-1.52-.28-2.62-.78-1.08-.49-1.79-1.06-2.1-1.3-2.41-1.9-4.93-3.67-7.27-5.65-1.29-1.09-3.33-2.81-5.97-5Z" fill="#acc0d0"/>
  <line x1="65.25" y1="87.58" x2="60.4" y2="98.05" fill="none" stroke="#010d2d" stroke-miterlimit="10" stroke-width="1.48"/>
  <line x1="75.87" y1="89.05" x2="75.56" y2="94.93" fill="none" stroke="#010d2d" stroke-miterlimit="10" stroke-width="1.48"/>
  <line x1="78.68" y1="89.05" x2="78.68" y2="98.99" fill="none" stroke="#010d2d" stroke-miterlimit="10" stroke-width="1.48"/>
  <line x1="92.45" y1="87.58" x2="95.71" y2="98.99" fill="none" stroke="#010d2d" stroke-miterlimit="10" stroke-width="1.48"/>
  <path d="M164.01,60.63c.95,1.4,1.09,2.92.63,7.32-.66,6.29-1.8,11.22-3.92,14.72-.4.66-.98,1.51-1.96,2.25-1.62,1.23-3.35,1.44-4.54,1.59-2.9.37-5.76.99-8.66,1.3-7.06.76-7.71.83-9.19.73-2.89-.2-5.23-.39-7.06-2.18-1.6-1.57-1.97-3.52-2.13-4.33-.53-2.79.07-6.64,2.57-8.29.46-.31,1.37-.53,3.19-.97,4.18-1.02,4.75-.64,6.13-1.44.89-.52.71-.72,3.34-3.97,1.31-1.63,2.49-3.08,3.91-4.51,1.88-1.88,3.05-3.05,4.91-3.99.85-.42,4.95-2.49,9.18-.83.8.31,2.46.96,3.58,2.6Z" fill="#fff" stroke="#010d2d" stroke-miterlimit="10" stroke-width="1.48"/>
  <ellipse cx="140.65" cy="84.11" rx="10.9" ry="2.73" transform="translate(-8.19 15.53) rotate(-6.14)" fill="#d4e8f4"/>
  <path d="M163.75,69.61c-.3,2.71-.95,6.88-2.4,10.79-.37,1.01-.87,2.17-1.93,3.27-1.22,1.27-2.64,1.9-4.37,2.43-2.92.9-4.85.95-8.27,1.28-5.19.5-6.76.97-10.82.92-2.44-.03-4.62-.33-6.03-1.93-.57-.65-.86-1.34-1.01-1.83.56.41,1.43.97,2.6,1.34,1.63.52,2.84.45,5.76,0,3.02-.45,6.35-1.01,9.99-1.7.57-.11,1.48-.44,2.52-1.06,1.02-.6,1.67-1.24,1.95-1.52,2.2-2.15,4.51-4.18,6.63-6.4,1.16-1.22,3.01-3.15,5.4-5.61Z" fill="#acc0d0"/>
  <line x1="158.77" y1="84.91" x2="164.7" y2="94.8" fill="none" stroke="#010d2d" stroke-miterlimit="10" stroke-width="1.48"/>
  <line x1="145.57" y1="87.81" x2="146.63" y2="97.69" fill="none" stroke="#010d2d" stroke-miterlimit="10" stroke-width="1.48"/>
  <line x1="131.72" y1="87.82" x2="129.7" y2="99.51" fill="none" stroke="#010d2d" stroke-miterlimit="10" stroke-width="1.48"/>
</svg>
