<?xml version="1.0" encoding="UTF-8"?>
<svg id="Layer_1" xmlns="http://www.w3.org/2000/svg" version="1.1" viewBox="0 0 50 50">
  <!-- Generator: Adobe Illustrator 30.4.0, SVG Export Plug-In . SVG Version: 2.1.4 Build 226)  -->
  <path d="M3.87,42c4.63-1.92,11.92-4.3,21.13-4.77,8.82-.45,16.03,1.03,20.74,2.38" fill="none" stroke="#ff8156" stroke-linecap="round" stroke-miterlimit="10" stroke-width="1.6"/>
  <path d="M6.51,16.21c.29-.23,2.26-1.76,4.98-1.28,2.66.48,3.97,2.52,4.17,2.84.11-.25,1.15-2.39,3.62-2.93,2.75-.6,4.73,1.34,4.85,1.47" fill="none" stroke="#010d2d" stroke-linecap="round" stroke-miterlimit="10" stroke-width="1.6"/>
  <path d="M25,26.49c.29-.23,2.26-1.76,4.98-1.28,2.66.48,3.97,2.52,4.17,2.84.11-.25,1.15-2.39,3.62-2.93,2.75-.6,4.73,1.34,4.85,1.47" fill="none" stroke="#010d2d" stroke-linecap="round" stroke-miterlimit="10" stroke-width="1.6"/>
  <path d="M28.12,8.81c.21-.12,1.64-.91,3.35-.31,1.67.59,2.3,2.04,2.4,2.27.1-.15.99-1.43,2.64-1.52,1.84-.1,2.92,1.36,2.98,1.45" fill="none" stroke="#010d2d" stroke-linecap="round" stroke-miterlimit="10" stroke-width="1.05"/>
</svg>