<?xml version="1.0" encoding="UTF-8"?>
<svg id="Layer_1" xmlns="http://www.w3.org/2000/svg" version="1.1" viewBox="0 0 50 50">
  <!-- Generator: Adobe Illustrator 30.4.0, SVG Export Plug-In . SVG Version: 2.1.4 Build 226)  -->
  <path d="M13.26,30.25c.77-2.61,1.54-5.22,2.32-7.83-.77-2.44-1.54-4.88-2.32-7.32,7.83-1.3,15.66-2.61,23.49-3.91-2.89,7.49-5.79,14.98-8.68,22.47-2.44-.96-4.88-1.93-7.32-2.89-2.5-.17-4.99-.34-7.49-.51Z" fill="#fff" stroke="#010d2d" stroke-miterlimit="10"/>
  <line x1="13.26" y1="15.1" x2="28.06" y2="33.66" fill="#fff" stroke="#010d2d" stroke-miterlimit="10"/>
  <line x1="36.74" y1="11.19" x2="13.26" y2="30.25" fill="#fff" stroke="#010d2d" stroke-miterlimit="10"/>
  <path d="M9.9,34.34c-.36.07-6.03,1.31-6.98,5.28-.05.22-.62,2.76.85,4.43,4.34,4.9,20.53-4.53,27.91-2.55.45.12,2.28.69,4.26,0,.55-.19,2.26-.79,3.23-2.55.1-.18,1.5-2.81,0-5.11-.11-.17-1.59-2.36-3.91-2.04-1.5.21-2.64,1.36-3.06,2.55-.75,2.1.77,4.14,1.37,4.94,2.99,4.01,8.54,3.76,8.85,3.74,1.56-.1,2.8-.52,3.57-.85" fill="#fff" stroke="#ff8156" stroke-dasharray=".5 2.5" stroke-linecap="round" stroke-miterlimit="10" stroke-width="1.6"/>
</svg>