<?xml version="1.0" encoding="UTF-8"?>
<svg xmlns="http://www.w3.org/2000/svg" viewBox="0 0 50 50">
  <path d="M27.5,21.5h13.2c1.9,0,3.4,1.5,3.4,3.4v8.6c0,1.9-1.5,3.4-3.4,3.4h-1.4v4.6l-5.2-4.6h-6.6" fill="#8ba5be" stroke="#8ba5be" stroke-linejoin="round" stroke-width="2.5"/>
  <path d="M9.3,9.5h19.6c2.3,0,4.1,1.8,4.1,4.1v10.3c0,2.3-1.8,4.1-4.1,4.1h-9.6l-7,5.9v-5.9h-3c-2.3,0-4.1-1.8-4.1-4.1v-10.3c0-2.3,1.8-4.1,4.1-4.1Z" fill="none" stroke="#010d2d" stroke-linejoin="round" stroke-width="2.5"/>
  <path d="M12.6,18.8c1.9,1.8,4.1,2.7,6.5,2.7s4.6-.9,6.5-2.7" fill="none" stroke="#ff8156" stroke-linecap="round" stroke-width="2.5"/>
</svg>
