<?xml version="1.0" encoding="UTF-8"?>
<svg id="Layer_1" xmlns="http://www.w3.org/2000/svg" version="1.1" viewBox="0 0 50 50">
  <!-- Generator: Adobe Illustrator 30.4.0, SVG Export Plug-In . SVG Version: 2.1.4 Build 226)  -->
  <path d="M29.96,34.43c1.3-.75,3.65-1.86,6.77-2.04,5.26-.31,9.05,2.25,10.21,3.11" fill="none" stroke="#ff8156" stroke-linecap="round" stroke-miterlimit="10"/>
  <path d="M19.52,28.67c-1.73-.23-3.08-.07-3.6.01-2.6.39-5.19,1.64-5.07,2.17.06.26.73.19,3.03.38,2.73.22,4.1.33,4.98.68,1.71.7,1.44,1.3,4.13,2.68.79.41,1.92.92,3.36.89.4,0,1.63-.03,1.83-.6.14-.4-.29-.89-.9-1.53-1.9-1.99-2.84-2.98-3.85-3.52-1.59-.85-3-1.05-3.9-1.17Z" fill="#8ba5be"/>
  <path d="M6,35.87c.41-.82,3.29-6.3,9.19-7.4,4.5-.84,8.35,1.32,9.81,2.3,3.6,2.41,3.61,4.92,6.79,6.38,2.89,1.34,6.03.7,8.17,0" fill="none" stroke="#010d2d" stroke-linecap="round" stroke-miterlimit="10" stroke-width="1.6"/>
  <circle cx="24.09" cy="18.04" r="6.17" fill="none" stroke="#010d2d" stroke-miterlimit="10" stroke-width="1.6"/>
</svg>