<?xml version="1.0" encoding="UTF-8"?>
<svg id="Layer_1" xmlns="http://www.w3.org/2000/svg" version="1.1" xmlns:xlink="http://www.w3.org/1999/xlink" viewBox="0 0 708 175">
  <!-- Generator: Adobe Illustrator 30.1.0, SVG Export Plug-In . SVG Version: 2.1.1 Build 136)  -->
  <defs>
    <radialGradient id="radial-gradient" cx="315.89" cy="84.56" fx="315.89" fy="84.56" r="51.63" gradientUnits="userSpaceOnUse">
      <stop offset="0" stop-color="#f6ff9e"/>
      <stop offset="1" stop-color="#fff" stop-opacity="0"/>
    </radialGradient>
    <radialGradient id="radial-gradient1" cx="315.89" cy="84.56" fx="315.89" fy="84.56" r="34.3" gradientUnits="userSpaceOnUse">
      <stop offset=".41" stop-color="#fafafa"/>
      <stop offset=".52" stop-color="#f3f3f3"/>
      <stop offset=".67" stop-color="#e0e0e0"/>
      <stop offset=".85" stop-color="#c2c2c2"/>
      <stop offset="1" stop-color="#a5a4a4"/>
    </radialGradient>
    <radialGradient id="radial-gradient2" cx="259.13" cy="176.04" fx="259.13" fy="176.04" r="8.39" gradientTransform="translate(142.7 -36.62) scale(.72)" gradientUnits="userSpaceOnUse">
      <stop offset=".06" stop-color="#a5a4a4" stop-opacity=".7"/>
      <stop offset="1" stop-color="#fafafa" stop-opacity="0"/>
    </radialGradient>
    <radialGradient id="radial-gradient3" cx="225.88" cy="204.85" fx="225.88" fy="204.85" r="5.93" xlink:href="#radial-gradient2"/>
    <radialGradient id="radial-gradient4" cx="340.31" cy="84.56" fx="340.31" fy="84.56" r="8.39" gradientTransform="matrix(1,0,0,1,0,0)" xlink:href="#radial-gradient2"/>
    <radialGradient id="radial-gradient5" cx="325.31" cy="65.03" fx="325.31" fy="65.03" r="10.76" gradientTransform="matrix(1,0,0,1,0,0)" xlink:href="#radial-gradient2"/>
    <radialGradient id="radial-gradient6" cx="323.94" cy="104.09" fx="323.94" fy="104.09" r="10.76" gradientTransform="matrix(1,0,0,1,0,0)" xlink:href="#radial-gradient2"/>
  </defs>
  <g>
    <path d="M7.8,14.33c4.52-.27,8.81-.48,12.87-.65,4.06-.16,8.11-.24,12.14-.24,8.17,0,15.42.7,21.74,2.1,6.32,1.4,11.62,3.43,15.89,6.09s7.53,5.89,9.76,9.68c2.23,3.79,3.35,8.05,3.35,12.79,0,3.28-.52,6.27-1.57,8.95-1.05,2.69-2.46,5.07-4.23,7.14-1.77,2.07-3.85,3.86-6.21,5.36-2.37,1.51-4.84,2.72-7.42,3.63,3.39.65,6.56,1.71,9.52,3.19,2.96,1.48,5.55,3.34,7.78,5.57,2.23,2.23,3.99,4.79,5.28,7.66,1.29,2.88,1.94,6.06,1.94,9.56,0,5.49-1.25,10.37-3.75,14.64s-6.2,7.91-11.09,10.89c-4.89,2.98-10.94,5.24-18.15,6.78-7.21,1.53-15.49,2.3-24.85,2.3-3.98,0-7.88-.09-11.7-.28-3.82-.19-7.58-.36-11.29-.52V14.33ZM29.34,62.25h7.32c3.86,0,7.28-.36,10.26-1.09,2.98-.73,5.5-1.77,7.56-3.15,2.06-1.37,3.63-3.05,4.71-5.04,1.07-1.99,1.61-4.22,1.61-6.7,0-2.26-.56-4.32-1.69-6.17s-2.75-3.43-4.87-4.72c-2.12-1.29-4.72-2.27-7.81-2.94-3.08-.67-6.61-1.01-10.58-1.01h-6.52v30.82ZM29.34,111.62c1.34.11,2.67.16,3.98.16h3.9c4.51,0,8.54-.38,12.11-1.13,3.57-.75,6.57-1.84,9.02-3.27,2.44-1.42,4.31-3.17,5.59-5.24,1.29-2.07,1.93-4.42,1.93-7.06,0-2.42-.63-4.6-1.89-6.53-1.26-1.94-3.07-3.56-5.43-4.88-2.36-1.32-5.27-2.33-8.73-3.02-3.46-.7-7.39-1.05-11.79-1.05h-8.69v32.03Z" fill="#6abec4"/>
    <path d="M177.53,121.87c-4.41,2.85-9.22,5.03-14.44,6.53-5.22,1.5-10.84,2.26-16.86,2.26-6.67,0-12.64-.96-17.91-2.86-5.27-1.91-9.75-4.68-13.43-8.31-3.68-3.63-6.51-8.07-8.47-13.31-1.96-5.24-2.94-11.15-2.94-17.71s.93-12.67,2.78-17.99,4.48-9.9,7.87-13.71c3.39-3.82,7.46-6.75,12.22-8.79,4.76-2.04,9.99-3.07,15.69-3.07,5.22,0,9.95.88,14.2,2.62,4.25,1.75,7.87,4.3,10.85,7.66,2.98,3.36,5.28,7.46,6.9,12.3,1.61,4.84,2.42,10.38,2.42,16.62,0,1.56-.04,3.03-.12,4.4s-.23,2.76-.44,4.15h-50.82v.16c.32,3.17,1.09,6.01,2.3,8.51,1.21,2.5,2.81,4.61,4.79,6.33,1.99,1.72,4.39,3.05,7.21,3.99,2.82.94,6.03,1.41,9.63,1.41,4.62,0,8.9-.67,12.85-2.02,3.95-1.34,7.75-3.31,11.4-5.89l4.35,16.7ZM155.67,77.82c-.05-2.47-.42-4.71-1.09-6.7-.67-1.99-1.61-3.7-2.82-5.12-1.21-1.42-2.68-2.51-4.43-3.27-1.74-.75-3.69-1.13-5.83-1.13s-4.01.35-5.75,1.05c-1.74.7-3.3,1.75-4.67,3.15-1.37,1.4-2.54,3.11-3.5,5.12-.97,2.02-1.69,4.32-2.17,6.9h30.25Z" fill="#6abec4"/>
    <path d="M268.37,46.6c-1.45,6.67-3.1,13.57-4.93,20.69-1.83,7.13-3.84,14.2-6.02,21.22s-4.54,13.88-7.07,20.57c-2.53,6.7-5.2,12.95-7.99,18.76-3.06,6.56-6.36,12.4-9.88,17.5-3.52,5.11-7.28,9.41-11.29,12.91-4.01,3.5-8.21,6.16-12.62,7.99-4.41,1.83-9,2.74-13.79,2.74-2.85,0-5.58-.34-8.19-1.01-2.61-.67-4.85-1.6-6.73-2.78l2.42-17.75c1.72,1.18,3.56,2.06,5.52,2.62,1.96.56,3.91.85,5.84.85,2.36,0,4.66-.46,6.89-1.37,2.23-.92,4.35-2.21,6.37-3.87,2.02-1.67,3.9-3.7,5.64-6.09,1.75-2.39,3.34-5.07,4.8-8.03-3.65-8.23-6.99-16.07-9.99-23.51-3.01-7.45-5.74-14.64-8.18-21.58-2.45-6.94-4.63-13.69-6.57-20.25-1.94-6.56-3.65-13.09-5.16-19.6h22.1c1.07,5.11,2.33,10.3,3.78,15.57,1.45,5.27,3.05,10.53,4.79,15.77,1.74,5.24,3.57,10.49,5.47,15.73,1.91,5.24,3.9,10.39,6,15.45,2.04-5.49,3.9-10.9,5.59-16.25s3.23-10.63,4.63-15.85c1.39-5.22,2.67-10.35,3.82-15.41,1.15-5.05,2.21-10.06,3.18-15h21.54Z" fill="#6abec4"/>
    <path d="M370.9,46.6h16.92l1.13,7.91c3.12-2.96,6.69-5.3,10.72-7.02,4.03-1.72,8.54-2.58,13.54-2.58,4.4,0,8.53.7,12.37,2.1,3.84,1.4,7.2,3.51,10.07,6.33,2.87,2.82,5.14,6.39,6.81,10.69,1.67,4.3,2.5,9.36,2.5,15.17v49.77h-21.54v-47.27c0-3.5-.42-6.45-1.25-8.87-.83-2.42-1.97-4.38-3.42-5.89-1.45-1.5-3.11-2.61-4.99-3.31-1.88-.7-3.83-1.05-5.87-1.05-2.84,0-5.59.66-8.25,1.98-2.66,1.32-5.06,3.19-7.2,5.61v58.81h-21.54V46.6Z" fill="#6abec4"/>
    <path d="M524.5,128.96l-1.21-8.31c-3.5,3.44-7.35,5.97-11.58,7.58-4.22,1.61-8.78,2.42-13.67,2.42s-9.8-.97-14.08-2.9c-4.28-1.94-7.95-4.65-11.01-8.15s-5.43-7.72-7.1-12.67c-1.67-4.95-2.5-10.41-2.5-16.38,0-6.88,1.14-13.15,3.43-18.8,2.29-5.65,5.65-10.46,10.08-14.44,4.44-3.98,9.89-7.04,16.38-9.2,6.48-2.15,13.92-3.23,22.31-3.23h4.28V8.44l21.54-2.42v122.94h-16.86ZM519.82,63.14h-6.21c-4.84,0-9.03.65-12.58,1.94-3.55,1.29-6.51,3.09-8.87,5.41-2.37,2.31-4.11,5.1-5.24,8.35-1.13,3.25-1.69,6.87-1.69,10.85,0,3.5.42,6.68,1.25,9.56s2.04,5.32,3.63,7.34c1.58,2.02,3.51,3.58,5.77,4.68,2.26,1.1,4.81,1.65,7.66,1.65,3.17,0,6.14-.69,8.91-2.06,2.77-1.37,5.23-3.24,7.38-5.61v-42.11Z" fill="#6abec4"/>
    <path d="M634.77,121.87c-4.41,2.85-9.22,5.03-14.44,6.53-5.22,1.5-10.84,2.26-16.86,2.26-6.67,0-12.64-.96-17.91-2.86s-9.75-4.68-13.43-8.31c-3.68-3.63-6.51-8.07-8.47-13.31-1.96-5.24-2.94-11.15-2.94-17.71s.93-12.67,2.78-17.99c1.85-5.32,4.48-9.9,7.87-13.71,3.39-3.82,7.46-6.75,12.22-8.79,4.76-2.04,9.99-3.07,15.69-3.07,5.22,0,9.95.88,14.2,2.62,4.25,1.75,7.87,4.3,10.85,7.66,2.98,3.36,5.28,7.46,6.9,12.3s2.42,10.38,2.42,16.62c0,1.56-.04,3.03-.12,4.4s-.23,2.76-.44,4.15h-50.82v.16c.32,3.17,1.09,6.01,2.29,8.51,1.21,2.5,2.81,4.61,4.79,6.33,1.99,1.72,4.39,3.05,7.21,3.99,2.82.94,6.03,1.41,9.63,1.41,4.62,0,8.9-.67,12.85-2.02,3.95-1.34,7.75-3.31,11.4-5.89l4.35,16.7ZM612.91,77.82c-.05-2.47-.42-4.71-1.09-6.7-.67-1.99-1.61-3.7-2.82-5.12-1.21-1.42-2.68-2.51-4.43-3.27-1.74-.75-3.69-1.13-5.83-1.13s-4.01.35-5.75,1.05c-1.74.7-3.3,1.75-4.67,3.15-1.37,1.4-2.54,3.11-3.5,5.12-.96,2.02-1.69,4.32-2.17,6.9h30.25Z" fill="#6abec4"/>
    <path d="M654.54,46.6h16.92l1.54,10.16c1.45-1.94,2.91-3.64,4.38-5.12,1.47-1.48,2.99-2.73,4.55-3.75,1.56-1.02,3.18-1.77,4.87-2.26,1.69-.48,3.47-.73,5.35-.73,1.56,0,2.99.15,4.31.44,1.31.3,2.56.74,3.74,1.33l-1.69,18.96c-1.18-.59-2.37-1.04-3.58-1.33-1.21-.29-2.42-.44-3.66-.44s-2.47.18-3.7.52c-1.23.35-2.48.92-3.74,1.69-1.26.78-2.53,1.8-3.82,3.07-1.29,1.26-2.6,2.86-3.94,4.8v55.02h-21.54V46.6Z" fill="#6abec4"/>
  </g>
  <g>
    <circle cx="315.89" cy="84.56" r="51.63" fill="url(#radial-gradient)"/>
    <circle cx="315.89" cy="84.56" r="34.3" fill="url(#radial-gradient1)"/>
    <circle cx="330" cy="90.63" r="6.07" fill="url(#radial-gradient2)" opacity=".4"/>
    <circle cx="305.97" cy="111.45" r="4.29" fill="url(#radial-gradient3)" opacity=".4"/>
    <circle cx="340.31" cy="84.56" r="8.39" fill="url(#radial-gradient4)" opacity=".51"/>
    <circle cx="325.31" cy="65.03" r="10.76" fill="url(#radial-gradient5)" opacity=".61"/>
    <circle cx="323.94" cy="104.09" r="10.76" fill="url(#radial-gradient6)" opacity=".5"/>
    <circle cx="315.89" cy="84.56" r="34.3" fill="none" stroke="#fff" stroke-miterlimit="10" stroke-width=".26"/>
  </g>
</svg>