<?xml version="1.0" encoding="UTF-8"?>
<svg xmlns="http://www.w3.org/2000/svg" version="1.1" viewBox="0 0 1375.66 418.21">
  <!-- Generator: Adobe Illustrator 30.4.0, SVG Export Plug-In . SVG Version: 2.1.4 Build 226)  -->
  <g id="Layer_1">
    <circle cx="874.47" cy="184.82" r="55.66" fill="#fcc9b9"/>
    <text transform="translate(180.91 384.41)" fill="#061c4c" font-family="ArialMT, Arial" font-size="18"><tspan x="0" y="0">Find local</tspan><tspan x="8.5" y="21.6">support</tspan></text>
    <circle cx="165.94" cy="390.12" r="5.71" fill="#ff8156"/>
    <text transform="translate(452.59 384.41)" fill="#061c4c" font-family="ArialMT, Arial" font-size="18"><tspan x="0" y="0">Connect &amp; meet</tspan><tspan x="8.5" y="21.6">up with others</tspan></text>
    <circle cx="437.11" cy="390.12" r="5.71" fill="#ff8156"/>
    <circle cx="744.68" cy="390.12" r="5.71" fill="#ff8156"/>
    <circle cx="1071.41" cy="390.12" r="5.71" fill="#ff8156"/>
    <text transform="translate(769.09 384.41)" fill="#061c4c" font-family="ArialMT, Arial" font-size="18"><tspan x="0" y="0">Access resources &amp;</tspan><tspan x="-10.52" y="21.6">support your wellbeing</tspan></text>
    <text transform="translate(1084.8877 384.4134)" fill="#061c4c" font-family="ArialMT, Arial" font-size="18"><tspan x="0" y="0">Navigate your journey </tspan><tspan x="28.01" y="21.6">with confidence</tspan></text>
  </g>
  <g id="Layer_2">
    <path d="M529.87,313.87c2.29-2.45,4.11-5.12,3.74-8-.19-1.48-1.16-4.64-12.94-10.38-7.6-3.7-10.29-3.9-18.72-7.49-8.66-3.69-15.99-6.82-15.66-9.53.31-2.54,7.07-2.42,17.36-5.79,8.29-2.71,24.76-9.61,24.35-15.46-.42-6.05-18.79-9.36-22.99-10.07-6.25-1.54-12.31-3.57-12.26-5.79.11-4.22,22.21-5.23,22.47-9.53.12-2.08-4.84-5.01-23.49-9.19,7.34-6.99,18.09-16.2,32.34-25.19,13.2-8.32,23.63-14.9,39.15-18.73,21.75-5.37,39.94-1.99,50.04,0,16.47,3.25,29.58,9.27,33.7,11.24,14.7,7.03,18.39,11.93,30.64,16.34,12.24,4.41,26.08,4.25,31.66,4.47,5.42.22,9.98.13,13.28,0,10.69-2.54,26.65-6.44,45.96-11.62,32.45-8.71,39.9-11.8,48-13.28,20.37-3.73,51.39,1.48,97.02,42.89,22.77-13.53,42.81-24.77,59.23-33.7,11.79-6.41,19.59-10.48,30.64-11.23,18.95-1.3,34.43,8.02,42.89,14.3,8.4,6.93,16.01,10.59,21.45,12.64,9.33,3.53,16.46,3.96,19.4,9.82,1.52,3.03,1.82,7.29,0,10.48-3.03,5.32-9.76,3.85-22.47,6.88-18.36,4.38-20.39,11.3-34.72,11.23-5.77-.03-7.16-1.16-11.23,0-10.68,3.04-15.9,15.03-17.36,18.38-10.85,24.92,14.99,57.57,16.34,59.23-303.14,2.46-515.71,3.37-515.74,1.02,0-.66,16.94-2.22,27.91-13.96Z" fill="#d3ddea"/>
    <path d="M1126.98,231.08c-3.89-8.88-8.65-14.32-12.26-17.63-6.74-6.19-17.36-12.26-17.36-12.26h0s-2.04-9.01,0-14.3c.93-2.41,3.29-5.53,19.4-10.46,13.6-4.16,20.4-6.24,27.57-5.89,2.56.12,11.39.76,28.6,10.21,12.85,7.05,20.03,13.34,28.6,20.03,31.1,24.28,50.56,30.51,49.02,35.12-1.33,3.99-16.81,1.81-33.7,0-22.22-2.38-52.66-4.73-89.87-4.84Z" fill="#d3ddea"/>
    <path d="M454.64,241.36c-9.47-4.43-21.73-10.12-36.09-16.68-35.26-16.11-30.8-13.52-47.66-21.45-30.51-14.34-32.61-16.94-44.94-19.74-4.84-1.1-19.49-4.1-38.47-2.38-17.41,1.58-29.69,6.33-37.79,9.53-11.22,4.44-18.48,7.31-18.38,10.89.24,8.71,43.82,10.21,44.6,19.74.77,9.56-42.4,15.55-42.55,27.23-.19,14.34,64.73,18.26,67.28,36.95,1.23,8.98-11.75,22.73-67.28,44.41,63-8.83,126-17.66,188.99-26.49,10.76-20.68,21.52-41.35,32.28-62.03Z" fill="#d3ddea"/>
    <path d="M225.87,196.09c-11.2-3.99-21.2-6.36-29.28-7.83-11.37-2.07-23.32-4.23-38.13-2.38-9.42,1.18-18.17,3.75-28.26,8.17-39.72,17.4-84.81,56.62-79.32,65.7,1.3,2.15,4.02.29,20.77,0,21.91-.37,37.29-2.08,53.11.68,14.66,2.56,14.12,5.47,28.6,8.51,19.12,4.01,35.73,2.22,46.98,0-2.68-1.86-11.42-8.39-10.89-16.43.73-11.1,18.68-17.91,21.45-18.97,7.67-2.95,11.73-2.41,20.77-7.15,5.34-2.8,9.53-5,9.41-7.59-.3-6.73-29.16-7.99-29.5-14.19-.11-2.02,2.79-4.8,14.3-8.51Z" fill="#d3ddea"/>
  </g>
  <g id="Layer_3">
    <path d="M249.53,258.21c2.62-.22,6.52-.61,11.22-1.28,14.28-2.06,24.61-5.18,29.8-6.72,31.91-9.42,32.94-6.77,51.57-13.62,23.81-8.75,19.21-12,34.21-16,24.11-6.43,52.51-2.45,70.47,8.17,19.61,11.6,25.36,15.32,25.36,15.32,5.91,3.82,8.08,5.45,12.6,7.32,6.39,2.64,11.68,3.35,11.74,5.28.04,1.34-2.45,2.43-3.74,2.98-10.66,4.52-20.49,6.4-21.96,6.64-2.93.47.55-.02-21.19,5.62-2.46.64-6.66,1.72-8.17,5.11-1.11,2.49-.28,5.11,0,5.87.72,1.97,2.7,5.23,15.57,9.7,8.47,2.94,12.98,3.4,19.4,7.66,2.14,1.42,4.52,3.2,4.6,5.62.09,2.58-2.47,4.58-3.57,5.45-8.09,6.33-31.79,10.13-36.77,10.89-16.97,2.03-21.02,4.13-30.25,6.06,0,0-4.34.87-9.58,1.6-9.19,1.28-75.94,1.5-167.49,0,10.7-4.08,19.54-7.84,26.04-10.72,9.68-4.29,19.94-9.2,30.81-17.7,8.82-6.9,10.8-10.51,10.72-13.96-.1-4.95-4.42-8.54-8.34-11.81-5.18-4.31-10.1-6.38-22.47-10.66-5.65-1.96-12.59-4.29-20.6-6.81Z" fill="#acc0d0"/>
    <path d="M501.96,327.83c5.29-1.95,32.84-12.33,31.66-21.96-.62-5-8.83-8.64-15.83-11.74-10.01-4.44-17-4.33-26.55-11.23-5.12-3.71-5.34-5.35-5.11-6.13.63-2.15,5.89-2.03,10.38-2.56,3.91-.47,7.9-1.5,23.32-9.69,23.63-12.55,24.14-15.36,34.72-19.91,17.12-7.37,32.61-7.25,38.3-7.15,14.59.26,29.07,4.14,49.02,14.81,41.94,22.43,74.82,57.11,90.89,75.57h-230.81Z" fill="#acc0d0"/>
    <path d="M793.53,240.51c22.11-15.35,59.46-41.29,105.19-40.34,13.61.28,47.52-3.72,75.57,17.32,0,0,0,0,0,0,13.72,7.11,25.07,15.98,46.98,20.67,15.22,3.26,29.55,3.22,29.62,5.41.06,1.95-11.33,3.23-31.15,10.6-10.32,3.83-14.94,6.35-17.36,11.36-2.02,4.17-2.41,9.85,0,14.3.96,1.76,2.43,3.48,10.21,7.66,13.08,7.03,18.06,7.11,21.45,12.77.54.9,3.02,5.05,1.53,8.68-1.35,3.3-5.31,4.52-7.15,5.11-16.05,5.09-24.97,10.56-32.17,11.74-16.65,2.73-123.82-1.92-270.64-15.32,23.82-36.13,50.68-57.99,67.91-69.96Z" fill="#acc0d0"/>
    <path d="M657.7,314.55c8.75-10.08,23.86-25.04,46.47-36.77,28.6-14.84,54.12-16.69,73.02-17.87,8.68-.54,44.03-2.23,87.32,11.74,31.97,10.32,56.35,25.34,73.02,37.79-71.4,18.06-121.74,19.32-149.11,18.38-22.27-.76-59.41-3.99-93.45-8.17-15.43-1.89-28.26-3.74-37.28-5.11Z" fill="#fef7f3"/>
    <path d="M1126.98,231.08c-5.24,4.44-4.52,5.98-10.98,10.97-11.4,8.81-19.22,8.33-36.77,17.51-10.63,5.56-15.95,8.35-16.09,11.77-.35,8.88,26.02,10.22,42.89,31.23,6.81,8.48,9.92,17.47,11.49,23.98,46.72-9.33,81.95-5.05,106.47,1.29h0c33.21,8.3,67.92,8.68,104.11,1.3-.79-6.86-3.04-16.04-9.89-23.26-8.09-8.52-16.25-7.3-29.87-12.07-24.86-8.71-41.89-25.97-62.04-46.4-12.48-12.65-9.59-12.16-15.32-16.33-24.16-17.58-63.39-17.47-84,0Z" fill="#acc0d0"/>
  </g>
  <g id="Layer_4">
    <path d="M78.64,271.32c22.16-11.45,35.37-3.57,60.26-18.81,3.26-2,8.47-5.46,16.34-6.89,10.32-1.87,24.54-.11,31.83,8.34,1.58,1.83,1.66,2.61,3.75,4.7,3.9,3.89,7.94,5.46,15.31,8.24,13.57,5.11,13.38,5.02,13.96,5.28,8.63,3.79,15.98,7.02,16.34,10.46.71,6.75-31.29,3.14-55.15,23.25-15.03,12.67-9.42,19.85-22.47,29.11-18.31,12.99-41.85,7.73-83.23-1.53-28.55-6.39-31.59-10.94-32.68-13.79-5.19-13.54,14.39-37.31,35.74-48.34Z" fill="#8ba5be"/>
    <path d="M233.36,329.87c-.06-4.49,20.57-5.4,45.26-20.45,5.1-3.11,9.06-6.02,11.59-7.98,5.23-.98,13.02-2.05,22.47-1.87,7.01.13,16.73,1,38.13,7.15,25.9,7.45,24.99,10.02,40.51,13.28,21.48,4.5,37.68,2.05,37.82,3.92.11,1.47-9.91,2.41-23.95,7-14,4.58-22.56,9.71-27.57,12.23-23.82,11.98-57.17,6.04-123.87-5.83-5.86-1.04-20.33-3.7-20.38-7.45Z" fill="#8ba5be"/>
    <path d="M593.87,327.83c11.98-3.8,22.28-6.87,30.3-9.19,18.38-5.32,16.69-4.37,47.66-12.77,20.23-5.48,22.11-6.2,27.57-6.32,11.34-.25,20.56,2.46,33.36,6.32,13.49,4.07,15.89,6.16,26.55,9.65,2.27.74,20.25,6.52,39.83,7.54,29.93,1.56,53.74-8.49,69.45-15.32,20.43-8.88,18.87-12.25,39.83-20.43,16-6.24,30.1-11.74,49.36-11.59,9.95.08,22.86,3.46,48.68,10.22,0,0,5.74,1.5,14.24,5.57,13.33,6.38,14.52,10.45,14.8,11.87.54,2.73-.52,4.97-2.03,8.24-.34.74-3.84,8.06-10.92,13.13-11.82,8.47-28.44,6.98-31.4,6.72-25.96-2.28-52.2-.23-78.13-2.89-22.87-2.35-20.52.85-89.45,4.94-38.25,2.27-78.02,4.63-122.72,3.48-25.69-.66-62.44-2.72-106.98-9.19Z" fill="#8ba5be"/>
    <path d="M1088.4,287.7c4.85-1.59,12.03-3.49,20.87-4.13,18.28-1.31,32.34,3.6,45.96,8.51,6.17,2.23,11.44,4.48,38.13,18.04,14.18,7.21,25.96,13.32,34.38,17.72-13.26,6.1-44.58,18.15-81.49,9.56-11.4-2.65-21-6.73-28.72-10.87-.74-3.28-2.05-7.74-4.44-12.69-1.82-3.77-5.82-11.02-13.37-17.95-2.65-2.44-6.39-5.43-11.32-8.19Z" fill="#8ba5be"/>
  </g>
  <g id="Layer_5">
    <path d="M460.09,263.4c-2.01-.03-5.02-.08-8.68-.11-10.79-.1-18.73,0-19.91,0-10.92.09-30.5-1.37-48.51-3.73-16.84-2.21-37.68-5.93-61.28-12.41" fill="none" stroke="#7a92a5" stroke-dasharray="1.24 3.18" stroke-linecap="round" stroke-linejoin="round" stroke-width="1.21"/>
    <path d="M510.13,274.2c9.11,2.22,20.72,5.07,34.21,8.42,29.65,7.37,33.12,8.43,38.81,11.18,8.63,4.17,11.86,7.16,26.27,14.11,7.08,3.41,13.06,5.95,17.14,7.61" fill="none" stroke="#7a92a5" stroke-dasharray="1.24 3.18" stroke-linecap="round" stroke-linejoin="round" stroke-width="1.21"/>
    <path d="M619.4,234.89c15.04.17,26.77-1.89,34.72-3.82,11.12-2.69,16.65-5.55,30.64-8.95,10.94-2.66,20.07-3.96,26.04-4.63" fill="none" stroke="#7a92a5" stroke-dasharray="1.24 3.18" stroke-linecap="round" stroke-linejoin="round" stroke-width="1.21"/>
    <path d="M1000.85,238.16c-10.66-2.06-23.99-3.66-39.32-3.26-21.75.56-39.73,4.94-52.6,9.18" fill="none" stroke="#7a92a5" stroke-dasharray="1.24 3.18" stroke-linecap="round" stroke-linejoin="round" stroke-width="1.21"/>
    <path d="M1048.7,200.04h0c-1.17-1.51-2.72-4.02-2.15-6.62.84-3.9,5.94-5.74,8.94-6.78,13.91-4.83,31.15-9.22,37.53-10.82" fill="none" stroke="#7a92a5" stroke-dasharray="1.24 3.18" stroke-linecap="round" stroke-linejoin="round" stroke-width="1.21"/>
    <path d="M996.45,184.82c4.95-3.32,11.92-7.49,20.74-11.23,8.46-3.59,18.58-7.89,32.17-8.65,9.54-.54,17.62.84,31.91,3.29,4.86.83,8.9,1.66,11.74,2.29" fill="none" stroke="#7a92a5" stroke-dasharray="1.24 3.18" stroke-linecap="round" stroke-linejoin="round" stroke-width="1.21"/>
    <path d="M1132.72,164.82c3.41-1.39,8.37-3.34,14.43-5.5,10.74-3.82,16.11-5.73,20.37-6.13,10.33-.96,18.53,2.56,26.1,5.81,5.09,2.19,11.83,5.73,18.89,11.51" fill="none" stroke="#7a92a5" stroke-dasharray="1.24 3.18" stroke-linecap="round" stroke-linejoin="round" stroke-width="1.21"/>
  </g>
  <g id="Layer_6">
    <g>
      <path d="M732.77,213.11c-1.91,8.23-3.59,17.96-4.43,28.94-.83,10.98-.64,20.85,0,29.28" fill="none" stroke="#010d2d" stroke-miterlimit="10"/>
      <path d="M728.09,243.71c.25-1.29.97-3.94,3.19-6.32,1.14-1.22,2.34-2,3.26-2.49" fill="none" stroke="#010d2d" stroke-miterlimit="10"/>
      <path d="M722.9,230.64c.9.61,2.12,1.6,3.19,3.13,2.04,2.92,2.23,5.94,2.23,7.21" fill="none" stroke="#010d2d" stroke-miterlimit="10"/>
    </g>
    <g>
      <path d="M365.3,251.34c-1.91,8.23-3.59,17.96-4.43,28.94-.83,10.98-.64,20.85,0,29.28" fill="none" stroke="#010d2d" stroke-miterlimit="10"/>
      <path d="M360.62,281.95c.25-1.29.97-3.94,3.19-6.32,1.14-1.22,2.34-2,3.26-2.49" fill="none" stroke="#010d2d" stroke-miterlimit="10"/>
      <path d="M355.44,268.88c.9.61,2.12,1.6,3.19,3.13,2.04,2.92,2.23,5.94,2.23,7.21" fill="none" stroke="#010d2d" stroke-miterlimit="10"/>
    </g>
    <g>
      <path d="M380.39,276.77c-2.67,4.89-5.45,10.77-7.92,17.59-2.47,6.83-4.09,13.13-5.17,18.59" fill="none" stroke="#010d2d" stroke-miterlimit="10"/>
      <path d="M372.02,295.38c.39-.77,1.31-2.33,3.14-3.45.94-.57,1.84-.86,2.51-1.01" fill="none" stroke="#010d2d" stroke-miterlimit="10"/>
      <path d="M371.03,286.16c.47.55,1.07,1.39,1.47,2.55.78,2.21.37,4.16.14,4.97" fill="none" stroke="#010d2d" stroke-miterlimit="10"/>
    </g>
    <g>
      <path d="M679.53,255.7c1.58,5.41,3.07,12.17,3.7,20.03.81,10.02-.02,18.64-1.15,25.16" fill="none" stroke="#010d2d" stroke-miterlimit="10"/>
      <path d="M692.37,258.08c-2.17,3.28-4.8,8.05-6.64,14.21-1.46,4.91-2,9.3-2.17,12.72" fill="none" stroke="#010d2d" stroke-miterlimit="10"/>
      <path d="M677.03,270.5c1.25.96,3.05,2.6,4.47,5.11,2.65,4.68,2.25,9.29,2.01,10.98" fill="none" stroke="#010d2d" stroke-miterlimit="10"/>
      <path d="M675.45,282.63c1.24.83,3.29,2.43,4.98,5.12,1.81,2.88,2.34,5.61,2.52,7.12" fill="none" stroke="#010d2d" stroke-miterlimit="10"/>
      <path d="M691.14,274.31c-1.94,2.91-3.99,6.53-5.74,10.86-.87,2.15-1.56,4.21-2.1,6.13" fill="none" stroke="#010d2d" stroke-miterlimit="10"/>
    </g>
    <g>
      <path d="M876.26,233.62c-3.03,3.2-4.12,7.71-2.81,11.74,1.62,4.96,6.12,6.88,6.78,7.14.71-1.13,2.47-4.24,2.15-8.42-.48-6.39-5.41-9.96-6.13-10.47Z" fill="#fff" stroke="#010d2d" stroke-miterlimit="10"/>
      <path d="M877.66,244.09c-.07,2.09.07,7.32,3.7,11.62.83.98,1.71,1.76,2.55,2.38" fill="none" stroke="#010d2d" stroke-miterlimit="10"/>
    </g>
    <g>
      <path d="M902.48,242.51c.98,4.3-.38,8.74-3.57,11.55-3.92,3.46-8.77,2.81-9.48,2.71-.04-1.33.04-4.91,2.44-8.35,3.67-5.26,9.73-5.84,10.61-5.91Z" fill="#fff" stroke="#010d2d" stroke-miterlimit="10"/>
      <path d="M895.93,250.82c-1.01,1.84-3.79,6.27-9.11,8.13-1.21.42-2.37.65-3.41.75" fill="none" stroke="#010d2d" stroke-miterlimit="10"/>
    </g>
    <g>
      <path d="M897.33,259.62c.65,2.87-.25,5.83-2.38,7.71-2.62,2.3-5.85,1.87-6.33,1.8-.03-.89.02-3.28,1.62-5.57,2.45-3.51,6.49-3.89,7.08-3.94Z" fill="#fff" stroke="#010d2d" stroke-miterlimit="10"/>
      <path d="M892.97,265.16c-.67,1.22-2.53,4.18-6.08,5.42-.81.28-1.58.43-2.28.5" fill="none" stroke="#010d2d" stroke-miterlimit="10"/>
    </g>
    <path d="M887.74,243.51c-.98,1.32-2.29,3.38-3.19,6.13-1.31,4-1.05,7.33-.89,9.51.36,5.06.63,11.14.83,19.21" fill="none" stroke="#010d2d" stroke-miterlimit="10"/>
    <g>
      <path d="M887.74,242.49c.18-1.5.79-4.62,3.26-7.21,2.56-2.69,6.92-4.63,8.36-3.32,1.11,1.01.16,3.64,0,4.09-1.26,3.51-4.89,4.95-6.26,5.49-1.09.43-2.93.99-5.36.96Z" fill="#fff" stroke="#010d2d" stroke-miterlimit="10"/>
      <path d="M893.55,239.2c-1.99.82-5.39,2.62-7.28,6.26-.26.49-.47.99-.64,1.47" fill="none" stroke="#010d2d" stroke-miterlimit="10"/>
    </g>
    <g>
      <path d="M381.12,159.25c3.03,3.2,4.12,7.71,2.81,11.74-1.62,4.96-6.12,6.88-6.78,7.14-.71-1.13-2.47-4.24-2.15-8.42.48-6.39,5.41-9.96,6.13-10.47Z" fill="#fff" stroke="#010d2d" stroke-miterlimit="10"/>
      <path d="M379.71,169.72c.07,2.09-.07,7.32-3.7,11.62-.83.98-1.71,1.76-2.55,2.38" fill="none" stroke="#010d2d" stroke-miterlimit="10"/>
    </g>
    <g>
      <path d="M354.9,168.15c-.98,4.3.38,8.74,3.57,11.55,3.92,3.46,8.77,2.81,9.48,2.71.04-1.33-.04-4.91-2.44-8.35-3.67-5.26-9.73-5.84-10.61-5.91Z" fill="#fff" stroke="#010d2d" stroke-miterlimit="10"/>
      <path d="M361.44,176.46c1.01,1.84,3.79,6.27,9.11,8.13,1.21.42,2.37.65,3.41.75" fill="none" stroke="#010d2d" stroke-miterlimit="10"/>
    </g>
    <g>
      <path d="M360.04,185.26c-.65,2.87.25,5.83,2.38,7.71,2.62,2.3,5.85,1.87,6.33,1.8.03-.89-.02-3.28-1.62-5.57-2.45-3.51-6.49-3.89-7.08-3.94Z" fill="#fff" stroke="#010d2d" stroke-miterlimit="10"/>
      <path d="M364.4,190.8c.67,1.22,2.53,4.18,6.08,5.42.81.28,1.58.43,2.28.5" fill="none" stroke="#010d2d" stroke-miterlimit="10"/>
    </g>
    <path d="M369.63,169.15c.98,1.32,2.29,3.38,3.19,6.13,1.31,4,1.05,7.33.89,9.51-.36,5.06-.63,11.14-.83,19.21" fill="none" stroke="#010d2d" stroke-miterlimit="10"/>
    <g>
      <path d="M369.63,168.13c-.07-.92-.42-4.36-3.26-7.21-3.36-3.37-7.62-3.34-8.36-3.32-.24.87-.52,2.4,0,4.09,1.07,3.44,4.67,4.86,6.26,5.49,1.09.43,2.93.99,5.36.96Z" fill="#fff" stroke="#010d2d" stroke-miterlimit="10"/>
      <path d="M363.82,164.84c1.99.82,5.39,2.62,7.28,6.26.26.49.47.99.64,1.47" fill="none" stroke="#010d2d" stroke-miterlimit="10"/>
    </g>
    <g>
      <path d="M1144.65,232.89c-3.46,3.65-4.71,8.81-3.21,13.42,1.85,5.67,6.99,7.86,7.75,8.16.81-1.29,2.82-4.85,2.46-9.62-.55-7.3-6.18-11.38-7-11.96Z" fill="#fff" stroke="#010d2d" stroke-miterlimit="10"/>
      <path d="M1146.26,244.85c-.08,2.39.08,8.36,4.23,13.27.95,1.12,1.95,2.01,2.92,2.72" fill="none" stroke="#010d2d" stroke-miterlimit="10"/>
    </g>
    <g>
      <path d="M1140.15,257.61c-1.73,3.6-1.42,7.8.83,10.92,2.77,3.84,7.19,4.24,7.84,4.29.3-1.17.95-4.35-.48-7.87-2.19-5.38-7.43-7.1-8.19-7.34Z" fill="#fff" stroke="#010d2d" stroke-miterlimit="10"/>
      <path d="M1144.26,266.26c.52,1.82,2.09,6.3,6.41,9,.99.62,1.96,1.05,2.86,1.35" fill="none" stroke="#010d2d" stroke-miterlimit="10"/>
    </g>
    <g>
      <path d="M1174.58,242.57c1.12,4.9-.43,9.98-4.07,13.18-4.47,3.94-10.02,3.2-10.83,3.08-.04-1.52.04-5.61,2.78-9.53,4.19-6.01,11.11-6.66,12.11-6.73Z" fill="#fff" stroke="#010d2d" stroke-miterlimit="10"/>
      <path d="M1167.11,252.05c-1.15,2.1-4.32,7.16-10.39,9.27-1.39.48-2.7.74-3.89.85" fill="none" stroke="#010d2d" stroke-miterlimit="10"/>
    </g>
    <g>
      <path d="M1168.73,263.57c.75,3.27-.29,6.66-2.71,8.8-2.99,2.63-6.69,2.14-7.23,2.06-.03-1.02.03-3.75,1.86-6.37,2.8-4.01,7.42-4.44,8.09-4.5Z" fill="#fff" stroke="#010d2d" stroke-miterlimit="10"/>
      <path d="M1163.75,269.9c-.77,1.4-2.89,4.78-6.94,6.19-.92.32-1.81.49-2.6.57" fill="none" stroke="#010d2d" stroke-miterlimit="10"/>
    </g>
    <path d="M1157.78,251.71c-1.12,1.51-2.62,3.86-3.65,7-1.5,4.57-1.2,8.38-1.02,10.87.41,5.78.72,12.73.95,21.95" fill="none" stroke="#010d2d" stroke-miterlimit="10"/>
    <g>
      <path d="M1159.54,245.71c1.17-.97,5.45-4.73,6.56-11.26,1.31-7.72-2.81-13.41-3.54-14.38-1.39.51-3.72,1.59-5.48,3.9-3.59,4.71-2.06,10.91-1.38,13.63.47,1.88,1.47,4.88,3.84,8.1Z" fill="#fff" stroke="#010d2d" stroke-miterlimit="10"/>
      <path d="M1159.83,234.85c.8,3.45,1.64,9.72-1.44,15.73-.42.82-.88,1.57-1.36,2.26" fill="none" stroke="#010d2d" stroke-miterlimit="10"/>
    </g>
    <g>
      <path d="M188.77,219.81c1.48,4.81.3,9.98-3.09,13.45-4.17,4.26-9.75,3.93-10.57,3.87-.16-1.52-.37-5.6,2.07-9.71,3.74-6.3,10.59-7.45,11.59-7.6Z" fill="#fff" stroke="#010d2d" stroke-miterlimit="10"/>
      <path d="M182.02,229.82c-.99,2.17-3.79,7.46-9.69,10.01-1.35.58-2.64.93-3.82,1.14" fill="none" stroke="#010d2d" stroke-miterlimit="10"/>
    </g>
    <g>
      <path d="M188.49,243.91c.63,3.94-.86,7.88-3.9,10.23-3.75,2.89-8.1,2.02-8.73,1.88.04-1.21.32-4.44,2.69-7.41,3.63-4.54,9.14-4.7,9.94-4.71Z" fill="#fff" stroke="#010d2d" stroke-miterlimit="10"/>
      <path d="M182.08,251.03c-1.02,1.6-3.79,5.44-8.71,6.81-1.12.31-2.18.44-3.13.48" fill="none" stroke="#010d2d" stroke-miterlimit="10"/>
    </g>
    <g>
      <path d="M183.89,263.31c.47,2.95-.64,5.89-2.92,7.65-2.8,2.16-6.06,1.51-6.53,1.41.03-.9.24-3.32,2.02-5.54,2.71-3.39,6.84-3.51,7.43-3.52Z" fill="#fff" stroke="#010d2d" stroke-miterlimit="10"/>
      <path d="M179.1,268.63c-.76,1.2-2.84,4.07-6.51,5.09-.84.23-1.63.33-2.34.36" fill="none" stroke="#010d2d" stroke-miterlimit="10"/>
    </g>
    <g>
      <path d="M156.72,261.77c-.47,2.95.64,5.89,2.92,7.65,2.8,2.16,6.06,1.51,6.53,1.41-.03-.9-.24-3.32-2.02-5.54-2.71-3.39-6.84-3.51-7.43-3.52Z" fill="#fff" stroke="#010d2d" stroke-miterlimit="10"/>
      <path d="M161.51,267.09c.76,1.2,2.84,4.07,6.51,5.09.84.23,1.63.33,2.34.36" fill="none" stroke="#010d2d" stroke-miterlimit="10"/>
    </g>
    <g>
      <path d="M146.07,218.68c-1.12,4.9.43,9.98,4.07,13.18,4.47,3.94,10.02,3.2,10.83,3.08.04-1.52-.04-5.61-2.78-9.53-4.19-6.01-11.11-6.66-12.11-6.73Z" fill="#fff" stroke="#010d2d" stroke-miterlimit="10"/>
      <path d="M153.54,228.16c1.15,2.1,4.32,7.16,10.39,9.27,1.39.48,2.7.74,3.89.85" fill="none" stroke="#010d2d" stroke-miterlimit="10"/>
    </g>
    <g>
      <path d="M152.21,240.41c-.87,3.79.33,7.71,3.14,10.18,3.46,3.04,7.73,2.47,8.36,2.38.03-1.18-.03-4.33-2.15-7.36-3.23-4.64-8.58-5.14-9.35-5.2Z" fill="#fff" stroke="#010d2d" stroke-miterlimit="10"/>
      <path d="M157.98,247.73c.89,1.62,3.34,5.53,8.03,7.16,1.07.37,2.09.57,3.01.66" fill="none" stroke="#010d2d" stroke-miterlimit="10"/>
    </g>
    <path d="M168.14,201.51c-1.31,1.01-4.69,3.88-5.92,8.81-.12.47-1.98,8.4,2.96,13.4,1.05,1.07,2.15,1.73,2.96,2.14,1.32-1.28,3.59-3.84,4.81-7.75.53-1.72,1.68-5.4.23-9.7-1.28-3.81-3.88-6.03-5.04-6.89Z" fill="#fff" stroke="#010d2d" stroke-miterlimit="10"/>
    <path d="M168.36,220.41c-1.1,15.46-.29,25.68.73,32.3.23,1.52.77,4.73,1.02,9.19.45,7.86-.27,14.31-.95,18.56" fill="none" stroke="#010d2d" stroke-miterlimit="10"/>
    <g>
      <g>
        <path d="M1125.32,261.55c-1.01,4.38-1.91,9.56-2.35,15.4-.44,5.84-.34,11.1,0,15.58" fill="none" stroke="#010d2d" stroke-miterlimit="10"/>
        <path d="M1122.84,277.83c.13-.69.51-2.1,1.7-3.36.61-.65,1.24-1.06,1.73-1.32" fill="none" stroke="#010d2d" stroke-miterlimit="10"/>
        <path d="M1120.08,270.88c.48.32,1.13.85,1.7,1.66,1.09,1.55,1.19,3.16,1.19,3.84" fill="none" stroke="#010d2d" stroke-miterlimit="10"/>
      </g>
      <ellipse cx="1126.06" cy="257.82" rx="4.81" ry="2.88" transform="translate(579.74 1275.6653) rotate(-74.6715)" fill="#fcc9b9"/>
    </g>
    <g>
      <g>
        <path d="M1112.6,254.99c1.01,4.38,1.91,9.56,2.35,15.4.44,5.84.34,11.1,0,15.58" fill="none" stroke="#010d2d" stroke-miterlimit="10"/>
        <path d="M1115.09,271.27c-.13-.69-.51-2.1-1.7-3.36-.61-.65-1.24-1.06-1.73-1.32" fill="none" stroke="#010d2d" stroke-miterlimit="10"/>
        <path d="M1117.85,264.32c-.48.32-1.13.85-1.7,1.66-1.09,1.55-1.19,3.16-1.19,3.84" fill="none" stroke="#010d2d" stroke-miterlimit="10"/>
      </g>
      <ellipse cx="1111.86" cy="251.26" rx="2.88" ry="4.81" transform="translate(-26.87 302.86) rotate(-15.33)" fill="#fcc9b9"/>
    </g>
    <ellipse cx="1109.89" cy="264.82" rx="2.09" ry="3.35" transform="translate(100.75 797.37) rotate(-41.24)" fill="#fcc9b9"/>
    <ellipse cx="1128.03" cy="271.43" rx="3.35" ry="2.09" transform="translate(180.29 940.7) rotate(-48.76)" fill="#fcc9b9"/>
    <ellipse cx="1119.33" cy="269.44" rx="1.42" ry="2.27" transform="translate(-23.48 409.03) rotate(-20.5)" fill="#fcc9b9"/>
    <ellipse cx="1118.31" cy="263.03" rx="2.27" ry="1.42" transform="translate(480.3303 1218.4258) rotate(-69.5017)" fill="#fcc9b9"/>
    <ellipse cx="678.5" cy="252.51" rx="2.87" ry="4.6" transform="translate(-43.53 199.63) rotate(-16.22)" fill="#fcc9b9"/>
    <ellipse cx="365.79" cy="248.43" rx="4.6" ry="2.87" transform="translate(41.84 549.38) rotate(-77.07)" fill="#fcc9b9"/>
    <ellipse cx="368.78" cy="270.99" rx="3.77" ry="2.36" transform="translate(-79.14 364.78) rotate(-48.14)" fill="#fcc9b9"/>
    <ellipse cx="354.22" cy="267.03" rx="2.36" ry="3.77" transform="translate(-87.87 303.53) rotate(-41.73)" fill="#fcc9b9"/>
    <ellipse cx="381.89" cy="274.05" rx="3.77" ry="2.36" transform="translate(-2.11 545.14) rotate(-70.88)" fill="#fcc9b9"/>
    <ellipse cx="379.81" cy="289.33" rx="3.27" ry="2.04" transform="translate(-96.22 326.23) rotate(-41.73)" fill="#fcc9b9"/>
    <ellipse cx="369.71" cy="284.4" rx="2.04" ry="3.27" transform="translate(-80.81 163.58) rotate(-22.56)" fill="#fcc9b9"/>
    <ellipse cx="694.07" cy="254.41" rx="4.6" ry="2.87" transform="translate(152.9 757.99) rotate(-63.07)" fill="#fcc9b9"/>
    <ellipse cx="736.96" cy="232.28" rx="4.6" ry="2.87" transform="translate(51.61 589.15) rotate(-45)" fill="#fcc9b9"/>
    <ellipse cx="733.6" cy="209.96" rx="4.6" ry="2.87" transform="translate(352.43 870.99) rotate(-76)" fill="#fcc9b9"/>
    <ellipse cx="721.97" cy="227.25" rx="2.87" ry="4.6" transform="translate(-34.74 210.77) rotate(-16.22)" fill="#fcc9b9"/>
    <ellipse cx="693.14" cy="270.94" rx="4.6" ry="2.87" transform="translate(137.65 766.2) rotate(-63.07)" fill="#fcc9b9"/>
    <ellipse cx="675.45" cy="267.61" rx="2.87" ry="4.6" transform="translate(-35.78 415.96) rotate(-33.4)" fill="#fcc9b9"/>
    <ellipse cx="673.54" cy="279.89" rx="2.87" ry="4.6" transform="translate(-42.85 416.94) rotate(-33.4)" fill="#fcc9b9"/>
  </g>
  <g id="Layer_7">
    <ellipse cx="808.15" cy="279.57" rx="9.68" ry="4.33" fill="none" stroke="#010d2d" stroke-miterlimit="10" stroke-width="1.62"/>
    <path d="M813.7,278.54c-1.02.43-2.81,1.03-5.11,1.03-1.11,0-2.99-.14-5.11-1.03v-55.14c.68-.45,2.52-1.53,5.11-1.53s4.42,1.08,5.11,1.53v55.14Z" fill="#fff" stroke="#010d2d" stroke-miterlimit="10" stroke-width="1.62"/>
    <ellipse cx="808.6" cy="223.91" rx="5.11" ry="2.28" fill="none" stroke="#010d2d" stroke-miterlimit="10" stroke-width="1.62"/>
    <path d="M772.6,268.08c-1.43.15-3.93.35-7.15.35-1.55,0-4.18-.05-7.15-.35v-18.8c.96-.15,3.53-.52,7.15-.52s6.19.37,7.15.52v18.8Z" fill="#fff" stroke="#010d2d" stroke-miterlimit="10" stroke-width="1.62"/>
    <ellipse cx="765.45" cy="249.46" rx="7.15" ry=".78" fill="none" stroke="#010d2d" stroke-miterlimit="10" stroke-width="1.62"/>
    <path d="M801.64,272.81c-1.43.15-3.93.35-7.15.35-1.55,0-4.18-.05-7.15-.35v-18.8c.96-.15,3.53-.52,7.15-.52s6.19.37,7.15.52v18.8Z" fill="#fff" stroke="#010d2d" stroke-miterlimit="10" stroke-width="1.62"/>
    <ellipse cx="794.49" cy="254.19" rx="7.15" ry=".78" fill="none" stroke="#010d2d" stroke-miterlimit="10" stroke-width="1.62"/>
    <path d="M828.04,269.41c-1.02.59-2.81,1.41-5.11,1.41-1.11,0-2.99-.19-5.11-1.41v-75.66c.68-.62,2.52-2.1,5.11-2.1s4.42,1.48,5.11,2.1v75.66Z" fill="#fff" stroke="#010d2d" stroke-miterlimit="10" stroke-width="1.62"/>
    <ellipse cx="822.93" cy="194.46" rx="5.11" ry="3.13" fill="none" stroke="#010d2d" stroke-miterlimit="10" stroke-width="1.62"/>
    <path d="M775.35,216.91c-.14.7,5,1.21,8.94,4.14,3.16,2.35,6.27,6.79,7.15,15.79v20.66h7.91v-20.29c.25-1.49.84-6.11-1.73-11-.5-.95-2.65-4.82-7.21-7.21-2.55-1.34-4.74-1.64-8.17-2.08-2.56-.33-6.77-.63-6.89,0Z" fill="#fff" stroke="#010d2d" stroke-miterlimit="10" stroke-width="1.62"/>
    <path d="M783.06,221.63c.31-.76-3.27-4.09-7.66-4.14-4.06-.05-6.96,2.74-8.43,4.14-3.56,3.42-4.7,7.55-5.11,9.61v21.26h6.89v-18.92c-.04-1.21,0-4.33,2.04-7.39.55-.83,2.16-3.25,5.11-4.33,3.75-1.37,6.88.43,7.15-.24Z" fill="#fff" stroke="#010d2d" stroke-miterlimit="10" stroke-width="1.62"/>
    <ellipse cx="743.23" cy="281.1" rx="14.62" ry="5.86" fill="#fff" stroke="#010d2d" stroke-miterlimit="10" stroke-width="1.62"/>
    <ellipse cx="825.04" cy="299.74" rx="14.62" ry="5.86" fill="#fff" stroke="#010d2d" stroke-miterlimit="10" stroke-width="1.62"/>
    <ellipse cx="823.57" cy="299.61" rx="11.86" ry="4.75" fill="#d3ddea"/>
    <ellipse cx="848.62" cy="283.9" rx="17.43" ry="5.86" fill="#fff" stroke="#010d2d" stroke-miterlimit="10" stroke-width="1.62"/>
    <ellipse cx="844.02" cy="283.9" rx="11.86" ry="4.75" fill="#d3ddea"/>
    <ellipse cx="787.47" cy="305.6" rx="15.11" ry="5.86" fill="#fff" stroke="#010d2d" stroke-miterlimit="10" stroke-width="1.62"/>
    <ellipse cx="784.97" cy="305.6" rx="11.86" ry="4.75" fill="#d3ddea"/>
    <ellipse cx="766.95" cy="293.35" rx="12.54" ry="4.86" fill="#fff" stroke="#010d2d" stroke-miterlimit="10" stroke-width="1.62"/>
    <ellipse cx="763.35" cy="293.35" rx="8.38" ry="3.36" fill="#d3ddea"/>
    <ellipse cx="740.8" cy="281.1" rx="11.04" ry="4.42" fill="#d3ddea"/>
    <g>
      <circle cx="399.83" cy="194.65" r="5.36" fill="none" stroke="#ff8156" stroke-miterlimit="10" stroke-width="1.59"/>
      <line x1="399.83" y1="200.01" x2="399.83" y2="219.84" fill="none" stroke="#010d2d" stroke-miterlimit="10" stroke-width="1.62"/>
    </g>
    <g>
      <circle cx="602.48" cy="153.25" r="5.36" fill="none" stroke="#ff8156" stroke-miterlimit="10" stroke-width="1.59"/>
      <line x1="602.48" y1="158.61" x2="602.48" y2="178.44" fill="none" stroke="#010d2d" stroke-miterlimit="10" stroke-width="1.62"/>
    </g>
    <g>
      <circle cx="906.98" cy="176.76" r="5.36" fill="none" stroke="#ff8156" stroke-miterlimit="10" stroke-width="1.59"/>
      <line x1="906.98" y1="182.13" x2="906.98" y2="201.96" fill="none" stroke="#010d2d" stroke-miterlimit="10" stroke-width="1.62"/>
    </g>
    <circle cx="1026.05" cy="219.02" r="4.25" fill="none" stroke="#ff8156" stroke-miterlimit="10" stroke-width="1.59"/>
    <line x1="1026.05" y1="223.27" x2="1026.05" y2="239" fill="none" stroke="#010d2d" stroke-miterlimit="10" stroke-width="1.62"/>
    <g>
      <circle cx="845.95" cy="228.4" r="6.9" fill="none" stroke="#ff8156" stroke-miterlimit="10" stroke-width="1.59"/>
      <line x1="845.95" y1="235.31" x2="845.95" y2="260.84" fill="none" stroke="#010d2d" stroke-miterlimit="10" stroke-width="1.59"/>
    </g>
    <g>
      <path d="M425.55,206.65c20.31-12.26,38.35-16.16,50.04-17.52,7.67-.89,13.75-.83,17.87-.77,27.24.39,47.13,7.64,51.06,9.12,17.67,6.62,31.09,15.72,40.4,23.38-.13,5.23-.26,10.47-.38,15.7-5.02-4.05-12.15-9.39-21.19-14.94-6.4-3.92-12.6-7.24-16.53-9.1-25.61-12.16-54.98-10.4-64.85-9.45-8.08.78-23.47,2.99-41.11,10.48-5.69,2.42-10.32,4.83-13.68,6.72-.55-4.54-1.09-9.08-1.64-13.62Z" fill="#fff" stroke="#010d2d" stroke-miterlimit="10" stroke-width="1.62"/>
      <path d="M583.37,235.9c-7.81-6.36-17.14-12.75-28.09-18.36-10.79-5.53-25.44-12.93-45.7-15.07-13.75-1.45-24.71.07-32.12,1.11-14.19,1.98-24.55,5.44-28.05,6.67-9.13,3.19-16.59,6.86-22.21,10.01,2.74.39,6.07,1.1,9.71,2.41,4.48,1.61,8.06,3.62,10.71,5.37,2.82-2.73,6.96-6.35,12.46-9.9,5.64-3.64,12.68-8.18,22.43-9.9,14.15-2.49,25.6,2.45,29.94,4.4,3.11,1.39,13.73,6.49,22.4,18.18,4.99,6.73,7.54,13.23,8.89,17.61,4.18-2.51,9.39-5.19,15.61-7.44,9.29-3.36,17.65-4.63,24.01-5.09Z" fill="#fff" stroke="#010d2d" stroke-miterlimit="10" stroke-width="1.62"/>
      <path d="M543.75,248.43c-1.34-4.72-5.72-17.74-18.56-28.1-3.52-2.84-15.72-11.97-33.45-12.26-17.32-.28-29.32,7.71-32.94,10.21-5.05,3.49-8.64,7.21-10.98,9.96" fill="none" stroke="#010d2d" stroke-miterlimit="10" stroke-width="1.62"/>
      <path d="M496.51,208.37c-2.89-.5-7.13-.94-12.17-.37-9.08,1.03-15.51,4.73-21.19,8.19-3.99,2.42-9.52,6.26-15.32,12.06,5.99,3.96,11.98,7.93,17.97,11.89.45-3.82,1.81-10.15,6.37-16.11,3.41-4.46,7.34-6.87,11.66-9.56,4.93-3.07,9.43-4.95,12.68-6.11Z" fill="#c8dce8" stroke="#010d2d" stroke-miterlimit="10"/>
      <line x1="443.59" y1="197.51" x2="443.59" y2="212.44" fill="none" stroke="#010d2d" stroke-miterlimit="10" stroke-width="1.62"/>
      <line x1="457.17" y1="192.79" x2="457.17" y2="207.73" fill="none" stroke="#010d2d" stroke-miterlimit="10" stroke-width="1.62"/>
      <line x1="474.26" y1="189.28" x2="474.26" y2="204.03" fill="none" stroke="#010d2d" stroke-miterlimit="10" stroke-width="1.62"/>
      <line x1="487.78" y1="188.34" x2="487.78" y2="202.36" fill="none" stroke="#010d2d" stroke-miterlimit="10" stroke-width="1.62"/>
      <line x1="498.13" y1="188.49" x2="498.13" y2="202.4" fill="none" stroke="#010d2d" stroke-miterlimit="10" stroke-width="1.62"/>
      <line x1="513.69" y1="189.91" x2="513.69" y2="203.43" fill="none" stroke="#010d2d" stroke-miterlimit="10" stroke-width="1.62"/>
      <line x1="537.19" y1="195.44" x2="537.19" y2="208.72" fill="none" stroke="#010d2d" stroke-miterlimit="10" stroke-width="1.62"/>
      <line x1="553.83" y1="201.34" x2="553.83" y2="215.92" fill="none" stroke="#010d2d" stroke-miterlimit="10" stroke-width="1.62"/>
      <line x1="565.29" y1="207.26" x2="565.29" y2="222.82" fill="none" stroke="#010d2d" stroke-miterlimit="10" stroke-width="1.62"/>
    </g>
    <path d="M244.94,171.74c3.21-3.38,6.41-6.75,9.62-10.13,2.64,3.12,5.28,6.24,7.91,9.36v15.07c-5.67,2.1-11.35,4.19-17.02,6.29l-.51-20.59Z" fill="none" stroke="#010d2d" stroke-miterlimit="10" stroke-width="1.62"/>
    <path d="M265.28,168.6l9.79-9.62c2.87,2.92,5.73,5.84,8.6,8.77v13.77c-3.07.37-6.36.89-9.83,1.61-2.83.58-5.5,1.24-7.99,1.93-.19-5.49-.38-10.97-.57-16.46Z" fill="none" stroke="#010d2d" stroke-miterlimit="10" stroke-width="1.62"/>
    <path d="M289.11,165.28l9.11-9.19c3.23,3.26,6.47,6.52,9.7,9.79v15.02c-3.74-.1-7.49-.2-11.23-.3-2.52.1-5.05.2-7.57.3v-15.62Z" fill="none" stroke="#010d2d" stroke-miterlimit="10" stroke-width="1.62"/>
    <path d="M312.94,158.98c3.6-3.43,7.21-6.87,10.81-10.3,3.74,3.91,7.49,7.83,11.23,11.74-.14,8.52-.29,17.04-.43,25.55-4.11-1.09-8.22-2.18-12.33-3.27-3.09-.6-6.19-1.21-9.28-1.81v-21.92Z" fill="none" stroke="#010d2d" stroke-miterlimit="10" stroke-width="1.62"/>
    <rect x="250.98" y="173.96" width="5.53" height="6.93" fill="#ff8156"/>
    <rect x="272.17" y="169.52" width="5.53" height="6.93" fill="#ff8156"/>
    <rect x="295.74" y="166.89" width="5.53" height="6.93" fill="#ff8156"/>
    <rect x="321.19" y="164.33" width="5.53" height="6.93" fill="#ff8156"/>
    <circle cx="233.36" cy="121.87" r="27.23" fill="none" stroke="#010d2d" stroke-miterlimit="10" stroke-width="1.62"/>
    <circle cx="233.36" cy="121.87" r="35.3" fill="none" stroke="#010d2d" stroke-miterlimit="10" stroke-width="1.62"/>
    <rect x="199.68" y="144.22" width="7.43" height="11.05" transform="translate(165.46 -99.96) rotate(45)" fill="none" stroke="#010d2d" stroke-miterlimit="10" stroke-width="1.62"/>
    <path d="M179.51,182.66c-2.81,1.66-6.21,1.36-8.3-.73-2.09-2.09-2.39-5.49-.73-8.3,8.16-8.16,16.32-16.32,24.48-24.48l9.03,9.03-24.48,24.48Z" fill="none" stroke="#010d2d" stroke-miterlimit="10" stroke-width="1.62"/>
    <path d="M233.36,135.96c5.66-4.36,9.22-8.69,11.36-11.74,1.84-2.63,2.71-4.4,2.55-6.51-.23-3.1-2.63-6.62-6-7.15-2.42-.38-4.44.93-4.98,1.28-1.73,1.12-2.58,2.61-2.94,3.32-.35-.71-1.21-2.2-2.94-3.32-.54-.35-2.56-1.65-4.98-1.28-3.37.52-5.77,4.05-6,7.15-.15,2.11.71,3.89,2.55,6.51,2.15,3.06,5.7,7.38,11.36,11.74Z" fill="#fcc9b9"/>
    <rect x="935.23" y="75.06" width="4.6" height="126.47" fill="none" stroke="#010d2d" stroke-miterlimit="10" stroke-width="1.62"/>
    <path d="M931.91,122.21h-26.89c-2.27-3.09-4.54-6.18-6.81-9.28,2.27-3.09,4.54-6.18,6.81-9.28h27.23c-.06.55-.1,1.75.51,3.06.47,1.01,1.13,1.66,1.53,2-.03,2.76-.05,5.51-.08,8.27-.43.34-1.25,1.09-1.79,2.33-.55,1.24-.55,2.35-.51,2.89Z" fill="#c8dce8" stroke="#010d2d" stroke-miterlimit="10"/>
    <path d="M943.15,97.79h26.89c2.27-3.09,4.54-6.18,6.81-9.28-2.27-3.09-4.54-6.18-6.81-9.28h-27.23c.06.55.1,1.75-.51,3.06-.47,1.01-1.13,1.66-1.53,2,.03,2.76.05,5.51.08,8.27.43.34,1.25,1.09,1.79,2.33.55,1.24.55,2.35.51,2.89Z" fill="none" stroke="#010d2d" stroke-miterlimit="10" stroke-width="1.62"/>
    <path d="M944.65,123.57c14.61,0,29.22,0,43.83,0,3.7-3.09,7.4-6.18,11.1-9.28-3.7-3.09-7.4-6.18-11.1-9.28h-44.38c.09.55.16,1.75-.83,3.06-.77,1.01-1.84,1.66-2.5,2,.04,2.76.09,5.51.13,8.27.7.34,2.03,1.09,2.92,2.33.89,1.24.89,2.35.83,2.89Z" fill="none" stroke="#010d2d" stroke-miterlimit="10" stroke-width="1.62"/>
    <circle cx="937.53" cy="56.94" r="4.85" fill="none" stroke="#010d2d" stroke-miterlimit="10" stroke-width="1.62"/>
    <line x1="937.53" y1="61.79" x2="937.53" y2="75.06" fill="none" stroke="#010d2d" stroke-miterlimit="10" stroke-width="1.62"/>
    <path d="M1093.02,172.45v-63.44h39.69v63.44" fill="none" stroke="#010d2d" stroke-miterlimit="10" stroke-width="1.62"/>
    <path d="M1112.87,166.98c-6.62,2.95-13.23,5.9-19.85,8.84v-66.81c6.75,2.98,13.5,5.96,20.26,8.94-.14,16.34-.27,32.68-.41,49.02Z" fill="#c8dce8" stroke="#010d2d" stroke-miterlimit="10"/>
    <line x1="1126.53" y1="81.96" x2="1126.53" y2="94.72" fill="none" stroke="#fcc9b9" stroke-miterlimit="10" stroke-width="1.62"/>
    <line x1="1147.15" y1="81.96" x2="1139.04" y2="97.79" fill="none" stroke="#fcc9b9" stroke-miterlimit="10" stroke-width="1.62"/>
    <line x1="1147.15" y1="105.96" x2="1157.78" y2="103.66" fill="none" stroke="#fcc9b9" stroke-miterlimit="10" stroke-width="1.62"/>
    <path d="M537.19,89.87c-3.96,2.16-13.07,7.9-17.87,19.14-1.24,2.9-7.47,17.48,0,26.94,3.39,4.3,10.03,8.06,14.55,5.94,5.49-2.58,6.85-13.34,3.32-20.03-3.79-7.17-12.88-9.06-31.91-11.39-35.01-4.28-39.03-2.13-57.45-5.46-25.36-4.59-39.44-12.6-48-23.06-3.23-3.94-5.82-8.42-5.36-13.53.86-9.76,12.54-18.96,19.15-16.34,5.41,2.14,8.06,12.46,5.36,19.91-4.98,13.76-27.68,16.48-39.25,17.87-11.13,1.33-31.09,1.91-55.77-7.91" fill="none" stroke="#ff8156" stroke-dasharray="1.24 3.18" stroke-linecap="round" stroke-linejoin="round" stroke-width="1.21"/>
    <path d="M710.81,138.3c19.74-8.47,31.13-23.31,29.11-35.91-1.3-8.11-8.53-17.65-15.83-17.11-7.31.54-13.94,11.15-13.28,19.74,1.53,19.87,42.12,30.86,51.06,33.28,15.45,4.18,44.89,9.23,84.08-2.34" fill="none" stroke="#ff8156" stroke-dasharray="1.24 3.18" stroke-linecap="round" stroke-linejoin="round" stroke-width="1.21"/>
    <path d="M799.59,75.06c2.11-.75,4.7-1.27,6.45,0,2.5,1.8,1.88,6.18,3.28,6.38,1.14.17,1.67-2.7,4.38-4.34,1.84-1.11,3.87-1.17,5.36-1.02" fill="none" stroke="#010d2d" stroke-miterlimit="10" stroke-width="1.62"/>
    <path d="M271.29,41.64c2.16-.6,4.78-.92,6.44.46,2.36,1.98,1.43,6.3,2.82,6.6,1.13.25,1.86-2.58,4.68-4.01,1.91-.98,3.94-.89,5.42-.63" fill="none" stroke="#010d2d" stroke-miterlimit="10" stroke-width="1.62"/>
    <path d="M221.99,12.5c2.16-.6,4.78-.92,6.44.46,2.36,1.98,1.43,6.3,2.82,6.6,1.13.25,1.86-2.58,4.68-4.01,1.91-.98,3.94-.89,5.42-.63" fill="none" stroke="#010d2d" stroke-miterlimit="10" stroke-width="1.62"/>
    <path d="M183.11,40.12c2.66-.52,5.86-.68,7.74,1.15,2.67,2.61,1.15,7.75,2.8,8.24,1.34.4,2.49-2.94,6.02-4.42,2.4-1.01,4.85-.71,6.61-.27" fill="none" stroke="#010d2d" stroke-miterlimit="10" stroke-width="1.62"/>
    <path d="M813.7,24.82c2.45-1.7,5.59-3.26,8.28-2.25,3.84,1.44,4.57,7.28,6.44,7.05,1.52-.19,1.2-4.05,4.1-7.1,1.97-2.07,4.56-2.85,6.53-3.18" fill="none" stroke="#010d2d" stroke-miterlimit="10" stroke-width="1.62"/>
    <path d="M846.28,56.98c2.45-1.7,5.59-3.26,8.28-2.25,3.84,1.44,4.57,7.28,6.44,7.05,1.52-.19,1.2-4.05,4.1-7.1,1.97-2.07,4.56-2.85,6.53-3.18" fill="none" stroke="#010d2d" stroke-miterlimit="10" stroke-width="1.62"/>
    <path d="M598.98,60.09c0,14.13-17.49,24.11-30.89,24.68-4.85.21-8.9-.83-11.64-1.79-5.06,2.13-10.12,4.26-15.17,6.39,1.23-4.3,2.46-8.6,3.7-12.9-2.61-2.58-7.87-8.57-7.78-16.38.15-13.51,16.21-24.68,30.89-24.68,17.06,0,30.89,11.05,30.89,24.68Z" fill="none" stroke="#010d2d" stroke-miterlimit="10" stroke-width="1.62"/>
    <path d="M579.15,77.94c-3.62,12.82,8.57,27.64,20.09,28.04,2.09.07,5.65-.28,9.95-3.17l6.52,8.81c1.23-3.56,2.46-7.12,3.69-10.69,3.55-.99,9.47-3.27,11.62-8.36,4-9.45-6.85-24.3-20.09-28.04-14.32-4.04-28.55,1.96-31.78,13.4Z" fill="#fff" stroke="#010d2d" stroke-miterlimit="10" stroke-width="1.62"/>
    <circle cx="560.81" cy="60.21" r="2.17" fill="none" stroke="#010d2d" stroke-miterlimit="10" stroke-width="1.62"/>
    <circle cx="570.25" cy="60.21" r="2.17" fill="none" stroke="#010d2d" stroke-miterlimit="10" stroke-width="1.62"/>
    <circle cx="578.5" cy="60.21" r="2.17" fill="none" stroke="#010d2d" stroke-miterlimit="10" stroke-width="1.62"/>
    <ellipse cx="604.96" cy="86.04" rx="21.59" ry="17.62" fill="#fcc9b9"/>
    <line x1="950.3" y1="112.94" x2="982.98" y2="112.94" fill="none" stroke="#ff8156" stroke-miterlimit="10"/>
  </g>
</svg>